<svg width="287" height="214" viewBox="0 0 287 214" fill="none" xmlns="http://www.w3.org/2000/svg">
<path d="M287 187.928H0V188.071H287V187.928Z" fill="#EBEBEB"/>
<path d="M258.243 197.163H239.232V197.307H258.243V197.163Z" fill="#EBEBEB"/>
<path d="M190.12 198.725H185.132V198.868H190.12V198.725Z" fill="#EBEBEB"/>
<path d="M238.658 191.837H227.643V191.98H238.658V191.837Z" fill="#EBEBEB"/>
<path d="M54.9029 192.801H30.1118V192.944H54.9029V192.801Z" fill="#EBEBEB"/>
<path d="M63.651 192.801H60.0176V192.944H63.651V192.801Z" fill="#EBEBEB"/>
<path d="M129.236 195.223H75.4639V195.367H129.236V195.223Z" fill="#EBEBEB"/>
<path d="M136.038 162.327H25.2044C24.3362 162.326 23.504 161.98 22.8906 161.365C22.2771 160.751 21.9326 159.918 21.9326 159.05V3.24884C21.9402 2.38556 22.288 1.56012 22.9006 0.951817C23.5132 0.343515 24.3411 0.00147885 25.2044 0H136.038C136.907 0 137.741 0.345311 138.356 0.959969C138.97 1.57463 139.316 2.40828 139.316 3.27754V159.05C139.316 159.919 138.97 160.753 138.356 161.367C137.741 161.982 136.907 162.327 136.038 162.327ZM25.2044 0.1148C24.3742 0.116321 23.5785 0.447183 22.992 1.03477C22.4055 1.62235 22.0761 2.41863 22.0761 3.24884V159.05C22.0761 159.88 22.4055 160.676 22.992 161.264C23.5785 161.851 24.3742 162.182 25.2044 162.184H136.038C136.869 162.182 137.665 161.851 138.253 161.264C138.84 160.677 139.171 159.88 139.172 159.05V3.24884C139.171 2.41811 138.84 1.62183 138.253 1.03441C137.665 0.446997 136.869 0.116318 136.038 0.1148H25.2044Z" fill="#EBEBEB"/>
<path d="M260.2 162.327H149.361C148.492 162.326 147.659 161.98 147.045 161.366C146.43 160.751 146.085 159.918 146.083 159.05V3.24884C146.092 2.38503 146.441 1.5596 147.055 0.951458C147.668 0.343314 148.497 0.00146272 149.361 0H260.2C261.062 0.00298738 261.889 0.345691 262.5 0.953832C263.111 1.56197 263.458 2.38655 263.466 3.24884V159.05C263.466 159.917 263.122 160.749 262.51 161.363C261.898 161.977 261.067 162.324 260.2 162.327ZM149.361 0.1148C148.53 0.116318 147.734 0.446997 147.146 1.03441C146.559 1.62183 146.228 2.41811 146.227 3.24884V159.05C146.228 159.88 146.559 160.677 147.146 161.264C147.734 161.851 148.53 162.182 149.361 162.184H260.2C261.031 162.182 261.827 161.851 262.414 161.264C263.002 160.677 263.332 159.88 263.334 159.05V3.24884C263.332 2.41811 263.002 1.62183 262.414 1.03441C261.827 0.446997 261.031 0.116318 260.2 0.1148H149.361Z" fill="#EBEBEB"/>
<path d="M49.0194 104.91H52.251L52.251 36.891H49.0194L49.0194 104.91Z" fill="#E0E0E0"/>
<path d="M112.384 36.8967H50.8853V104.916H112.384V36.8967Z" fill="#E0E0E0"/>
<path d="M114.346 36.8967H50.5576V104.916H114.346V36.8967Z" fill="#F0F0F0"/>
<path d="M111.649 39.0664H53.1582V101.787H111.649V39.0664Z" fill="white"/>
<path d="M111.649 39.0664H109.956V101.787H111.649V39.0664Z" fill="#E0E0E0"/>
<path d="M53.0034 84.1656V85.8589H110.134V84.1656H53.0034Z" fill="#E0E0E0"/>
<path d="M111.648 81.33H52.251V84.1713H111.648V81.33Z" fill="#F0F0F0"/>
<path d="M157.11 186.866H241.723V79.7171L157.11 79.7171V186.866Z" fill="#F0F0F0"/>
<path d="M160.1 106.529L238.732 106.529V83.6146L160.1 83.6146V106.529Z" fill="#E0E0E0"/>
<path d="M234.261 106.529H238.727V87.3283H234.261V106.529Z" fill="#EBEBEB"/>
<path d="M212.661 106.529H217.127V87.3283H212.661V106.529Z" fill="#EBEBEB"/>
<path d="M184.885 105.769L189.286 106.528L192.547 87.6064L188.146 86.8478L184.885 105.769Z" fill="#EBEBEB"/>
<path d="M228.733 106.529H233.199V89.8539H228.733V106.529Z" fill="#EBEBEB"/>
<path d="M218.459 106.529H222.924V89.8539H218.459V106.529Z" fill="#EBEBEB"/>
<path d="M192.543 106.529H197.008V89.8539H192.543V106.529Z" fill="#EBEBEB"/>
<path d="M203.188 105.559L207.547 106.528L211.165 90.2504L206.806 89.2815L203.188 105.559Z" fill="#EBEBEB"/>
<path d="M224.87 106.529H227.103V86.3698H224.87V106.529Z" fill="#EBEBEB"/>
<path d="M198.3 106.529H200.533V86.3698H198.3V106.529Z" fill="#EBEBEB"/>
<path d="M238.726 110.162H160.094V133.076H238.726V110.162Z" fill="#E0E0E0"/>
<path d="M164.56 113.87H160.094V133.07H164.56V113.87Z" fill="#EBEBEB"/>
<path d="M186.16 113.87H181.694V133.07H186.16V113.87Z" fill="#EBEBEB"/>
<path d="M210.683 113.384L206.282 114.143L209.543 133.064L213.944 132.306L210.683 113.384Z" fill="#EBEBEB"/>
<path d="M170.099 116.401H165.633V133.076H170.099V116.401Z" fill="#EBEBEB"/>
<path d="M180.362 116.401H175.896V133.076H180.362V116.401Z" fill="#EBEBEB"/>
<path d="M206.278 116.401H201.812V133.076H206.278V116.401Z" fill="#EBEBEB"/>
<path d="M192.034 115.821L187.675 116.79L191.292 133.067L195.652 132.098L192.034 115.821Z" fill="#EBEBEB"/>
<path d="M173.962 112.917H171.729V133.076H173.962V112.917Z" fill="#EBEBEB"/>
<path d="M200.527 112.917H198.294V133.076H200.527V112.917Z" fill="#EBEBEB"/>
<path d="M234.261 133.07H238.727V113.87H234.261V133.07Z" fill="#EBEBEB"/>
<path d="M228.733 133.07H233.199V116.396H228.733V133.07Z" fill="#EBEBEB"/>
<path d="M218.459 133.07H222.924V116.396H218.459V133.07Z" fill="#EBEBEB"/>
<path d="M224.87 133.07H227.103V112.912H224.87V133.07Z" fill="#EBEBEB"/>
<path d="M160.1 159.612H238.732V136.698H160.1V159.612Z" fill="#E0E0E0"/>
<path d="M189.128 159.612H193.593V140.412H189.128V159.612Z" fill="#EBEBEB"/>
<path d="M161.353 158.846L165.753 159.605L169.015 140.683L164.614 139.925L161.353 158.846Z" fill="#EBEBEB"/>
<path d="M205.199 159.612H209.665V142.937H205.199V159.612Z" fill="#EBEBEB"/>
<path d="M194.93 159.612H199.396V142.937H194.93V159.612Z" fill="#EBEBEB"/>
<path d="M169.008 159.612H173.474V142.937H169.008V159.612Z" fill="#EBEBEB"/>
<path d="M179.658 158.635L184.018 159.604L187.635 143.327L183.276 142.358L179.658 158.635Z" fill="#EBEBEB"/>
<path d="M201.336 159.612H203.569V139.453H201.336V159.612Z" fill="#EBEBEB"/>
<path d="M174.766 159.612H176.999V139.453H174.766V159.612Z" fill="#EBEBEB"/>
<path d="M212.744 158.847L217.145 159.606L220.406 140.684L216.005 139.926L212.744 158.847Z" fill="#EBEBEB"/>
<path d="M220.404 159.612H224.87V142.937H220.404V159.612Z" fill="#EBEBEB"/>
<path d="M231.05 158.633L235.409 159.602L239.027 143.325L234.667 142.356L231.05 158.633Z" fill="#EBEBEB"/>
<path d="M226.15 159.612H228.383V139.453H226.15V159.612Z" fill="#EBEBEB"/>
<path d="M101.254 120.988H52.1422C50.8741 120.985 49.6181 121.233 48.4458 121.717C47.2735 122.2 46.208 122.91 45.3103 123.806C44.4126 124.701 43.7002 125.765 43.2139 126.936C42.7275 128.107 42.4768 129.363 42.4761 130.631V168.986H110.903V130.631C110.903 129.364 110.653 128.11 110.168 126.939C109.683 125.769 108.972 124.706 108.076 123.81C107.18 122.915 106.116 122.204 104.946 121.72C103.775 121.236 102.521 120.987 101.254 120.988Z" fill="#E6E6E6"/>
<path d="M125.425 149.412H116.637C115.115 149.412 113.655 150.017 112.578 151.093C111.502 152.17 110.897 153.63 110.897 155.152V186.866H131.148V155.146C131.146 153.628 130.543 152.172 129.471 151.097C128.398 150.023 126.943 149.417 125.425 149.412Z" fill="#E0E0E0"/>
<path d="M125.425 149.412H125.235C123.713 149.412 122.253 150.017 121.176 151.093C120.1 152.17 119.495 153.63 119.495 155.152V186.866H131.142V155.146C131.14 153.629 130.538 152.174 129.466 151.099C128.395 150.025 126.942 149.418 125.425 149.412Z" fill="#EBEBEB"/>
<path d="M117.056 172.292H49.6509V186.86H117.056V172.292Z" fill="#E6E6E6"/>
<path d="M117.148 158.969H52.142C48.9243 158.969 46.3159 161.578 46.3159 164.795V168.429C46.3159 171.646 48.9243 174.255 52.142 174.255H117.148C120.365 174.255 122.974 171.646 122.974 168.429V164.795C122.974 161.578 120.365 158.969 117.148 158.969Z" fill="#F5F5F5"/>
<path d="M60.3161 158.969H52.2514C49.0337 158.969 46.4253 161.578 46.4253 164.795V168.429C46.4253 171.646 49.0337 174.255 52.2514 174.255H60.3161C63.5338 174.255 66.1422 171.646 66.1422 168.429V164.795C66.1422 161.578 63.5338 158.969 60.3161 158.969Z" fill="#E0E0E0"/>
<path d="M51.3785 149.412H42.5906C41.0682 149.412 39.6083 150.017 38.5318 151.093C37.4553 152.17 36.8506 153.63 36.8506 155.152V186.866H57.1128V155.146C57.1113 153.626 56.5066 152.168 55.4316 151.093C54.3565 150.018 52.8989 149.414 51.3785 149.412Z" fill="#E0E0E0"/>
<path d="M51.3788 149.412H51.1951C49.6727 149.412 48.2127 150.017 47.1363 151.093C46.0598 152.17 45.4551 153.63 45.4551 155.152V186.866H57.113V155.146C57.1115 153.626 56.5069 152.168 55.4318 151.093C54.3568 150.018 52.8991 149.414 51.3788 149.412Z" fill="#F0F0F0"/>
<path d="M197.272 54.2602C203.726 54.2602 208.959 49.0279 208.959 42.5736C208.959 36.1192 203.726 30.8869 197.272 30.8869C190.818 30.8869 185.585 36.1192 185.585 42.5736C185.585 49.0279 190.818 54.2602 197.272 54.2602Z" fill="#E0E0E0"/>
<path d="M207.09 44.1693C207.969 38.7528 204.291 33.649 198.874 32.7698C193.458 31.8905 188.354 35.5688 187.475 40.9853C186.596 46.4019 190.274 51.5057 195.69 52.3849C201.107 53.2641 206.211 49.5859 207.09 44.1693Z" fill="#F0F0F0"/>
<path d="M196.808 35.7545V42.6999L192.204 40.0939" fill="#F0F0F0"/>
<path d="M196.807 43.1992C196.72 43.1995 196.635 43.1757 196.561 43.1304L191.969 40.5301C191.861 40.4612 191.784 40.3534 191.753 40.2291C191.722 40.1048 191.74 39.9735 191.804 39.8622C191.867 39.751 191.971 39.6683 192.093 39.6313C192.216 39.5943 192.348 39.6058 192.462 39.6634L196.32 41.8503V35.7545C196.333 35.632 196.391 35.5187 196.482 35.4364C196.574 35.3541 196.693 35.3085 196.816 35.3085C196.939 35.3085 197.058 35.3541 197.15 35.4364C197.241 35.5187 197.299 35.632 197.313 35.7545V42.6999C197.313 42.787 197.291 42.8728 197.247 42.9484C197.204 43.024 197.141 43.0868 197.066 43.1304C196.988 43.1778 196.898 43.2017 196.807 43.1992Z" fill="#E0E0E0"/>
<path d="M143.5 213.855C204.965 213.855 254.793 210.316 254.793 205.951C254.793 201.586 204.965 198.047 143.5 198.047C82.0345 198.047 32.207 201.586 32.207 205.951C32.207 210.316 82.0345 213.855 143.5 213.855Z" fill="#F5F5F5"/>
<path d="M223.091 86.5707H207.593C206.182 86.5707 204.828 87.1313 203.83 88.1292C202.833 89.127 202.272 90.4804 202.272 91.8917V98.309C202.272 99.7202 202.833 101.074 203.83 102.071C204.828 103.069 206.182 103.63 207.593 103.63H214.217L215.996 109.249L217.793 103.63H223.062C224.473 103.63 225.827 103.069 226.825 102.071C227.823 101.074 228.383 99.7202 228.383 98.309V91.8917C228.383 90.4854 227.827 89.1363 226.835 88.1393C225.843 87.1422 224.497 86.5783 223.091 86.5707Z" fill="#407BFF"/>
<path d="M209.326 94.71C209.326 94.9223 209.263 95.1298 209.146 95.3063C209.028 95.4829 208.86 95.6204 208.664 95.7017C208.468 95.7829 208.252 95.8042 208.044 95.7628C207.835 95.7213 207.644 95.6191 207.494 95.469C207.344 95.3189 207.242 95.1276 207.2 94.9194C207.159 94.7112 207.18 94.4954 207.261 94.2992C207.343 94.1031 207.48 93.9355 207.657 93.8175C207.833 93.6996 208.041 93.6366 208.253 93.6366C208.394 93.6366 208.534 93.6644 208.664 93.7183C208.794 93.7723 208.912 93.8513 209.012 93.951C209.112 94.0507 209.191 94.169 209.245 94.2992C209.299 94.4295 209.326 94.569 209.326 94.71ZM212.989 93.6366C212.776 93.6366 212.569 93.6996 212.392 93.8175C212.216 93.9355 212.078 94.1031 211.997 94.2992C211.916 94.4954 211.894 94.7112 211.936 94.9194C211.977 95.1276 212.079 95.3189 212.23 95.469C212.38 95.6191 212.571 95.7213 212.779 95.7628C212.987 95.8042 213.203 95.7829 213.399 95.7017C213.595 95.6204 213.763 95.4829 213.881 95.3063C213.999 95.1298 214.062 94.9223 214.062 94.71C214.056 94.4293 213.94 94.1622 213.74 93.9658C213.539 93.7694 213.269 93.6595 212.989 93.6596V93.6366ZM217.724 93.6366C217.512 93.6366 217.304 93.6996 217.128 93.8175C216.951 93.9355 216.814 94.1031 216.732 94.2992C216.651 94.4954 216.63 94.7112 216.671 94.9194C216.713 95.1276 216.815 95.3189 216.965 95.469C217.115 95.6191 217.306 95.7213 217.515 95.7628C217.723 95.8042 217.939 95.7829 218.135 95.7017C218.331 95.6204 218.499 95.4829 218.617 95.3063C218.734 95.1298 218.797 94.9223 218.797 94.71C218.791 94.4293 218.676 94.1622 218.475 93.9658C218.274 93.7694 218.005 93.6595 217.724 93.6596V93.6366ZM222.46 93.6366C222.247 93.6366 222.04 93.6996 221.863 93.8175C221.687 93.9355 221.549 94.1031 221.468 94.2992C221.387 94.4954 221.365 94.7112 221.407 94.9194C221.448 95.1276 221.55 95.3189 221.701 95.469C221.851 95.6191 222.042 95.7213 222.25 95.7628C222.458 95.8042 222.674 95.7829 222.87 95.7017C223.066 95.6204 223.234 95.4829 223.352 95.3063C223.47 95.1298 223.533 94.9223 223.533 94.71C223.527 94.4293 223.411 94.1622 223.211 93.9658C223.01 93.7694 222.74 93.6595 222.46 93.6596V93.6366Z" fill="white"/>
<path d="M64.0012 105.513H48.5319C47.8332 105.513 47.1412 105.65 46.4957 105.918C45.8501 106.185 45.2635 106.577 44.7694 107.071C44.2753 107.565 43.8834 108.152 43.616 108.797C43.3486 109.443 43.2109 110.135 43.2109 110.834V117.251C43.2109 118.662 43.7715 120.016 44.7694 121.013C45.7673 122.011 47.1207 122.572 48.5319 122.572H55.1559L56.9353 128.186L58.7319 122.572H64.0012C65.4124 122.572 66.7658 122.011 67.7637 121.013C68.7616 120.016 69.3222 118.662 69.3222 117.251V110.834C69.3222 110.135 69.1846 109.443 68.9172 108.797C68.6498 108.152 68.2578 107.565 67.7637 107.071C67.2696 106.577 66.683 106.185 66.0375 105.918C65.3919 105.65 64.7 105.513 64.0012 105.513Z" fill="#407BFF"/>
<path d="M50.2366 113.652C50.2366 113.864 50.1737 114.072 50.0557 114.248C49.9378 114.425 49.7701 114.562 49.574 114.644C49.3779 114.725 49.162 114.746 48.9538 114.705C48.7456 114.663 48.5543 114.561 48.4042 114.411C48.2541 114.261 48.1519 114.07 48.1105 113.861C48.0691 113.653 48.0903 113.437 48.1716 113.241C48.2528 113.045 48.3904 112.877 48.5669 112.76C48.7434 112.642 48.9509 112.579 49.1632 112.579C49.4479 112.579 49.7209 112.692 49.9222 112.893C50.1235 113.094 50.2366 113.367 50.2366 113.652ZM53.8987 112.579C53.6864 112.579 53.4789 112.642 53.3024 112.76C53.1259 112.877 52.9883 113.045 52.9071 113.241C52.8258 113.437 52.8046 113.653 52.846 113.861C52.8874 114.07 52.9896 114.261 53.1397 114.411C53.2898 114.561 53.4811 114.663 53.6893 114.705C53.8975 114.746 54.1134 114.725 54.3095 114.644C54.5056 114.562 54.6733 114.425 54.7912 114.248C54.9092 114.072 54.9721 113.864 54.9721 113.652C54.9676 113.371 54.8523 113.103 54.6513 112.906C54.4504 112.709 54.1799 112.6 53.8987 112.602V112.579ZM58.6342 112.579C58.4215 112.576 58.2128 112.637 58.0348 112.754C57.8568 112.87 57.7174 113.037 57.6344 113.233C57.5514 113.429 57.5285 113.645 57.5686 113.854C57.6087 114.063 57.71 114.256 57.8597 114.407C58.0093 114.558 58.2006 114.661 58.4091 114.704C58.6176 114.746 58.834 114.726 59.0308 114.645C59.2276 114.564 59.3959 114.426 59.5144 114.25C59.6329 114.073 59.6961 113.865 59.6961 113.652C59.6916 113.373 59.5779 113.107 59.3794 112.91C59.1809 112.714 58.9134 112.603 58.6342 112.602V112.579ZM63.3697 112.579C63.1574 112.579 62.9499 112.642 62.7734 112.76C62.5969 112.877 62.4593 113.045 62.3781 113.241C62.2968 113.437 62.2756 113.653 62.317 113.861C62.3584 114.07 62.4606 114.261 62.6107 114.411C62.7608 114.561 62.9521 114.663 63.1603 114.705C63.3685 114.746 63.5844 114.725 63.7805 114.644C63.9766 114.562 64.1443 114.425 64.2622 114.248C64.3802 114.072 64.4431 113.864 64.4431 113.652C64.4386 113.371 64.3233 113.103 64.1223 112.906C63.9214 112.709 63.6509 112.6 63.3697 112.602V112.579Z" fill="white"/>
<path d="M237.062 206.755H164.21C150.6 206.755 149.728 190.729 160.915 183.186C162.96 181.826 165.224 180.828 167.608 180.236C189.758 174.41 220.881 135.246 242.802 151.634L242.865 151.679C264.7 168.182 249.437 206.755 237.062 206.755Z" fill="#263238"/>
<path opacity="0.5" d="M237.062 206.755H164.21C150.6 206.755 149.728 190.729 160.915 183.186C162.96 181.826 165.224 180.828 167.608 180.236C189.758 174.41 220.881 135.246 242.802 151.634L242.865 151.679C264.7 168.182 249.437 206.755 237.062 206.755Z" fill="white"/>
<path opacity="0.2" d="M242.745 151.605C240.908 151.484 238.681 152.001 236.281 154.01C230.053 159.233 239.524 184.38 224.629 194.839C216.318 200.676 180.46 203.248 168.492 196.09C159.658 190.803 159.543 187.48 160.915 183.186C162.96 181.826 165.224 180.828 167.608 180.236C189.73 174.381 220.852 135.217 242.745 151.605Z" fill="black"/>
<path d="M186.103 146.864L181.757 143.804L185.006 140.481C185.006 140.481 188.341 142.203 188.025 145.274L186.103 146.864Z" fill="#E4897B"/>
<path d="M180.052 140.429L183.066 138.535L185.006 140.481L181.757 143.804L180.052 140.429Z" fill="#E4897B"/>
<path d="M207.478 138.96C203.362 140.171 201.336 147.409 197.938 154.245L188.048 144.418L184.902 147.208C184.902 147.208 193.96 161.598 198.236 161.598C203.575 161.598 209.114 146.772 209.114 146.772L207.478 138.96Z" fill="#263238"/>
<path opacity="0.1" d="M209.114 146.772C209.114 146.772 208.236 149.119 206.818 151.938C205.469 154.682 203.632 157.879 201.652 159.813C200.533 160.898 199.356 161.587 198.208 161.587C193.932 161.587 184.874 147.197 184.874 147.197L188.02 144.407L197.91 154.234C201.308 147.397 203.328 140.159 207.455 138.948L209.114 146.772Z" fill="white"/>
<path opacity="0.2" d="M206.841 151.949C205.492 154.693 203.655 157.89 201.675 159.825C201.887 153.264 205.119 146.864 205.119 146.864C206.01 148.434 206.594 150.16 206.841 151.949Z" fill="black"/>
<path d="M203.54 178.945C203.54 178.945 168.612 173.928 166.764 181.591C164.818 189.696 192.864 195.16 209.625 195.734C226.385 196.308 231.196 192.29 228.504 171.626H205.544L203.54 178.945Z" fill="#407BFF"/>
<path opacity="0.6" d="M203.54 178.945C203.54 178.945 168.612 173.928 166.764 181.591C164.818 189.696 192.864 195.16 209.625 195.734C226.385 196.308 231.196 192.29 228.504 171.626H205.544L203.54 178.945Z" fill="white"/>
<path d="M184.087 194.925L176.769 194.93L173.256 194.936L172.837 191.234L176.086 190.798L184.024 189.741L184.087 194.925Z" fill="#E4897B"/>
<path d="M173.629 190.769L174.519 194.994C174.532 195.049 174.533 195.107 174.522 195.162C174.512 195.218 174.49 195.272 174.458 195.319C174.427 195.366 174.386 195.406 174.338 195.437C174.29 195.468 174.236 195.489 174.18 195.499L172.074 195.878C172.074 195.878 169.278 196.589 168.492 196.09C166.196 194.62 163.992 185.333 164.927 184.644C165.266 184.392 165.857 184.776 166.156 185.081C167.097 186.039 169.1 188.72 169.898 189.512C170.822 190.442 172.47 190.47 173.193 190.43C173.294 190.425 173.394 190.457 173.474 190.519C173.554 190.581 173.609 190.67 173.629 190.769Z" fill="#263238"/>
<path opacity="0.2" d="M184.087 194.925L176.769 194.93L176.086 190.798L184.024 189.741L184.087 194.925Z" fill="black"/>
<path d="M194.787 188.393L201.732 190.706L205.067 191.814L204.292 195.453L201.072 194.839L193.208 193.335L194.787 188.393Z" fill="#E4897B"/>
<path d="M203.397 195.642L203.885 191.354C203.892 191.298 203.91 191.244 203.938 191.195C203.966 191.146 204.004 191.102 204.048 191.068C204.093 191.033 204.144 191.008 204.199 190.993C204.254 190.978 204.311 190.974 204.367 190.981L206.485 191.291C206.485 191.291 209.355 191.498 209.929 192.221C211.651 194.339 210.802 203.85 209.699 204.206C209.292 204.338 208.856 203.787 208.666 203.408C208.092 202.197 207.025 199.017 206.519 198.019C205.945 196.842 204.378 196.297 203.684 196.101C203.589 196.071 203.509 196.008 203.456 195.924C203.404 195.84 203.383 195.74 203.397 195.642Z" fill="#263238"/>
<path opacity="0.2" d="M194.787 188.393L201.732 190.706L201.072 194.839L193.208 193.335L194.787 188.393Z" fill="black"/>
<path d="M199.867 195.481L197.886 195.671L199.069 188.817L201.342 190.017L199.867 195.481Z" fill="#407BFF"/>
<path opacity="0.6" d="M199.867 195.481L197.886 195.671L199.069 188.817L201.342 190.017L199.867 195.481Z" fill="white"/>
<path d="M206.496 197.967C206.548 198.277 206.501 198.596 206.364 198.88C206.308 198.964 206.231 199.033 206.141 199.078C206.05 199.124 205.949 199.144 205.847 199.138C205.786 199.14 205.725 199.127 205.671 199.099C205.617 199.071 205.571 199.029 205.537 198.977C205.239 198.472 205.939 196.916 206.025 196.744C206.031 196.725 206.043 196.708 206.06 196.698C206.077 196.687 206.097 196.683 206.117 196.687C206.139 196.689 206.16 196.698 206.176 196.712C206.193 196.726 206.204 196.746 206.209 196.767C206.345 197.156 206.441 197.558 206.496 197.967ZM205.669 198.713C205.673 198.764 205.689 198.813 205.715 198.857C205.726 198.879 205.744 198.897 205.765 198.908C205.787 198.919 205.812 198.923 205.836 198.92C205.906 198.928 205.976 198.916 206.039 198.886C206.102 198.855 206.155 198.807 206.192 198.748C206.359 198.202 206.329 197.614 206.106 197.089C205.864 197.6 205.716 198.15 205.669 198.713Z" fill="#407BFF"/>
<path d="M206.227 196.779V196.825C206.037 197.324 205.176 198.311 204.689 198.242C204.609 198.228 204.536 198.188 204.482 198.128C204.428 198.067 204.395 197.99 204.39 197.909C204.368 197.829 204.364 197.745 204.378 197.662C204.392 197.58 204.423 197.502 204.47 197.433C204.826 196.859 206.06 196.675 206.129 196.681C206.148 196.677 206.168 196.68 206.185 196.688C206.203 196.696 206.217 196.71 206.227 196.727C206.231 196.744 206.231 196.762 206.227 196.779ZM204.574 197.829V197.875C204.608 198.019 204.666 198.024 204.694 198.036C204.981 198.076 205.641 197.433 205.928 196.939C205.439 196.999 204.983 197.219 204.631 197.565C204.582 197.644 204.56 197.737 204.568 197.829H204.574Z" fill="#407BFF"/>
<path d="M177.435 190.264C177.435 190.264 209.929 177.636 219.882 179.748C229.836 181.86 229.881 187.067 224.836 191.923C219.791 196.779 212.254 194.907 212.254 194.907C212.254 194.907 218.178 191.36 217.764 189.167C217.351 186.975 213.586 191.986 213.586 191.986C213.586 191.986 193.949 196.79 177.734 195.522L177.435 190.264Z" fill="#407BFF"/>
<path d="M170.122 189.581C169.933 189.331 169.829 189.027 169.823 188.714C169.832 188.613 169.868 188.516 169.926 188.434C169.985 188.351 170.064 188.285 170.156 188.243C170.21 188.214 170.27 188.198 170.331 188.198C170.392 188.198 170.453 188.214 170.506 188.243C171 188.559 171.08 190.264 171.08 190.459C171.083 190.478 171.078 190.498 171.068 190.515C171.057 190.532 171.042 190.544 171.023 190.551C171.005 190.563 170.984 190.569 170.963 190.569C170.941 190.569 170.92 190.563 170.902 190.551C170.609 190.256 170.347 189.93 170.122 189.581ZM170.512 188.536C170.483 188.495 170.446 188.46 170.403 188.433C170.384 188.419 170.361 188.412 170.337 188.412C170.313 188.412 170.29 188.419 170.271 188.433C170.205 188.457 170.147 188.499 170.104 188.555C170.061 188.611 170.036 188.678 170.03 188.748C170.133 189.31 170.432 189.816 170.874 190.178C170.851 189.613 170.729 189.057 170.512 188.536Z" fill="#407BFF"/>
<path d="M170.902 190.511V190.459C170.845 189.931 171.149 188.657 171.62 188.49C171.698 188.466 171.781 188.468 171.857 188.498C171.933 188.527 171.997 188.581 172.039 188.651C172.147 188.778 172.201 188.943 172.188 189.11C172.131 189.782 171.121 190.511 171.04 190.545C171.024 190.556 171.005 190.562 170.986 190.562C170.966 190.562 170.947 190.556 170.931 190.545C170.919 190.536 170.909 190.524 170.902 190.511ZM171.89 188.817V188.777C171.798 188.668 171.74 188.691 171.712 188.697C171.436 188.789 171.138 189.661 171.138 190.235C171.419 190 171.964 189.506 171.999 189.087C172.005 188.994 171.981 188.901 171.93 188.823L171.89 188.817Z" fill="#407BFF"/>
<path opacity="0.7" d="M177.435 190.264C177.435 190.264 209.929 177.636 219.882 179.748C229.836 181.86 229.881 187.067 224.836 191.923C219.791 196.779 212.254 194.907 212.254 194.907C212.254 194.907 218.178 191.36 217.764 189.167C217.351 186.975 213.586 191.986 213.586 191.986C213.586 191.986 193.949 196.79 177.734 195.522L177.435 190.264Z" fill="white"/>
<path d="M177.039 190.166L178.864 189.328L179.914 196.164L177.377 195.751L177.039 190.166Z" fill="#407BFF"/>
<path opacity="0.6" d="M177.039 190.166L178.864 189.328L179.914 196.164L177.377 195.751L177.039 190.166Z" fill="white"/>
<path d="M230.811 140.056C227.304 159.572 228.578 172.2 228.578 172.2C228.578 172.2 212.26 171.976 205.555 171.597C201.979 147.943 207.478 138.954 207.478 138.954C209.231 138.603 211.005 138.359 212.788 138.225C213.161 138.196 213.545 138.179 213.936 138.162C217.098 138.16 220.259 138.338 223.401 138.696C223.975 138.759 224.601 138.839 225.186 138.925C228.177 139.379 230.811 140.056 230.811 140.056Z" fill="#263238"/>
<path opacity="0.1" d="M230.811 140.056C230.375 142.478 230.013 144.797 229.715 146.99C229.244 150.434 228.929 153.625 228.722 156.461C228.659 157.316 228.601 158.148 228.561 158.941C228.395 161.845 228.349 164.33 228.355 166.339C228.355 170.116 228.578 172.2 228.578 172.2C228.578 172.2 212.26 171.976 205.555 171.597C201.974 147.943 207.484 138.954 207.484 138.954C209.235 138.602 211.006 138.359 212.788 138.225C213.161 138.196 213.545 138.179 213.936 138.162C217.098 138.157 220.259 138.335 223.401 138.696C223.975 138.759 224.601 138.839 225.186 138.925C228.177 139.373 230.811 140.056 230.811 140.056Z" fill="white"/>
<path opacity="0.2" d="M216.237 161.598C220.419 161.101 224.545 160.214 228.561 158.946C228.395 161.851 228.349 164.336 228.354 166.345C220.565 167.063 217.385 165.565 217.385 165.565L216.237 161.598Z" fill="black"/>
<path opacity="0.2" d="M229.715 146.996C229.244 150.44 228.928 153.631 228.722 156.467C226.489 151.921 228.148 146.468 228.148 146.468L229.715 146.996Z" fill="black"/>
<path d="M217.121 169.611H205.251C205.02 169.608 204.799 169.518 204.632 169.36C204.464 169.201 204.361 168.986 204.344 168.756L202.691 153C202.679 152.894 202.691 152.787 202.724 152.686C202.757 152.585 202.811 152.492 202.882 152.413C202.954 152.334 203.042 152.272 203.139 152.229C203.237 152.187 203.342 152.166 203.449 152.167H215.319C215.545 152.172 215.761 152.259 215.927 152.412C216.093 152.566 216.198 152.775 216.22 153L217.879 168.756C217.894 168.864 217.885 168.973 217.854 169.077C217.822 169.181 217.769 169.277 217.697 169.358C217.625 169.439 217.536 169.504 217.437 169.548C217.337 169.591 217.23 169.613 217.121 169.611Z" fill="#263238"/>
<path opacity="0.6" d="M217.121 169.611H205.251C205.02 169.608 204.799 169.518 204.632 169.36C204.464 169.201 204.361 168.986 204.344 168.756L202.691 153C202.679 152.894 202.691 152.787 202.724 152.686C202.757 152.585 202.811 152.492 202.882 152.413C202.954 152.334 203.042 152.272 203.139 152.229C203.237 152.187 203.342 152.166 203.449 152.167H215.319C215.545 152.172 215.761 152.259 215.927 152.412C216.093 152.566 216.198 152.775 216.22 153L217.879 168.756C217.894 168.864 217.885 168.973 217.854 169.077C217.822 169.181 217.769 169.277 217.697 169.358C217.625 169.439 217.536 169.504 217.437 169.548C217.337 169.591 217.23 169.613 217.121 169.611Z" fill="white"/>
<path opacity="0.2" d="M216.628 169.611H205.251C205.02 169.608 204.799 169.518 204.632 169.36C204.464 169.201 204.361 168.986 204.344 168.756L202.691 153C202.679 152.894 202.691 152.787 202.724 152.686C202.757 152.585 202.811 152.492 202.882 152.413C202.954 152.334 203.042 152.272 203.139 152.229C203.237 152.187 203.342 152.166 203.449 152.167H214.825C215.051 152.172 215.268 152.259 215.434 152.412C215.6 152.566 215.704 152.775 215.726 153L217.385 168.756C217.4 168.864 217.392 168.973 217.36 169.077C217.329 169.181 217.275 169.277 217.203 169.358C217.131 169.439 217.043 169.504 216.943 169.548C216.844 169.591 216.736 169.613 216.628 169.611Z" fill="white"/>
<path d="M209.705 159.612C209.541 159.611 209.379 159.645 209.23 159.711C209.08 159.778 208.947 159.875 208.838 159.997C208.729 160.12 208.648 160.264 208.599 160.42C208.551 160.576 208.536 160.741 208.557 160.904C208.591 161.252 208.752 161.576 209.009 161.813C209.266 162.05 209.602 162.184 209.952 162.189C210.115 162.191 210.276 162.157 210.425 162.091C210.574 162.025 210.708 161.928 210.816 161.806C210.925 161.684 211.006 161.541 211.055 161.385C211.104 161.23 211.119 161.066 211.1 160.904C210.749 160.897 210.414 160.762 210.156 160.523C209.899 160.285 209.739 159.961 209.705 159.612Z" fill="#263238"/>
<path opacity="0.3" d="M212.277 153.442H206.003C205.849 153.44 205.698 153.394 205.568 153.311C205.438 153.228 205.334 153.11 205.268 152.971L204.895 152.19H213.172L212.954 152.971C212.911 153.115 212.821 153.24 212.698 153.325C212.575 153.411 212.426 153.452 212.277 153.442Z" fill="black"/>
<path d="M215.962 161.093L213.218 160.869L213.333 164.52L215.629 165.725L220.921 165.243L221.352 162.781C219.613 160.232 215.962 161.093 215.962 161.093Z" fill="#E4897B"/>
<path d="M230.811 140.056C233.629 140.906 237.624 157.276 236.987 160.892C236.35 164.508 229.399 166.058 220.565 165.857V161.587L230.811 158.596L229.089 152.282C229.089 152.282 227.665 147.639 228.302 144.39C228.652 142.714 229.532 141.194 230.811 140.056Z" fill="#263238"/>
<path opacity="0.1" d="M230.811 140.056C233.629 140.906 237.624 157.276 236.987 160.892C236.35 164.508 229.399 166.058 220.565 165.857V161.587L230.811 158.596L229.089 152.282C229.089 152.282 227.665 147.639 228.302 144.39C228.652 142.714 229.532 141.194 230.811 140.056Z" fill="white"/>
<path d="M222.035 138.512C220.605 140.004 218.361 141.256 214.762 141.124C212.001 141.015 211.616 139.281 212.099 138.328C213.775 137.984 214.532 137.255 214.768 136.325C215.003 135.395 214.676 134.144 214.194 132.984L218.849 129.064L219.635 128.398C219.635 128.622 219.607 128.857 219.595 129.104C219.541 130.014 219.541 130.926 219.595 131.836C219.75 134.402 220.359 137.186 222.035 138.512Z" fill="#E4897B"/>
<path opacity="0.2" d="M219.6 131.836C218.734 133.61 217.213 135.751 214.767 136.325C215.02 135.338 214.676 134.144 214.193 132.984L218.848 129.064C219.095 129.064 219.348 129.064 219.595 129.104C219.542 130.014 219.544 130.926 219.6 131.836Z" fill="black"/>
<path d="M208.936 121.269C208.253 122.83 208.167 126.182 210.543 125.35C212.919 124.518 210.084 118.588 208.936 121.269Z" fill="#263238"/>
<path d="M220.318 124.73C220.112 128.909 220.209 131.371 218.12 133.524C214.974 136.761 209.785 134.856 208.729 130.688C207.788 126.929 208.281 120.724 212.357 119.048C213.261 118.677 214.244 118.542 215.214 118.655C216.185 118.768 217.111 119.124 217.906 119.692C218.701 120.259 219.339 121.019 219.761 121.9C220.183 122.781 220.375 123.755 220.318 124.73Z" fill="#E4897B"/>
<path d="M213.981 125.913C213.981 126.251 213.809 126.533 213.585 126.533C213.361 126.533 213.178 126.257 213.172 125.913C213.166 125.568 213.35 125.298 213.568 125.298C213.786 125.298 213.976 125.574 213.981 125.913Z" fill="#263238"/>
<path d="M210.124 125.924C210.124 126.263 209.952 126.538 209.728 126.538C209.504 126.538 209.321 126.263 209.321 125.924C209.321 125.585 209.493 125.31 209.717 125.31C209.941 125.31 210.124 125.58 210.124 125.924Z" fill="#263238"/>
<path d="M211.353 126.091C210.947 127.099 210.402 128.046 209.734 128.903C209.971 129.059 210.238 129.164 210.518 129.21C210.797 129.256 211.084 129.244 211.358 129.173L211.353 126.091Z" fill="#DE5753"/>
<path d="M215.153 124.667C215.118 124.672 215.083 124.668 215.051 124.655C215.018 124.642 214.99 124.62 214.969 124.592C214.82 124.388 214.626 124.222 214.402 124.106C214.178 123.991 213.93 123.929 213.677 123.927C213.624 123.93 213.572 123.913 213.532 123.878C213.491 123.844 213.465 123.796 213.459 123.743C213.457 123.717 213.46 123.69 213.468 123.665C213.476 123.639 213.489 123.616 213.506 123.596C213.523 123.575 213.544 123.559 213.567 123.546C213.591 123.534 213.617 123.527 213.643 123.525C213.962 123.523 214.277 123.596 214.562 123.739C214.847 123.881 215.095 124.089 215.285 124.346C215.317 124.388 215.332 124.441 215.325 124.493C215.319 124.546 215.292 124.594 215.25 124.627C215.222 124.648 215.188 124.662 215.153 124.667Z" fill="#263238"/>
<path d="M208.448 124.604C208.411 124.615 208.371 124.615 208.333 124.604C208.31 124.592 208.288 124.576 208.271 124.556C208.253 124.536 208.24 124.513 208.231 124.488C208.223 124.463 208.219 124.437 208.221 124.41C208.223 124.384 208.23 124.358 208.242 124.334C208.369 124.042 208.565 123.785 208.812 123.585C209.06 123.386 209.353 123.249 209.665 123.186C209.692 123.183 209.718 123.185 209.744 123.192C209.77 123.2 209.793 123.212 209.814 123.228C209.835 123.245 209.852 123.265 209.865 123.289C209.878 123.312 209.886 123.338 209.889 123.364C209.893 123.39 209.892 123.416 209.886 123.441C209.88 123.466 209.868 123.49 209.853 123.511C209.837 123.532 209.818 123.549 209.795 123.563C209.773 123.576 209.748 123.584 209.723 123.588C209.476 123.634 209.245 123.741 209.05 123.898C208.854 124.055 208.701 124.258 208.603 124.489C208.588 124.519 208.566 124.545 208.54 124.565C208.513 124.585 208.481 124.598 208.448 124.604Z" fill="#263238"/>
<path d="M213.752 121.378C213.752 121.378 214.9 120.551 215.428 121.441C215.956 122.331 215.922 124.701 215.922 124.701L216.151 124.282C216.151 124.282 217.638 129.563 219.79 128.232C221.943 126.9 225.106 121.539 220.077 118.807C220.077 118.807 219.544 117.532 216.22 116.901C212.897 116.269 208.879 118.324 208.184 120.523C207.49 122.721 208.46 123.967 208.46 123.967C208.566 123.488 208.785 123.042 209.097 122.664C209.141 122.888 209.241 123.097 209.386 123.274C209.531 123.45 209.718 123.587 209.929 123.674C209.895 123.225 209.989 122.775 210.199 122.377C210.309 122.767 210.505 123.128 210.773 123.433C211.014 121.171 212.552 120.712 213.034 120.729C213.207 120.748 213.369 120.821 213.498 120.938C213.627 121.054 213.716 121.208 213.752 121.378Z" fill="#263238"/>
<path d="M221.977 128.191C221.823 128.689 221.573 129.151 221.24 129.551C220.907 129.951 220.498 130.281 220.037 130.522C218.797 131.159 217.89 130.109 217.993 128.8C218.085 127.612 218.837 125.85 220.198 125.763C220.495 125.75 220.791 125.81 221.06 125.939C221.329 126.068 221.561 126.261 221.737 126.501C221.914 126.741 222.028 127.021 222.069 127.316C222.111 127.611 222.079 127.912 221.977 128.191Z" fill="#E4897B"/>
<path d="M211.49 130.574C211.849 130.948 212.179 131.349 212.478 131.773L212.724 131.653C213.832 131.079 214.165 130.464 214.194 129.931C214.201 129.673 214.148 129.418 214.039 129.184C213.98 129.052 213.903 128.928 213.809 128.817C213.28 129.468 212.616 129.997 211.863 130.367C211.639 130.505 211.49 130.574 211.49 130.574Z" fill="#263238"/>
<path d="M211.863 130.378L212.168 130.723C213.206 130.195 213.89 129.678 214.039 129.196C213.98 129.063 213.903 128.939 213.809 128.829C213.28 129.48 212.616 130.009 211.863 130.378Z" fill="white"/>
<path d="M212.724 131.653C213.832 131.079 214.165 130.464 214.194 129.931C213.776 130.152 213.401 130.446 213.086 130.797C212.878 131.037 212.751 131.336 212.724 131.653Z" fill="#A24E3F"/>
<path d="M111.591 144.177L111.89 147.363C111.89 147.363 130.533 150.199 133.518 153.103C136.503 156.007 147.093 201.945 147.093 201.945L142.823 202.519C142.823 202.519 128.002 168.653 127.21 163.751C127.21 163.751 114.157 164.239 105.249 164.239C96.3402 164.239 95.2783 144.149 95.2783 144.149L111.591 144.177Z" fill="#407BFF"/>
<path opacity="0.3" d="M147.093 201.95L142.823 202.524C142.823 202.524 136.761 188.674 132.187 177.406C129.598 171.052 127.491 165.519 127.21 163.751C127.21 163.751 118.175 164.084 109.99 164.198C108.337 164.198 106.724 164.233 105.226 164.233C96.3173 164.233 95.2554 144.143 95.2554 144.143H111.568L111.867 147.329C111.867 147.329 130.516 150.158 133.495 153.069C136.474 155.979 147.093 201.95 147.093 201.95Z" fill="white"/>
<path d="M150.388 206.066C147.518 206.066 147.133 206.02 145.515 205.963C144.131 205.917 143.793 206.089 142.691 206.066C141.761 206.066 141.795 205.153 142.082 204.132C142.226 203.615 142.444 202.53 142.656 201.704L146.869 201.394C147.443 202.542 148.798 204.143 150.417 204.361C152.035 204.579 151.536 206.066 150.388 206.066Z" fill="#263238"/>
<path opacity="0.2" d="M132.186 177.429C129.598 171.075 127.491 165.542 127.21 163.774C127.21 163.774 118.175 164.107 109.99 164.221L109.106 148.614C109.106 148.614 120.632 150.267 128.381 156.943C129.362 157.77 131.274 170.553 132.186 177.429Z" fill="black"/>
<path d="M128.168 167.223H94.8133V165.174C94.8133 164.491 95.0848 163.835 95.5682 163.352C96.0515 162.869 96.707 162.597 97.3906 162.597H125.591C126.275 162.597 126.93 162.869 127.414 163.352C127.897 163.835 128.168 164.491 128.168 165.174V167.223Z" fill="#263238"/>
<path opacity="0.2" d="M128.168 167.223H94.8133V165.174C94.8133 164.491 95.0848 163.835 95.5682 163.352C96.0515 162.869 96.707 162.597 97.3906 162.597H125.591C126.275 162.597 126.93 162.869 127.414 163.352C127.897 163.835 128.168 164.491 128.168 165.174V167.223Z" fill="white"/>
<path d="M127.009 197.215L114.151 196.096V179.209H109.634V196.09L96.7303 197.238C96.1817 197.292 95.6729 197.548 95.3026 197.957C94.9324 198.365 94.7272 198.897 94.7271 199.448V201.17H129.018V199.448C129.023 198.892 128.82 198.354 128.448 197.94C128.076 197.527 127.562 197.268 127.009 197.215Z" fill="#263238"/>
<path d="M98.8829 203.265C98.8829 203.85 98.7095 204.421 98.3847 204.907C98.0599 205.393 97.5982 205.772 97.0581 205.996C96.5179 206.22 95.9235 206.278 95.3501 206.164C94.7767 206.05 94.2499 205.769 93.8365 205.355C93.4231 204.942 93.1416 204.415 93.0275 203.842C92.9134 203.268 92.972 202.674 93.1957 202.134C93.4195 201.593 93.7984 201.132 94.2845 200.807C94.7706 200.482 95.3421 200.309 95.9268 200.309C96.7108 200.309 97.4627 200.62 98.0171 201.175C98.5715 201.729 98.8829 202.481 98.8829 203.265Z" fill="#263238"/>
<path d="M127.807 206.221C129.439 206.221 130.763 204.897 130.763 203.265C130.763 201.632 129.439 200.309 127.807 200.309C126.174 200.309 124.851 201.632 124.851 203.265C124.851 204.897 126.174 206.221 127.807 206.221Z" fill="#263238"/>
<path d="M108.854 166.121H114.932V180.523C114.932 181.088 114.708 181.629 114.308 182.029C113.909 182.428 113.367 182.653 112.803 182.653H110.989C110.424 182.653 109.882 182.428 109.483 182.029C109.084 181.629 108.859 181.088 108.859 180.523V166.121H108.854Z" fill="#263238"/>
<path opacity="0.2" d="M108.854 166.121H114.932V180.523C114.932 181.088 114.708 181.629 114.308 182.029C113.909 182.428 113.367 182.653 112.803 182.653H110.989C110.424 182.653 109.882 182.428 109.483 182.029C109.084 181.629 108.859 181.088 108.859 180.523V166.121H108.854Z" fill="white"/>
<path d="M94.578 167.757H128.398C128.972 167.757 129.437 167.292 129.437 166.718V166.483C129.437 165.909 128.972 165.444 128.398 165.444H94.578C94.0042 165.444 93.5391 165.909 93.5391 166.483V166.718C93.5391 167.292 94.0042 167.757 94.578 167.757Z" fill="#263238"/>
<path opacity="0.2" d="M98.8829 203.265C98.8829 203.85 98.7095 204.421 98.3847 204.907C98.0599 205.393 97.5982 205.772 97.0581 205.996C96.5179 206.22 95.9235 206.278 95.3501 206.164C94.7767 206.05 94.2499 205.769 93.8365 205.355C93.4231 204.942 93.1416 204.415 93.0275 203.842C92.9134 203.268 92.972 202.674 93.1957 202.134C93.4195 201.593 93.7984 201.132 94.2845 200.807C94.7706 200.482 95.3421 200.309 95.9268 200.309C96.7108 200.309 97.4627 200.62 98.0171 201.175C98.5715 201.729 98.8829 202.481 98.8829 203.265Z" fill="white"/>
<path opacity="0.2" d="M127.807 206.221C129.439 206.221 130.763 204.897 130.763 203.265C130.763 201.632 129.439 200.309 127.807 200.309C126.174 200.309 124.851 201.632 124.851 203.265C124.851 204.897 126.174 206.221 127.807 206.221Z" fill="white"/>
<path d="M131.004 138.828H120.7C117.681 138.828 115.5 136.113 115.833 132.772L116.269 128.306C116.602 124.96 119.311 122.245 122.331 122.245H132.634C135.653 122.245 137.834 124.96 137.507 128.306L137.065 132.772C136.738 136.113 134.023 138.828 131.004 138.828Z" fill="#263238"/>
<path opacity="0.2" d="M131.004 138.828H120.7C117.681 138.828 115.5 136.113 115.833 132.772L116.269 128.306C116.602 124.96 119.311 122.245 122.331 122.245H132.634C135.653 122.245 137.834 124.96 137.507 128.306L137.065 132.772C136.738 136.113 134.023 138.828 131.004 138.828Z" fill="white"/>
<path d="M130.057 136.652H123.984C122.199 136.652 120.907 135.051 121.114 133.07L121.378 130.436C121.567 128.455 123.175 126.854 124.96 126.854H131.044C132.829 126.854 134.121 128.455 133.914 130.436L133.65 133.07C133.444 135.051 131.842 136.652 130.057 136.652Z" fill="#263238"/>
<path d="M125.224 132.715C125.224 132.715 123.835 160.64 117.819 165.433H124.254C124.254 165.433 129.994 155.921 130.413 132.715H125.224Z" fill="#263238"/>
<path d="M130.401 121.08L131.509 120.506C131.717 120.399 131.947 120.344 132.181 120.344C132.414 120.344 132.644 120.399 132.852 120.506L134.838 121.481C135.229 121.674 135.568 121.957 135.827 122.308C136.086 122.658 136.256 123.066 136.325 123.496L136.417 124.041C134.643 125.155 131.911 125.052 131.911 125.052L131.124 125.115C130.964 125.131 130.802 125.116 130.648 125.069C130.493 125.023 130.35 124.946 130.225 124.844C130.101 124.741 129.998 124.615 129.923 124.472C129.847 124.329 129.801 124.173 129.787 124.013L129.649 122.463C129.623 122.184 129.681 121.903 129.815 121.657C129.948 121.41 130.153 121.209 130.401 121.08Z" fill="#B97964"/>
<path opacity="0.2" d="M130.401 121.08L131.509 120.506C131.717 120.399 131.947 120.344 132.181 120.344C132.414 120.344 132.644 120.399 132.852 120.506L134.838 121.481C135.229 121.674 135.568 121.957 135.827 122.308C136.086 122.658 136.256 123.066 136.325 123.496L136.417 124.041C134.643 125.155 131.911 125.052 131.911 125.052L131.124 125.115C130.964 125.131 130.802 125.116 130.648 125.069C130.493 125.023 130.35 124.946 130.225 124.844C130.101 124.741 129.998 124.615 129.923 124.472C129.847 124.329 129.801 124.173 129.787 124.013L129.649 122.463C129.623 122.184 129.681 121.903 129.815 121.657C129.948 121.41 130.153 121.209 130.401 121.08Z" fill="black"/>
<path d="M122.262 122.446L118.244 127.526H114.421L114.921 120.437C117.814 120.993 122.262 122.446 122.262 122.446Z" fill="#407BFF"/>
<path opacity="0.2" d="M117.905 127.526H114.599L116.654 122.446C116.654 122.446 117.831 124.231 117.905 127.526Z" fill="black"/>
<path d="M111.838 146.094L95.0142 144.533C95.5422 142.742 96.0072 140.986 96.3975 139.293C96.8911 137.22 97.2815 135.234 97.5914 133.38C97.9014 131.526 98.1654 129.804 98.3491 128.243L98.4008 127.801C98.4008 127.554 98.4582 127.313 98.4811 127.084C98.6476 125.574 98.7509 124.26 98.8198 123.175C98.9633 121.057 98.9633 119.834 98.9633 119.834C104.728 118.73 110.676 119.083 116.269 120.861C118.772 127.91 111.838 146.094 111.838 146.094Z" fill="#407BFF"/>
<path d="M111.781 121.986C111.525 122.516 111.134 122.969 110.648 123.299C110.161 123.629 109.597 123.825 109.01 123.867C108.424 123.909 107.837 123.795 107.308 123.538C106.78 123.28 106.329 122.887 106 122.4L105.271 121.315L104.376 119.966C105.88 119.076 106.471 116.229 106.672 113.784C106.735 113.015 106.758 112.292 106.758 111.677L110.535 116.843C110.271 117.391 110.078 117.969 109.961 118.565C109.913 118.811 109.894 119.062 109.904 119.312C109.909 120.316 110.409 121.246 111.781 121.986Z" fill="#B97964"/>
<path opacity="0.2" d="M110.524 116.872C110.259 117.419 110.066 117.998 109.95 118.594C108.956 119.868 107.412 121.217 105.283 121.303L104.376 119.966C105.88 119.076 106.471 116.229 106.672 113.784C106.735 113.015 106.758 112.292 106.758 111.677L110.524 116.872Z" fill="black"/>
<path d="M101.449 108.245C101.449 108.245 99.5835 107.545 100.135 106.253C100.686 104.962 101.351 104.973 101.351 104.973C101.069 104.445 100.916 103.858 100.904 103.259C100.892 102.661 101.022 102.068 101.283 101.529C102.207 99.8071 104.25 100.507 104.25 100.507C104.258 99.9665 104.45 99.4444 104.794 99.0271C105.139 98.6098 105.615 98.3222 106.144 98.2114C106.685 98.122 107.24 98.2115 107.725 98.4664C108.209 98.7213 108.598 99.1276 108.831 99.6234C108.831 99.6234 110.116 97.9531 111.999 98.4123C113.882 98.8715 114.261 101.495 114.261 101.495C114.775 101.327 115.334 101.364 115.822 101.598C116.309 101.832 116.688 102.246 116.878 102.752C117.134 103.28 117.241 103.868 117.187 104.453C117.134 105.038 116.922 105.596 116.574 106.069C116.574 106.069 117.774 105.495 118.17 107.43C118.566 109.364 116.545 111.063 116.545 111.063C116.545 111.063 117.636 111.195 117.073 112.625C116.511 114.054 114.737 114.077 114.737 114.077C114.737 114.077 115.426 114.427 114.123 115.604C112.82 116.78 108.624 115.098 108.624 115.098L101.449 108.245Z" fill="#263238"/>
<path d="M106.58 105.18C102.562 105.386 101.414 107.602 101.317 111.752C101.219 116.918 102.557 120.54 107.51 119.174C114.226 117.32 113.239 104.83 106.58 105.18Z" fill="#B97964"/>
<path d="M103.894 111.39C103.605 112.006 103.242 112.584 102.815 113.112C102.942 113.272 103.11 113.394 103.301 113.465C103.492 113.536 103.7 113.553 103.9 113.514L103.894 111.39Z" fill="#A24E3F"/>
<path d="M106.334 110.931C106.334 111.264 106.529 111.505 106.747 111.505C106.965 111.505 107.137 111.23 107.131 110.897C107.126 110.564 106.936 110.323 106.712 110.323C106.489 110.323 106.322 110.604 106.334 110.931Z" fill="#263238"/>
<path d="M106.804 110.34L106.081 110.076C106.081 110.076 106.454 110.673 106.804 110.34Z" fill="#263238"/>
<path d="M102.229 110.983C102.229 111.316 102.424 111.557 102.648 111.557C102.872 111.557 103.038 111.281 103.027 110.948C103.016 110.616 102.832 110.374 102.614 110.374C102.396 110.374 102.223 110.656 102.229 110.983Z" fill="#263238"/>
<path d="M102.706 110.386L101.977 110.128C101.977 110.128 102.356 110.719 102.706 110.386Z" fill="#263238"/>
<path d="M107.998 108.848C107.974 108.848 107.95 108.843 107.928 108.833C107.906 108.823 107.887 108.809 107.871 108.79C107.655 108.597 107.397 108.455 107.118 108.376C106.838 108.296 106.545 108.281 106.259 108.331C106.236 108.335 106.213 108.335 106.191 108.33C106.169 108.326 106.148 108.317 106.13 108.304C106.111 108.291 106.095 108.275 106.083 108.256C106.07 108.237 106.062 108.216 106.058 108.193C106.051 108.149 106.061 108.104 106.087 108.068C106.113 108.032 106.152 108.006 106.195 107.998C106.539 107.935 106.893 107.954 107.228 108.054C107.564 108.154 107.87 108.331 108.124 108.572C108.156 108.604 108.173 108.648 108.173 108.693C108.173 108.738 108.156 108.781 108.124 108.813C108.088 108.84 108.043 108.853 107.998 108.848Z" fill="#263238"/>
<path d="M101.724 108.727C101.698 108.727 101.673 108.721 101.649 108.71C101.625 108.699 101.604 108.684 101.587 108.664C101.559 108.627 101.548 108.581 101.554 108.536C101.56 108.491 101.585 108.45 101.621 108.423C101.857 108.225 102.134 108.083 102.432 108.006C102.73 107.93 103.041 107.921 103.343 107.981C103.365 107.987 103.386 107.998 103.403 108.013C103.421 108.027 103.436 108.045 103.446 108.066C103.457 108.086 103.464 108.108 103.466 108.131C103.468 108.154 103.465 108.177 103.458 108.199C103.443 108.241 103.413 108.276 103.374 108.296C103.334 108.317 103.288 108.321 103.246 108.308C102.993 108.263 102.734 108.274 102.487 108.342C102.24 108.409 102.01 108.531 101.816 108.698C101.789 108.716 101.757 108.726 101.724 108.727Z" fill="#263238"/>
<path d="M111.316 111.706C111.316 111.706 109.267 108.509 109.422 105.966C109.422 105.966 101.305 103.136 101.334 111.218C101.334 111.218 100.186 104.101 107.074 103.578C113.962 103.056 114.456 113.141 111.052 116.333C111.046 116.321 112.584 113.704 111.316 111.706Z" fill="#263238"/>
<path d="M110.708 112.59C110.713 112.358 110.764 112.13 110.857 111.917C110.951 111.705 111.086 111.514 111.254 111.354C111.422 111.194 111.62 111.068 111.836 110.985C112.053 110.902 112.284 110.862 112.516 110.868C113.767 110.943 114.49 113.463 111.431 114.237C110.995 114.358 110.719 113.939 110.708 112.59Z" fill="#B97964"/>
<path d="M104.864 115.85C104.749 115.859 104.634 115.859 104.52 115.85C104.497 115.846 104.476 115.838 104.457 115.825C104.438 115.813 104.422 115.797 104.409 115.779C104.396 115.76 104.387 115.739 104.383 115.717C104.378 115.695 104.378 115.672 104.382 115.65C104.385 115.628 104.393 115.606 104.405 115.588C104.417 115.569 104.432 115.552 104.45 115.539C104.468 115.527 104.489 115.517 104.511 115.513C104.533 115.508 104.555 115.508 104.577 115.512C105.009 115.588 105.455 115.516 105.841 115.308C106.228 115.099 106.532 114.767 106.707 114.364C106.715 114.343 106.727 114.323 106.743 114.307C106.759 114.291 106.777 114.278 106.798 114.269C106.819 114.26 106.841 114.255 106.864 114.254C106.887 114.254 106.909 114.258 106.93 114.266C106.951 114.274 106.971 114.287 106.987 114.303C107.003 114.318 107.016 114.337 107.026 114.358C107.035 114.379 107.039 114.401 107.04 114.424C107.04 114.446 107.036 114.469 107.028 114.49C106.852 114.913 106.549 115.27 106.162 115.514C105.774 115.757 105.321 115.875 104.864 115.85Z" fill="#263238"/>
<path d="M112.791 110.242C111.833 105.266 104.474 101.087 101.713 106.873C102.176 105.423 103.071 104.149 104.279 103.222C104.279 103.222 111.741 101.093 113.055 109.594L112.791 110.242Z" fill="#407BFF"/>
<path d="M108.87 206.066C106 206.066 105.616 206.02 103.997 205.963C102.614 205.917 102.275 206.089 101.173 206.066C100.243 206.066 100.278 205.153 100.565 204.132C100.708 203.615 100.926 202.53 101.139 201.704L105.352 201.394C105.926 202.542 107.28 204.143 108.899 204.361C110.518 204.579 110.013 206.066 108.87 206.066Z" fill="#263238"/>
<path d="M95.2842 144.177C95.2842 144.177 89.5442 152.713 92.6552 159.727C95.7663 166.741 111.5 163.573 111.5 163.573L101.133 201.721L106.093 202.542C106.093 202.542 123.674 164.732 124.122 158.286C124.57 151.84 105.587 147.702 105.587 147.702L95.2842 144.177Z" fill="#407BFF"/>
<path opacity="0.3" d="M95.2842 144.177C95.2842 144.177 89.5442 152.713 92.6552 159.727C95.7663 166.741 111.5 163.573 111.5 163.573L101.133 201.721L106.093 202.542C106.093 202.542 123.674 164.732 124.122 158.286C124.57 151.84 105.587 147.702 105.587 147.702L95.2842 144.177Z" fill="white"/>
<path opacity="0.2" d="M112.791 124.558C112.791 124.558 104.755 130.218 98.4009 127.784C98.4009 127.537 98.4583 127.296 98.4812 127.066C98.6477 125.557 98.751 124.242 98.8199 123.157C100.879 122.217 103.017 121.458 105.209 120.89C107.465 122.609 110.043 123.856 112.791 124.558Z" fill="black"/>
<path d="M101.598 119.845C105.134 121.567 108.785 123.709 112.636 124.495C114.852 124.351 117.332 123.45 119.559 122.842L126.234 120.821C126.52 120.731 126.829 120.751 127.102 120.877C127.374 121.002 127.589 121.225 127.706 121.501C127.823 121.777 127.833 122.087 127.734 122.37C127.635 122.653 127.434 122.888 127.17 123.031C125.086 124.179 122.985 125.235 120.81 126.2C118.124 127.302 115.644 128.587 112.613 128.863C111.526 128.85 110.444 128.692 109.399 128.392C105.87 127.357 102.473 125.918 99.2735 124.105C98.7645 123.772 98.399 123.26 98.2494 122.67C98.0998 122.08 98.1769 121.456 98.4656 120.921C98.7542 120.385 99.2333 119.978 99.8081 119.778C100.383 119.579 101.011 119.603 101.569 119.845H101.598Z" fill="#B97864"/>
<path d="M99.698 119.208C96.6041 119.943 96.5008 125.253 99.3421 127.744L106.23 121.929C106.23 121.929 103.366 118.336 99.698 119.208Z" fill="#407BFF"/>
<path d="M126.412 120.85L130.229 120.758L128.507 124.621C128.507 124.621 125.063 124.501 125.229 122.744L126.412 120.85Z" fill="#B97964"/>
<path d="M133.507 122.647L130.889 125.465L128.496 124.621L130.229 120.758L133.507 122.647Z" fill="#B97964"/>
<path d="M184.759 167.327C187.428 172.849 190 178.37 191.739 184.283C192.537 188.301 192.686 192.388 192.985 196.377C193.191 199.677 193.312 202.972 193.358 206.284L190.402 206.594C189.466 201.939 188.588 196.744 187.773 192.049C187.383 189.925 187.084 187.836 186.55 185.792C184.518 180.529 181.7 175.11 179.364 169.933L184.759 167.327Z" fill="#DC897C"/>
<path d="M189.167 174.553L184.489 176.792L181.585 178.198L179.823 173.962L177.98 169.525L179.536 161.438C184.311 163.527 189.167 174.553 189.167 174.553Z" fill="#407BFF"/>
<path opacity="0.2" d="M184.489 176.792L181.585 178.198L179.823 173.962C180.184 171.563 180.489 169.525 180.489 169.525C180.489 169.525 183.887 172.573 184.489 176.792Z" fill="black"/>
<path d="M170.478 146.772C170.53 147.116 170.754 147.346 170.978 147.346C171.201 147.346 171.339 147.007 171.288 146.663C171.236 146.318 171.006 146.089 170.782 146.089C170.559 146.089 170.392 146.433 170.478 146.772Z" fill="#263238"/>
<path d="M170.69 147.369C171.26 148.351 171.961 149.251 172.774 150.044C172.568 150.249 172.319 150.407 172.045 150.506C171.772 150.605 171.48 150.643 171.19 150.618L170.69 147.369Z" fill="#DE5753"/>
<path d="M168.899 145.067C168.848 145.065 168.799 145.045 168.762 145.01C168.724 144.971 168.704 144.92 168.704 144.866C168.704 144.813 168.724 144.761 168.762 144.723C168.986 144.492 169.263 144.32 169.569 144.22C169.875 144.12 170.201 144.095 170.518 144.149C170.544 144.154 170.569 144.165 170.591 144.18C170.613 144.195 170.632 144.214 170.646 144.237C170.66 144.259 170.67 144.284 170.675 144.31C170.68 144.337 170.679 144.364 170.673 144.39C170.668 144.416 170.657 144.441 170.642 144.463C170.627 144.485 170.607 144.503 170.585 144.518C170.563 144.532 170.537 144.542 170.511 144.547C170.485 144.551 170.458 144.551 170.432 144.545C170.18 144.509 169.922 144.534 169.682 144.618C169.441 144.702 169.224 144.842 169.049 145.027C169.028 145.043 169.004 145.055 168.978 145.062C168.952 145.069 168.926 145.071 168.899 145.067Z" fill="#263238"/>
<path d="M171.546 151.961C171.436 153.346 170.845 154.65 169.875 155.646C169.235 156.304 168.448 156.801 167.579 157.098C166.748 157.387 165.857 157.464 164.989 157.323C164.12 157.181 163.3 156.826 162.603 156.289C160.146 154.463 159.825 151.978 158.918 147.816C158.694 146.852 158.721 145.846 158.996 144.895C159.271 143.943 159.785 143.078 160.488 142.381C161.191 141.684 162.061 141.178 163.015 140.912C163.969 140.646 164.975 140.628 165.938 140.86C170.323 141.899 171.861 148.046 171.546 151.961Z" fill="#E4897B"/>
<path d="M160.496 154.607C162.218 155.692 168.727 152.644 167.654 147.518C167.654 147.518 170.22 144.711 170.093 141.48C169.967 138.248 167.797 136.888 165.432 137.496C163.332 138.007 163.337 139.149 163.337 139.149C163.337 139.149 153.488 139.844 155.393 143.925C151.203 148.092 158.378 153.258 160.496 154.607Z" fill="#263238"/>
<path d="M165.886 148.316C166.119 149.349 166.686 150.278 167.499 150.956C168.573 151.84 169.445 151.06 169.428 149.808C169.428 148.66 168.854 146.841 167.608 146.445C166.363 146.049 165.645 147.07 165.886 148.316Z" fill="#E4897B"/>
<path opacity="0.2" d="M171.247 153.407C170.961 154.246 170.492 155.01 169.875 155.646C169.235 156.304 168.448 156.801 167.579 157.098C166.996 156.803 166.435 156.463 165.903 156.082L166.776 153.941C166.776 153.941 169.451 155.25 171.247 153.407Z" fill="black"/>
<path d="M161.897 159.859L161.162 154.825C161.162 154.825 164.44 152.529 167.872 154.073L173.038 160.301L161.897 159.859Z" fill="#E4897B"/>
<path d="M173.635 159.681L172.435 157.884C172.435 157.884 163.734 154.664 159.939 158.791C159.939 158.791 168.429 163.28 173.635 159.681Z" fill="#407BFF"/>
<path opacity="0.2" d="M173.635 159.681L172.435 157.884C172.435 157.884 163.734 154.664 159.939 158.791C159.939 158.791 168.429 163.28 173.635 159.681Z" fill="black"/>
<path d="M140.222 208.488L136.945 206.376L138.202 204.499L141.617 199.402L144.9 201.514L141.124 207.145L140.222 208.488Z" fill="#E4897B"/>
<path d="M137.186 206.106L141.778 206.06C141.853 206.062 141.924 206.088 141.983 206.135C142.041 206.182 142.082 206.246 142.099 206.319L142.869 209.654C142.897 209.797 142.869 209.946 142.791 210.07C142.713 210.193 142.591 210.283 142.45 210.319H142.329C140.848 210.319 139.775 210.228 137.921 210.245C136.773 210.245 133.329 210.411 131.756 210.423C130.183 210.434 129.954 208.884 130.608 208.735C133.478 208.075 135.671 207.18 136.589 206.336C136.753 206.189 136.966 206.107 137.186 206.106Z" fill="#263238"/>
<path d="M138.07 203.23L144.074 204.849L176.666 180.121L159.945 176.459C158.751 176.204 157.507 176.318 156.379 176.786C155.251 177.255 154.293 178.056 153.631 179.082L138.07 203.23Z" fill="#263238"/>
<path opacity="0.2" d="M138.07 203.23L144.074 204.849L176.666 180.121L159.945 176.459C158.751 176.204 157.507 176.318 156.379 176.786C155.251 177.255 154.293 178.056 153.631 179.082L138.07 203.23Z" fill="black"/>
<path d="M120.253 208.609L116.866 206.674L118.026 204.734L121.165 199.465L124.552 201.399L121.079 207.22L120.253 208.609Z" fill="#E4897B"/>
<path d="M116.998 206.026H121.59C121.665 206.027 121.738 206.052 121.796 206.099C121.854 206.146 121.895 206.211 121.912 206.284L122.652 209.631C122.678 209.775 122.648 209.923 122.568 210.046C122.488 210.169 122.364 210.256 122.222 210.291H122.101C120.626 210.291 119.547 210.176 117.693 210.176C116.545 210.176 113.101 210.296 111.528 210.296C109.955 210.296 109.743 208.735 110.38 208.574C113.25 207.943 115.46 207.071 116.39 206.238C116.561 206.097 116.777 206.021 116.998 206.026Z" fill="#263238"/>
<path d="M184.53 193.105L161.742 193.162C161.168 191.142 160.445 184.111 158.217 175.414C157.615 173.055 156.897 170.576 156.053 168.033C155.353 165.733 154.501 163.482 153.505 161.294C155.567 160.048 157.832 159.175 160.198 158.717C170.283 156.995 179.536 161.438 179.536 161.438C179.536 161.438 183.537 172.573 184.53 193.105Z" fill="#407BFF"/>
<path opacity="0.2" d="M158.217 175.414C157.615 173.055 156.897 170.576 156.053 168.033L157.643 167.39C157.643 167.39 160.146 173.032 158.217 175.414Z" fill="black"/>
<path d="M148.247 179.318L150.893 180.569L151.903 176.115C151.903 176.115 149.791 175.374 148.207 176.453L148.247 179.318Z" fill="#E4897B"/>
<path d="M154.687 182.079L154.808 178.02L151.903 176.115L150.893 180.569L154.687 182.079Z" fill="#E4897B"/>
<path d="M156.495 168.268C152.093 170.65 147.065 172.86 143.236 175.977C143.15 176.052 143.179 176.086 143.276 175.753C143.294 175.541 143.267 175.328 143.196 175.127C143.132 174.909 142.992 174.721 142.8 174.599C142.725 174.571 142.771 174.64 142.874 174.708C143.018 174.798 143.17 174.873 143.328 174.932C145.096 175.604 147.547 175.828 149.527 176.08L149.825 179.036C149.2 179.214 148.614 179.335 148 179.45C145.704 179.846 143.322 180.127 140.906 179.329C139.867 179.017 138.991 178.313 138.463 177.365C137.934 176.418 137.796 175.303 138.076 174.255C139.258 170.059 149.958 164.824 153.884 162.878L156.495 168.274V168.268Z" fill="#DC897C"/>
<path d="M160.669 188.312L159.647 190.93C159.647 190.93 147.438 175.845 140.705 174.984C133.972 174.123 118.319 202.788 118.319 202.788L124.254 204.585L140.957 189.431C147.845 201.451 156.082 210.268 165.875 210.268H175.438C186.131 210.268 186.252 198.34 184.139 188.226L160.669 188.312Z" fill="#263238"/>
<path d="M153.505 161.294C149.676 162.695 145.176 166.942 145.176 166.942C145.176 166.942 148.965 173.509 149.344 173.256C149.722 173.004 157.494 170.776 157.494 170.776C157.494 170.776 159.079 168.722 157.862 165.243C157.545 164.261 156.976 163.379 156.211 162.686C155.447 161.993 154.514 161.513 153.505 161.294Z" fill="#407BFF"/>
<path d="M191.951 204.304L196.113 204.51L193.914 208.574C193.914 208.574 190.212 208.167 190.505 206.278L191.951 204.304Z" fill="#E4897B"/>
<path d="M199.523 206.829L196.452 209.682L193.915 208.574L196.113 204.51L199.523 206.829Z" fill="#E4897B"/>
<path d="M62.9796 163.142C65.7692 165.955 68.5187 169.106 71.8594 171.236C71.8594 171.236 72.066 171.345 72.0832 171.362C71.9933 171.329 71.8978 171.313 71.8019 171.316C71.7158 171.316 71.8536 171.316 72.0029 171.316C75.8142 170.237 79.3558 167.752 82.8629 165.84C83.1344 165.677 83.4565 165.619 83.768 165.677C84.0794 165.736 84.3585 165.907 84.552 166.158C84.7456 166.409 84.8401 166.722 84.8176 167.038C84.7951 167.354 84.6571 167.651 84.4299 167.872C81.6977 170.403 74.3333 177.171 70.4645 175.753C68.0997 174.886 66.1251 173.256 64.2653 171.689C62.4487 170.115 60.7365 168.423 59.1395 166.626C56.9526 164.026 60.6032 160.714 62.9796 163.148V163.142Z" fill="#E9B376"/>
<path d="M67.7782 167.114C67.2903 170.765 64.3342 174.347 64.3342 174.347L63.7143 173.922L60.6951 171.919C60.6951 171.919 60.6377 171.747 60.5516 171.442C60.4655 171.138 60.3564 170.782 60.2244 170.294C59.5298 167.861 58.2785 163.309 58.1235 161.42C61.8718 161.334 63.5593 163.119 67.7782 167.114Z" fill="#407BFF"/>
<path opacity="0.7" d="M67.7782 167.114C67.2903 170.765 64.3342 174.347 64.3342 174.347L63.7143 173.922L60.6951 171.919C60.6951 171.919 60.6377 171.747 60.5516 171.442C60.4655 171.138 60.3564 170.782 60.2244 170.294C59.5298 167.861 58.2785 163.309 58.1235 161.42C61.8718 161.334 63.5593 163.119 67.7782 167.114Z" fill="white"/>
<path opacity="0.2" d="M63.714 173.922L60.6948 171.919C60.6948 171.919 60.6374 171.747 60.5513 171.442C60.6632 170.518 60.8319 169.602 61.0564 168.699C61.8518 169.324 62.5016 170.116 62.9605 171.018C63.4194 171.92 63.6766 172.911 63.714 173.922Z" fill="black"/>
<path d="M60.0403 185.115L62.6176 189.627C69.5056 188.019 91.6505 184.644 94.3655 192.238C97.7464 201.669 73.3342 209.194 59.828 209.654C46.3217 210.113 34.5375 206.898 43.0786 187.204L60.0403 185.115Z" fill="#263238"/>
<path opacity="0.2" d="M60.0403 185.115L62.6176 189.627C69.5056 188.019 91.6505 184.644 94.3655 192.238C97.7464 201.669 73.3342 209.194 59.828 209.654C46.3217 210.113 34.5375 206.898 43.0786 187.204L60.0403 185.115Z" fill="black"/>
<path d="M90.4566 205.572C90.4411 205.582 90.4233 205.587 90.405 205.587C90.3867 205.587 90.3688 205.582 90.3533 205.572C90.3452 205.559 90.3408 205.545 90.3408 205.529C90.3408 205.514 90.3452 205.499 90.3533 205.486C90.3992 205.337 90.847 204.04 91.3004 203.902C91.348 203.89 91.3978 203.891 91.445 203.904C91.4923 203.917 91.5353 203.942 91.5702 203.977C91.6325 204.029 91.68 204.097 91.7082 204.174C91.7364 204.25 91.7442 204.332 91.7309 204.413C91.6569 204.657 91.5083 204.872 91.3062 205.027C91.0425 205.238 90.7578 205.42 90.4566 205.572ZM90.5714 205.326C90.9933 205.142 91.334 204.812 91.53 204.396C91.5428 204.342 91.5393 204.285 91.5199 204.233C91.5005 204.181 91.466 204.135 91.421 204.103C91.4082 204.087 91.391 204.075 91.3716 204.069C91.3522 204.063 91.3315 204.063 91.3119 204.068C91.2737 204.083 91.2385 204.104 91.2086 204.132C90.9254 204.488 90.7095 204.892 90.5714 205.326Z" fill="#263238"/>
<path d="M90.4278 205.59C90.4165 205.599 90.4023 205.604 90.3876 205.604C90.3729 205.604 90.3587 205.599 90.3474 205.59C90.3015 205.555 89.6816 204.769 89.7734 204.235C89.7844 204.169 89.809 204.106 89.8455 204.049C89.882 203.993 89.9298 203.945 89.9858 203.908C90.0344 203.864 90.0958 203.837 90.1609 203.831C90.2261 203.824 90.2915 203.839 90.3474 203.873C90.6746 204.109 90.6344 205.159 90.4737 205.561V205.601L90.4278 205.59ZM90.0776 204.051C90.0203 204.097 89.9815 204.163 89.9686 204.235C89.9858 204.633 90.133 205.014 90.3876 205.32C90.4852 204.872 90.4565 204.132 90.2613 204C90.2613 204 90.2039 203.954 90.1063 204V204.028L90.0776 204.051Z" fill="#263238"/>
<path d="M66.7105 207.788C66.7194 207.774 66.7322 207.762 66.7475 207.755C66.7629 207.748 66.7799 207.745 66.7966 207.748C66.8121 207.749 66.8267 207.755 66.8382 207.766C66.8496 207.776 66.8572 207.79 66.8598 207.805C66.8942 207.96 67.1296 209.315 66.8024 209.653C66.7655 209.686 66.7207 209.709 66.6723 209.719C66.6239 209.729 66.5738 209.726 66.5269 209.711C66.446 209.698 66.3705 209.662 66.3087 209.608C66.2468 209.555 66.2012 209.485 66.1767 209.407C66.12 209.16 66.1462 208.902 66.2513 208.672C66.3732 208.362 66.5272 208.066 66.7105 207.788ZM66.7105 208.064C66.4311 208.428 66.2907 208.879 66.3145 209.338C66.3302 209.393 66.3622 209.442 66.4062 209.479C66.4502 209.516 66.5042 209.539 66.5613 209.544C66.5774 209.555 66.5964 209.561 66.6158 209.561C66.6353 209.561 66.6542 209.555 66.6704 209.544C66.6962 209.514 66.7157 209.479 66.7278 209.441C66.8138 208.986 66.8138 208.519 66.7278 208.064H66.7105Z" fill="#263238"/>
<path d="M75.5496 200.952L69.9933 202.932L67.3242 203.885L68.0073 206.806L70.5903 206.255L76.9043 204.907L75.5496 200.952Z" fill="#EBB376"/>
<path d="M68.7369 206.944L68.2662 203.5C68.2599 203.455 68.2446 203.411 68.2212 203.372C68.1977 203.332 68.1667 203.298 68.1298 203.271C68.0929 203.243 68.0509 203.224 68.0063 203.213C67.9617 203.202 67.9154 203.2 67.8701 203.207L66.1481 203.494C66.1481 203.494 63.8522 203.707 63.3757 204.304C62.0326 206.026 62.8706 213.683 63.766 213.953C64.0932 214.05 64.4376 213.603 64.5811 213.293C65.0346 212.305 65.8324 209.728 66.2228 208.913C66.6705 207.954 67.9448 207.49 68.4728 207.323C68.556 207.304 68.629 207.254 68.6778 207.184C68.7265 207.114 68.7476 207.029 68.7369 206.944Z" fill="#407BFF"/>
<path d="M66.7217 207.788C66.7343 207.779 66.7493 207.774 66.7647 207.774C66.7802 207.774 66.7952 207.779 66.8078 207.788C66.8595 207.788 67.7893 208.19 67.9558 208.701C67.976 208.765 67.9834 208.832 67.9775 208.899C67.9716 208.966 67.9525 209.031 67.9214 209.091C67.903 209.155 67.8633 209.21 67.8089 209.247C67.7545 209.285 67.6888 209.303 67.6229 209.298C67.2268 209.252 66.7504 208.31 66.6987 207.886V207.788C66.7063 207.786 66.7141 207.786 66.7217 207.788ZM67.7779 208.965C67.8007 208.894 67.8007 208.818 67.7779 208.747C67.6688 208.419 67.1522 208.132 66.8882 208C67.0144 208.442 67.399 209.074 67.6344 209.097C67.6344 209.097 67.7032 209.097 67.7549 208.999V208.965H67.7779Z" fill="#263238"/>
<path opacity="0.2" d="M75.55 200.952L69.9937 202.932L70.5906 206.255L76.9046 204.907L75.55 200.952Z" fill="black"/>
<path d="M71.5778 206.755L73.1735 206.87L72.1058 201.371L70.292 202.369L71.5778 206.755Z" fill="#407BFF"/>
<path opacity="0.6" d="M71.5778 206.755L73.1735 206.87L72.1058 201.371L70.292 202.369L71.5778 206.755Z" fill="white"/>
<path opacity="0.2" d="M48.394 185.402L56.717 194.632C56.717 194.632 65.901 194.425 77.094 199.89C77.094 199.89 89.0849 194.936 90.187 190.821C91.6335 185.431 62.635 189.644 62.635 189.644L48.394 185.402Z" fill="black"/>
<path d="M59.9544 189.093L42.9813 187.124C43.3063 185.371 43.4982 183.596 43.5553 181.815C43.6232 179.276 43.5235 176.735 43.2568 174.209C43.0214 171.792 42.6828 169.014 42.1088 165.754C41.9939 165.171 42.011 164.57 42.1587 163.994C42.3064 163.418 42.581 162.883 42.9624 162.427C43.3438 161.972 43.8224 161.607 44.3629 161.36C44.9035 161.114 45.4924 160.991 46.0866 161.001C46.7697 161.001 47.4872 161.036 48.2219 161.082C50.8211 161.198 53.4087 161.499 55.9651 161.983C56.7917 162.149 57.647 162.356 58.4678 162.557C61.4124 163.32 63.2377 167.028 62.9852 170.019C62.8858 172.343 62.6288 174.658 62.216 176.947C61.6937 180.322 61.0795 183.617 59.9544 189.093Z" fill="#407BFF"/>
<path opacity="0.7" d="M59.9544 189.093L42.9813 187.124C43.3063 185.371 43.4982 183.596 43.5553 181.815C43.6232 179.276 43.5235 176.735 43.2568 174.209C43.0214 171.792 42.6828 169.014 42.1088 165.754C41.9939 165.171 42.011 164.57 42.1587 163.994C42.3064 163.418 42.581 162.883 42.9624 162.427C43.3438 161.972 43.8224 161.607 44.3629 161.36C44.9035 161.114 45.4924 160.991 46.0866 161.001C46.7697 161.001 47.4872 161.036 48.2219 161.082C50.8211 161.198 53.4087 161.499 55.9651 161.983C56.7917 162.149 57.647 162.356 58.4678 162.557C61.4124 163.32 63.2377 167.028 62.9852 170.019C62.8858 172.343 62.6288 174.658 62.216 176.947C61.6937 180.322 61.0795 183.617 59.9544 189.093Z" fill="white"/>
<path opacity="0.2" d="M43.567 181.82C43.635 179.281 43.5353 176.741 43.2686 174.215C45.3924 171.706 47.4014 169.623 47.4014 169.623C47.4014 169.623 50.7306 178.193 43.567 181.82Z" fill="black"/>
<path d="M46.2473 168.693C46.4425 172.326 46.408 177.98 47.0681 181.453L46.8959 181.028C46.7811 180.862 46.85 181.028 46.9705 181.12C47.1258 181.274 47.2907 181.418 47.4642 181.55C49.7602 183.272 52.5154 184.598 55.1041 185.97L58.3702 187.652C58.6533 187.794 58.8744 188.035 58.9914 188.33C59.1084 188.624 59.1131 188.951 59.0047 189.249C58.8963 189.546 58.6823 189.794 58.4033 189.944C58.1244 190.094 57.8001 190.136 57.492 190.063C56.2464 189.764 55.0525 189.409 53.8413 189.041C50.3973 187.893 46.8615 186.791 43.8996 184.547C43.3212 184.098 42.8717 183.504 42.5967 182.825C41.2707 178.118 41.1674 173.572 41.0698 168.773C41.1904 165.427 46.0349 165.364 46.2358 168.71L46.2473 168.693Z" fill="#E9B376"/>
<path d="M62.9508 187.445L61.9176 186.693C61.7262 186.555 61.5042 186.464 61.2705 186.429C61.0367 186.394 60.798 186.416 60.5744 186.493L58.4506 187.204C58.032 187.346 57.6532 187.586 57.3457 187.903C57.0382 188.22 56.8109 188.607 56.6827 189.03L56.522 189.563C58.1521 190.918 60.9131 191.188 60.9131 191.188L61.688 191.349C61.8467 191.387 62.0114 191.393 62.1726 191.368C62.3338 191.342 62.4883 191.284 62.6271 191.198C62.7659 191.112 62.8863 191 62.9813 190.867C63.0763 190.734 63.1439 190.584 63.1804 190.424L63.5248 188.886C63.5801 188.616 63.5553 188.336 63.4533 188.08C63.3513 187.824 63.1766 187.603 62.9508 187.445Z" fill="#EBB376"/>
<path d="M44.6974 161.237C41.3796 162.425 40.4268 165.318 40.3579 171.35C42.0799 172.917 47.3091 173.004 47.3091 173.004C47.3091 173.004 48.216 163.854 44.6974 161.237Z" fill="#407BFF"/>
<path d="M84.889 190.769V192.135C84.889 192.485 84.4757 192.629 84.1256 192.629H56.8262C56.4703 192.629 56.0513 192.485 56.0513 192.135V190.769H84.889Z" fill="#263238"/>
<path opacity="0.4" d="M84.889 190.769V192.135C84.889 192.485 84.4757 192.629 84.1256 192.629H56.8262C56.4703 192.629 56.0513 192.485 56.0513 192.135V190.769H84.889Z" fill="white"/>
<path opacity="0.2" d="M84.8887 190.769V192.135C84.8887 192.485 84.4754 192.629 84.1253 192.629H66.1017C65.7515 192.629 65.3325 192.485 65.3325 192.135V190.769H84.8887Z" fill="black"/>
<path d="M89.4639 176.568L86.2094 191.326C86.1492 191.562 86.0133 191.771 85.8225 191.923C85.6318 192.074 85.3967 192.159 85.1532 192.164H67.3592C67.2485 192.161 67.1399 192.132 67.0421 192.08C66.9442 192.028 66.8598 191.954 66.7953 191.864C66.7308 191.774 66.688 191.67 66.6703 191.561C66.6526 191.452 66.6605 191.34 66.6934 191.234L69.9422 176.591C70.0086 176.368 70.1498 176.174 70.3421 176.042C70.5344 175.911 70.7661 175.849 70.9984 175.868H88.7924C89.2688 175.868 89.5443 176.086 89.4639 176.568Z" fill="#263238"/>
<path opacity="0.4" d="M89.4635 176.568L86.2089 191.326C86.1487 191.562 86.0128 191.771 85.8221 191.923C85.6313 192.074 85.3962 192.159 85.1528 192.164H67.9787C67.8679 192.16 67.7593 192.132 67.6613 192.08C67.5634 192.028 67.4787 191.954 67.4138 191.864C67.3489 191.774 67.3055 191.671 67.287 191.561C67.2685 191.452 67.2754 191.34 67.3071 191.234L70.5617 176.591C70.6281 176.368 70.7692 176.174 70.9615 176.042C71.1538 175.911 71.3855 175.849 71.6178 175.868H88.7919C89.2683 175.868 89.5439 176.086 89.4635 176.568Z" fill="white"/>
<path opacity="0.2" d="M80.6989 184.065C80.6421 184.663 80.3752 185.222 79.9454 185.642C79.5156 186.063 78.9508 186.317 78.3513 186.361C77.3582 186.361 76.767 185.333 77.054 184.065C77.341 182.796 78.3226 181.815 79.2926 181.769C79.0114 183.031 79.6198 184.065 80.6071 184.065H80.6989Z" fill="black"/>
<path d="M83.5169 168.343L87.3397 168.44L85.6177 164.572C85.6177 164.572 82.2081 164.692 82.3402 166.449L83.5169 168.343Z" fill="#EBB376"/>
<path d="M90.6175 166.558L88 163.734L85.6064 164.572L87.3399 168.44L90.6175 166.558Z" fill="#EBB376"/>
<path d="M47.3837 161.041C46.9934 161.013 48.1873 165.806 53.9847 166.988C59.7821 168.171 59.3344 162.838 58.8809 161.501C58.8809 161.501 51.2582 161.294 47.3837 161.041Z" fill="#EBB376"/>
<path d="M48.974 142.3C48.974 142.3 52.2975 138.615 58.3761 140.515C64.4548 142.415 64.1965 153.264 61.1084 157.201C56.272 157.032 51.4339 157.483 46.7124 158.545C46.7124 158.545 43.785 150.675 45.2373 146.049C46.6895 141.422 48.974 142.3 48.974 142.3Z" fill="#263238"/>
<path d="M50.1963 153.12C50.5809 155.68 50.8794 160.318 49.0483 161.788C49.0483 161.788 51.4362 161.707 56.0684 165.369C57.7502 163.464 56.7572 162.677 56.7572 162.677C54.0192 161.696 54.1742 159.629 54.7309 157.741L50.1963 153.12Z" fill="#EBB376"/>
<path opacity="0.2" d="M52.0561 155.009L54.7596 157.741C54.6232 158.183 54.5253 158.636 54.4669 159.096C53.4165 158.82 52.0102 157.483 51.947 156.352C51.9024 155.901 51.9394 155.446 52.0561 155.009Z" fill="black"/>
<path d="M48.6526 147.897C48.9396 151.989 48.9798 153.723 51.0404 155.933C54.1458 159.216 59.0764 158.229 59.9661 154.211C60.7984 150.583 60.1842 144.499 56.2122 142.702C55.3743 142.287 54.4409 142.104 53.5084 142.17C52.5759 142.237 51.678 142.551 50.9075 143.08C50.137 143.61 49.5218 144.335 49.1254 145.182C48.729 146.029 48.5658 146.966 48.6526 147.897Z" fill="#EBB376"/>
<path d="M53.6919 149.154C53.6919 149.504 53.8814 149.785 54.1052 149.797C54.3291 149.808 54.4898 149.533 54.4841 149.188C54.4783 148.844 54.2889 148.557 54.0708 148.551C53.8527 148.545 53.6805 148.81 53.6919 149.154Z" fill="#263238"/>
<path d="M57.9741 149.2C57.9741 149.544 58.1693 149.831 58.3874 149.843C58.6055 149.854 58.772 149.579 58.7662 149.234C58.7605 148.89 58.5711 148.603 58.353 148.597C58.1348 148.591 57.9741 148.855 57.9741 149.2Z" fill="#263238"/>
<path d="M58.2383 148.609L59.0361 148.402C59.0361 148.402 58.6401 149.033 58.2383 148.609Z" fill="#263238"/>
<path d="M56.6768 149.906C56.9978 150.705 57.4182 151.461 57.9281 152.156C57.7561 152.273 57.56 152.35 57.3543 152.381C57.1486 152.411 56.9386 152.395 56.7399 152.334L56.6768 149.906Z" fill="#D58745"/>
<path d="M53.0034 146.973C53.0293 146.977 53.0557 146.975 53.0807 146.967C53.1056 146.959 53.1283 146.945 53.1469 146.927C53.3261 146.761 53.5439 146.643 53.7805 146.582C54.0171 146.522 54.2649 146.522 54.5016 146.582C54.5257 146.59 54.5511 146.593 54.5764 146.59C54.6016 146.588 54.626 146.58 54.6481 146.568C54.6702 146.555 54.6895 146.539 54.7048 146.518C54.7201 146.498 54.731 146.475 54.7369 146.45C54.7512 146.397 54.7442 146.34 54.7174 146.292C54.6906 146.244 54.6462 146.208 54.5934 146.192C54.2938 146.112 53.9788 146.109 53.6777 146.183C53.3766 146.257 53.0992 146.406 52.8714 146.617C52.8346 146.654 52.814 146.705 52.814 146.757C52.814 146.81 52.8346 146.861 52.8714 146.898C52.9044 146.939 52.9515 146.965 53.0034 146.973Z" fill="#263238"/>
<path d="M59.6386 147.007C59.6848 147.025 59.7359 147.025 59.7821 147.007C59.8044 146.993 59.8236 146.975 59.8386 146.953C59.8536 146.932 59.8642 146.907 59.8695 146.882C59.8749 146.856 59.875 146.829 59.8698 146.804C59.8647 146.778 59.8544 146.753 59.8395 146.732C59.6818 146.448 59.461 146.205 59.1942 146.021C58.9275 145.837 58.6219 145.717 58.3012 145.67C58.2757 145.668 58.25 145.672 58.226 145.681C58.202 145.69 58.1801 145.703 58.1617 145.721C58.1433 145.739 58.1289 145.761 58.1193 145.784C58.1097 145.808 58.1052 145.834 58.1061 145.859C58.107 145.913 58.1272 145.964 58.1631 146.005C58.1989 146.045 58.2479 146.07 58.3012 146.077C58.5549 146.116 58.7962 146.213 59.0063 146.36C59.2164 146.507 59.3896 146.701 59.5124 146.927C59.5271 146.948 59.5458 146.966 59.5675 146.98C59.5892 146.993 59.6133 147.003 59.6386 147.007Z" fill="#263238"/>
<path d="M53.9561 148.563L54.7539 148.362C54.7539 148.362 54.3751 148.987 53.9561 148.563Z" fill="#263238"/>
<path d="M49.502 150.354C49.502 150.354 52.659 147.874 51.9415 143.994C51.9415 143.994 57.5896 141.761 59.8167 147.438C59.8167 147.438 60.2874 142.57 54.9779 141.617C49.6684 140.664 43.3831 147.862 49.3986 153.321L49.502 150.354Z" fill="#263238"/>
<path d="M47.3495 151.203C47.5542 151.583 47.8321 151.918 48.167 152.19C48.502 152.462 48.8874 152.665 49.3011 152.787C50.3744 153.08 50.8566 152.024 50.5122 150.933C50.1965 149.952 49.2609 148.637 48.2162 148.804C47.1715 148.97 46.8156 150.233 47.3495 151.203Z" fill="#EBB376"/>
<path d="M60.4366 149.848C60.4108 149.848 60.3857 149.84 60.365 149.824C60.3443 149.809 60.3292 149.787 60.3218 149.762C58.2956 142.628 51.6085 144.097 51.5396 144.108C51.5249 144.112 51.5097 144.112 51.4948 144.11C51.4799 144.107 51.4657 144.102 51.4529 144.094C51.4401 144.086 51.429 144.075 51.4203 144.063C51.4115 144.051 51.4053 144.037 51.4019 144.022C51.3985 144.008 51.398 143.992 51.4005 143.978C51.403 143.963 51.4084 143.948 51.4164 143.936C51.4244 143.923 51.4348 143.912 51.4471 143.903C51.4594 143.894 51.4733 143.888 51.488 143.885C51.5568 143.885 58.4621 142.352 60.5457 149.699C60.55 149.714 60.5514 149.729 60.5497 149.745C60.548 149.76 60.5433 149.775 60.5358 149.788C60.5283 149.801 60.5182 149.813 60.5061 149.822C60.494 149.832 60.4801 149.839 60.4653 149.843L60.4366 149.848Z" fill="#263238"/>
<path d="M56.9412 153.522C56.7408 153.991 56.5758 154.475 56.4475 154.969H56.1778C54.9666 154.837 54.4558 154.395 54.2377 153.907C54.1399 153.675 54.0986 153.423 54.1171 153.172C54.1259 153.029 54.1529 152.889 54.1975 152.753C54.9116 153.166 55.7065 153.421 56.5279 153.499C56.7805 153.511 56.9412 153.522 56.9412 153.522Z" fill="#263238"/>
<path d="M56.5275 153.476L56.3725 153.895C55.2245 153.775 54.4381 153.534 54.1167 153.149C54.1255 153.006 54.1525 152.866 54.1971 152.73C54.9112 153.143 55.7061 153.398 56.5275 153.476Z" fill="white"/>
<path d="M56.1774 154.946C54.9663 154.814 54.4554 154.372 54.2373 153.884C54.6974 153.943 55.1439 154.081 55.5575 154.291C55.8269 154.44 56.0435 154.669 56.1774 154.946Z" fill="#DE5753"/>
<path d="M55.9826 172.648C55.9643 172.649 55.9461 172.646 55.9291 172.639C55.9122 172.632 55.8971 172.621 55.885 172.608C52.835 169.337 50.5353 165.441 49.1462 161.191C49.1375 161.156 49.1428 161.119 49.161 161.088C49.1793 161.056 49.209 161.034 49.2438 161.024C49.2608 161.02 49.2784 161.019 49.2957 161.022C49.313 161.024 49.3296 161.03 49.3446 161.039C49.3595 161.048 49.3725 161.06 49.3828 161.075C49.3931 161.089 49.4005 161.105 49.4045 161.122C50.7565 165.256 52.9802 169.051 55.9252 172.252C56.2696 171.104 57.6988 165.651 55.5463 161.472C55.5358 161.441 55.5367 161.407 55.549 161.377C55.5612 161.346 55.5838 161.321 55.6129 161.306C55.642 161.291 55.6755 161.286 55.7075 161.294C55.7395 161.301 55.7678 161.319 55.7874 161.346C58.2499 166.127 56.1318 172.493 56.1088 172.556C56.1013 172.578 56.0884 172.598 56.0714 172.614C56.0544 172.63 56.0338 172.642 56.0113 172.648H55.9826Z" fill="#263238"/>
<path d="M56.1604 172.407L56.5966 172.981C56.6357 173.029 56.6571 173.09 56.6571 173.153C56.6571 173.215 56.6357 173.276 56.5966 173.325L56.1546 173.899C56.1282 173.93 56.0953 173.956 56.0581 173.973C56.0209 173.99 55.9804 173.999 55.9394 173.999C55.8984 173.999 55.8578 173.99 55.8207 173.973C55.7835 173.956 55.7505 173.93 55.7241 173.899L55.3109 173.428C55.2745 173.38 55.2549 173.322 55.2549 173.262C55.2549 173.202 55.2745 173.143 55.3109 173.095L55.6782 172.43C55.7023 172.388 55.7364 172.353 55.7774 172.328C55.8184 172.303 55.865 172.289 55.913 172.287C55.961 172.284 56.0088 172.294 56.052 172.315C56.0952 172.336 56.1325 172.368 56.1604 172.407Z" fill="white"/>
<path opacity="0.7" d="M44.6974 161.237C41.3796 162.425 40.4268 165.318 40.3579 171.35C42.0799 172.917 47.3091 173.004 47.3091 173.004C47.3091 173.004 48.216 163.854 44.6974 161.237Z" fill="white"/>
<path d="M79.4072 207.277L85.2276 208.236L88.023 208.695L88.8381 205.808L86.3124 205.039L80.1362 203.162L79.4072 207.277Z" fill="#EBB376"/>
<path d="M88.2698 205.337L87.0127 208.574C86.9962 208.618 86.9885 208.664 86.9899 208.71C86.9914 208.757 87.002 208.802 87.0213 208.844C87.0405 208.886 87.0679 208.924 87.1019 208.956C87.1359 208.987 87.1758 209.012 87.2194 209.028L88.8438 209.602C88.8438 209.602 90.9733 210.532 91.6621 210.233C93.6769 209.367 96.6444 202.266 95.9901 201.623C95.749 201.376 95.2324 201.623 94.9569 201.807C94.0844 202.45 92.1385 204.315 91.4038 204.843C90.5428 205.463 89.2284 205.268 88.6601 205.148C88.5831 205.127 88.5014 205.135 88.4298 205.17C88.3582 205.205 88.3014 205.264 88.2698 205.337Z" fill="#407BFF"/>
<path opacity="0.2" d="M79.4072 207.277L85.2276 208.236L86.3124 205.039L80.1362 203.162L79.4072 207.277Z" fill="black"/>
<path d="M85.3081 204.436C85.3081 204.436 61.579 191.096 53.3822 191.475C45.1855 191.854 44.0146 199.075 47.3897 203.592C50.7648 208.109 57.0099 209.212 57.0099 209.212C57.0099 209.212 52.7681 203.196 53.3822 201.52C53.9964 199.844 56.3957 202.186 56.3957 202.186C56.3957 202.186 71.3197 207.007 84.3897 208.115L85.3081 204.436Z" fill="#263238"/>
<path d="M85.6925 204.068L84.3493 203.167L82.6216 208.465H84.6937L85.6925 204.068Z" fill="#407BFF"/>
<path opacity="0.6" d="M85.6925 204.068L84.3493 203.167L82.6216 208.465H84.6937L85.6925 204.068Z" fill="white"/>
</svg>
