<svg width="885" height="575" viewBox="0 0 885 575" fill="none" xmlns="http://www.w3.org/2000/svg">
<path d="M198.748 73.1749H117.094L116.005 84.4026H198.748V73.1749Z" stroke="#263238" stroke-miterlimit="10"/>
<path d="M198.748 84.4026H117.094L116.005 95.6304H198.748V84.4026Z" stroke="#263238" stroke-miterlimit="10"/>
<path d="M198.748 95.6304H117.094L116.005 106.858H198.748V95.6304Z" stroke="#263238" stroke-miterlimit="10"/>
<path d="M198.748 106.858H117.094L116.005 118.086H198.748V106.858Z" stroke="#263238" stroke-miterlimit="10"/>
<path d="M198.748 118.086H117.094L116.005 129.301H198.748V118.086Z" stroke="#263238" stroke-miterlimit="10"/>
<path d="M198.748 129.301H117.094L116.005 140.528H198.748V129.301Z" stroke="#263238" stroke-miterlimit="10"/>
<path d="M198.748 140.528H117.094L116.005 151.756H198.748V140.528Z" stroke="#263238" stroke-miterlimit="10"/>
<path d="M198.748 151.756H117.094L116.005 162.984H198.748V151.756Z" stroke="#263238" stroke-miterlimit="10"/>
<path d="M198.748 162.984H117.094L116.005 174.212H198.748V162.984Z" stroke="#263238" stroke-miterlimit="10"/>
<path d="M198.748 174.212H117.094L116.005 185.439H198.748V174.212Z" stroke="#263238" stroke-miterlimit="10"/>
<path d="M198.748 185.439H117.094L116.005 196.667H198.748V185.439Z" stroke="#263238" stroke-miterlimit="10"/>
<path d="M198.748 196.667H117.094L116.005 207.895H198.748V196.667Z" stroke="#263238" stroke-miterlimit="10"/>
<path d="M198.748 207.895H117.094L116.005 219.123H198.748V207.895Z" stroke="#263238" stroke-miterlimit="10"/>
<path d="M198.748 219.123H117.094L116.005 230.35H198.748V219.123Z" stroke="#263238" stroke-miterlimit="10"/>
<path d="M198.748 230.35H117.094L116.005 241.578H198.748V230.35Z" stroke="#263238" stroke-miterlimit="10"/>
<path d="M198.748 241.552H117.094L116.005 252.78H198.748V241.552Z" stroke="#263238" stroke-miterlimit="10"/>
<path d="M198.748 252.767H117.094L116.005 263.995H198.748V252.767Z" stroke="#263238" stroke-miterlimit="10"/>
<path d="M198.748 263.969H117.094L116.005 275.197H198.748V263.969Z" stroke="#263238" stroke-miterlimit="10"/>
<path d="M198.748 275.184H117.094L116.005 286.411H198.748V275.184Z" stroke="#263238" stroke-miterlimit="10"/>
<path d="M198.748 286.385H117.094L116.005 297.613H198.748V286.385Z" stroke="#263238" stroke-miterlimit="10"/>
<path d="M198.748 297.6H117.094L116.005 308.815H198.748V297.6Z" stroke="#263238" stroke-miterlimit="10"/>
<path d="M282.697 73.1749H201.03L199.954 84.4026H282.697V73.1749Z" stroke="#263238" stroke-miterlimit="10"/>
<path d="M282.697 84.4026H201.03L199.954 95.6304H282.697V84.4026Z" stroke="#263238" stroke-miterlimit="10"/>
<path d="M282.697 95.6304H201.03L199.954 106.858H282.697V95.6304Z" stroke="#263238" stroke-miterlimit="10"/>
<path d="M282.697 106.858H201.03L199.954 118.086H282.697V106.858Z" stroke="#263238" stroke-miterlimit="10"/>
<path d="M282.697 118.086H201.03L199.954 129.301H282.697V118.086Z" stroke="#263238" stroke-miterlimit="10"/>
<path d="M282.697 129.301H201.03L199.954 140.528H282.697V129.301Z" stroke="#263238" stroke-miterlimit="10"/>
<path d="M282.697 140.528H201.03L199.954 151.756H282.697V140.528Z" stroke="#263238" stroke-miterlimit="10"/>
<path d="M282.697 151.756H201.03L199.954 162.984H282.697V151.756Z" stroke="#263238" stroke-miterlimit="10"/>
<path d="M282.697 162.984H201.03L199.954 174.212H282.697V162.984Z" stroke="#263238" stroke-miterlimit="10"/>
<path d="M282.697 174.212H201.03L199.954 185.439H282.697V174.212Z" stroke="#263238" stroke-miterlimit="10"/>
<path d="M282.697 185.439H201.03L199.954 196.667H282.697V185.439Z" stroke="#263238" stroke-miterlimit="10"/>
<path d="M282.697 196.667H201.03L199.954 207.895H282.697V196.667Z" stroke="#263238" stroke-miterlimit="10"/>
<path d="M282.697 207.895H201.03L199.954 219.123H282.697V207.895Z" stroke="#263238" stroke-miterlimit="10"/>
<path d="M282.697 219.123H201.03L199.954 230.35H282.697V219.123Z" stroke="#263238" stroke-miterlimit="10"/>
<path d="M282.697 230.35H201.03L199.954 241.578H282.697V230.35Z" stroke="#263238" stroke-miterlimit="10"/>
<path d="M282.697 241.552H201.03L199.954 252.78H282.697V241.552Z" stroke="#263238" stroke-miterlimit="10"/>
<path d="M282.697 252.767H201.03L199.954 263.995H282.697V252.767Z" stroke="#263238" stroke-miterlimit="10"/>
<path d="M282.697 263.969H201.03L199.954 275.197H282.697V263.969Z" stroke="#263238" stroke-miterlimit="10"/>
<path d="M282.697 275.184H201.03L199.954 286.411H282.697V275.184Z" stroke="#263238" stroke-miterlimit="10"/>
<path d="M282.697 286.385H201.03L199.954 297.613H282.697V286.385Z" stroke="#263238" stroke-miterlimit="10"/>
<path d="M282.697 297.6H201.03L199.954 308.815H282.697V297.6Z" stroke="#263238" stroke-miterlimit="10"/>
<path d="M286.781 64.4753H114.099V72.9415H286.781V64.4753Z" stroke="#263238" stroke-miterlimit="10"/>
<path d="M286.781 72.9545V222.105" stroke="#263238" stroke-miterlimit="10"/>
<path d="M284.901 73.1878V175.521" stroke="#263238" stroke-miterlimit="10"/>
<path d="M288.013 221.781H285.692V225.579H288.013V221.781Z" fill="#263238" stroke="#263238" stroke-miterlimit="10"/>
<path d="M285.913 174.717H283.592V178.516H285.913V174.717Z" fill="#263238" stroke="#263238" stroke-miterlimit="10"/>
<path d="M698.176 73.1749H616.509L615.433 84.4026H698.176V73.1749Z" stroke="#263238" stroke-miterlimit="10"/>
<path d="M698.176 84.4026H616.509L615.433 95.6304H698.176V84.4026Z" stroke="#263238" stroke-miterlimit="10"/>
<path d="M698.176 95.6304H616.509L615.433 106.858H698.176V95.6304Z" stroke="#263238" stroke-miterlimit="10"/>
<path d="M698.176 106.858H616.509L615.433 118.086H698.176V106.858Z" stroke="#263238" stroke-miterlimit="10"/>
<path d="M698.176 118.086H616.509L615.433 129.301H698.176V118.086Z" stroke="#263238" stroke-miterlimit="10"/>
<path d="M698.176 129.301H616.509L615.433 140.528H698.176V129.301Z" stroke="#263238" stroke-miterlimit="10"/>
<path d="M698.176 140.528H616.509L615.433 151.756H698.176V140.528Z" stroke="#263238" stroke-miterlimit="10"/>
<path d="M698.176 151.756H616.509L615.433 162.984H698.176V151.756Z" stroke="#263238" stroke-miterlimit="10"/>
<path d="M698.176 162.984H616.509L615.433 174.212H698.176V162.984Z" stroke="#263238" stroke-miterlimit="10"/>
<path d="M698.176 174.212H616.509L615.433 185.439H698.176V174.212Z" stroke="#263238" stroke-miterlimit="10"/>
<path d="M698.176 185.439H616.509L615.433 196.667H698.176V185.439Z" stroke="#263238" stroke-miterlimit="10"/>
<path d="M698.176 196.667H616.509L615.433 207.895H698.176V196.667Z" stroke="#263238" stroke-miterlimit="10"/>
<path d="M698.176 207.895H616.509L615.433 219.123H698.176V207.895Z" stroke="#263238" stroke-miterlimit="10"/>
<path d="M698.176 219.123H616.509L615.433 230.35H698.176V219.123Z" stroke="#263238" stroke-miterlimit="10"/>
<path d="M698.176 230.35H616.509L615.433 241.578H698.176V230.35Z" stroke="#263238" stroke-miterlimit="10"/>
<path d="M698.176 241.552H616.509L615.433 252.78H698.176V241.552Z" stroke="#263238" stroke-miterlimit="10"/>
<path d="M698.176 252.767H616.509L615.433 263.995H698.176V252.767Z" stroke="#263238" stroke-miterlimit="10"/>
<path d="M698.176 263.969H616.509L615.433 275.197H698.176V263.969Z" stroke="#263238" stroke-miterlimit="10"/>
<path d="M698.176 275.184H616.509L615.433 286.411H698.176V275.184Z" stroke="#263238" stroke-miterlimit="10"/>
<path d="M698.176 286.385H616.509L615.433 297.613H698.176V286.385Z" stroke="#263238" stroke-miterlimit="10"/>
<path d="M698.176 297.6H616.509L615.433 308.815H698.176V297.6Z" stroke="#263238" stroke-miterlimit="10"/>
<path d="M782.125 73.1749H700.458L699.382 84.4026H782.125V73.1749Z" stroke="#263238" stroke-miterlimit="10"/>
<path d="M782.125 84.4026H700.458L699.382 95.6304H782.125V84.4026Z" stroke="#263238" stroke-miterlimit="10"/>
<path d="M782.125 95.6304H700.458L699.382 106.858H782.125V95.6304Z" stroke="#263238" stroke-miterlimit="10"/>
<path d="M782.125 106.858H700.458L699.382 118.086H782.125V106.858Z" stroke="#263238" stroke-miterlimit="10"/>
<path d="M782.125 118.086H700.458L699.382 129.301H782.125V118.086Z" stroke="#263238" stroke-miterlimit="10"/>
<path d="M782.125 129.301H700.458L699.382 140.528H782.125V129.301Z" stroke="#263238" stroke-miterlimit="10"/>
<path d="M782.125 140.528H700.458L699.382 151.756H782.125V140.528Z" stroke="#263238" stroke-miterlimit="10"/>
<path d="M782.125 151.756H700.458L699.382 162.984H782.125V151.756Z" stroke="#263238" stroke-miterlimit="10"/>
<path d="M782.125 162.984H700.458L699.382 174.212H782.125V162.984Z" stroke="#263238" stroke-miterlimit="10"/>
<path d="M782.125 174.212H700.458L699.382 185.439H782.125V174.212Z" stroke="#263238" stroke-miterlimit="10"/>
<path d="M782.125 185.439H700.458L699.382 196.667H782.125V185.439Z" stroke="#263238" stroke-miterlimit="10"/>
<path d="M782.125 196.667H700.458L699.382 207.895H782.125V196.667Z" stroke="#263238" stroke-miterlimit="10"/>
<path d="M782.125 207.895H700.458L699.382 219.123H782.125V207.895Z" stroke="#263238" stroke-miterlimit="10"/>
<path d="M782.125 219.123H700.458L699.382 230.35H782.125V219.123Z" stroke="#263238" stroke-miterlimit="10"/>
<path d="M782.125 230.35H700.458L699.382 241.578H782.125V230.35Z" stroke="#263238" stroke-miterlimit="10"/>
<path d="M782.125 241.552H700.458L699.382 252.78H782.125V241.552Z" stroke="#263238" stroke-miterlimit="10"/>
<path d="M782.125 252.767H700.458L699.382 263.995H782.125V252.767Z" stroke="#263238" stroke-miterlimit="10"/>
<path d="M782.125 263.969H700.458L699.382 275.197H782.125V263.969Z" stroke="#263238" stroke-miterlimit="10"/>
<path d="M782.125 275.184H700.458L699.382 286.411H782.125V275.184Z" stroke="#263238" stroke-miterlimit="10"/>
<path d="M782.125 286.385H700.458L699.382 297.613H782.125V286.385Z" stroke="#263238" stroke-miterlimit="10"/>
<path d="M782.125 297.6H700.458L699.382 308.815H782.125V297.6Z" stroke="#263238" stroke-miterlimit="10"/>
<path d="M786.209 64.4753H613.527V72.9415H786.209V64.4753Z" stroke="#263238" stroke-miterlimit="10"/>
<path d="M786.208 72.9545V222.105" stroke="#263238" stroke-miterlimit="10"/>
<path d="M784.329 73.1878V175.521" stroke="#263238" stroke-miterlimit="10"/>
<path d="M787.427 221.781H785.106V225.579H787.427V221.781Z" fill="#263238" stroke="#263238" stroke-miterlimit="10"/>
<path d="M785.34 174.717H783.019V178.516H785.34V174.717Z" fill="#263238" stroke="#263238" stroke-miterlimit="10"/>
<path d="M34.5585 432.644C34.2977 431.47 33.9243 430.324 33.4435 429.222C32.9407 427.966 32.365 426.741 31.7192 425.553C30.604 423.515 29.3294 421.568 27.9074 419.731C27.861 419.665 27.7924 419.618 27.7141 419.598C27.6358 419.578 27.553 419.587 27.4808 419.623C27.4085 419.66 27.3516 419.72 27.3205 419.795C27.2893 419.869 27.286 419.953 27.311 420.029C27.5055 420.807 27.7519 421.845 28.05 423.011C28.3482 424.178 28.5687 425.514 28.828 426.901C29.3984 429.494 29.7744 432.346 30.2541 434.343C30.5523 435.575 30.8505 436.741 31.1098 437.805C31.3421 438.732 31.6278 439.646 31.9655 440.54L29.3725 438.219C28.5298 437.442 27.5833 436.78 26.6887 436.041C27.1613 434.848 27.2959 433.547 27.0777 432.281C26.8155 430.107 26.2572 427.978 25.4181 425.955C24.9198 424.84 24.3526 423.757 23.7197 422.713C22.978 421.559 22.1729 420.447 21.3082 419.381C19.8133 417.521 18.1464 415.807 16.3296 414.26C16.2719 414.204 16.1959 414.17 16.1155 414.165C16.0351 414.16 15.9556 414.184 15.8913 414.233C15.8271 414.281 15.7823 414.351 15.7652 414.43C15.7481 414.509 15.7598 414.591 15.7981 414.662C16.1611 415.414 16.6408 416.373 17.0946 417.488C17.5483 418.603 18.0929 419.848 18.6374 421.132C19.5968 423.647 20.6211 426.318 21.373 428.262C21.8657 429.455 22.3454 430.557 22.8122 431.529C23.2789 432.502 23.6679 433.422 24.1087 434.122L21.9824 432.67L19.8043 431.374C19.6842 430.93 19.4672 430.518 19.169 430.168C18.7175 429.659 18.2182 429.195 17.678 428.781C16.1558 427.623 14.4573 426.716 12.6475 426.097C10.5044 425.395 8.26469 425.032 6.00942 425.021C4.06184 424.981 2.11636 425.172 0.214034 425.591C-0.0841626 425.669 -0.0582324 426.188 0.214034 426.266C1.97945 426.801 3.71122 427.442 5.40006 428.185C7.39669 429.001 9.4322 430.013 11.0788 430.583C14.4886 431.88 17.5613 432.632 19.0393 432.385L21.1915 433.682C21.9046 434.122 22.5918 434.615 23.2789 435.082C22.3796 434.979 21.4738 434.944 20.5692 434.978C19.4895 435.06 18.4158 435.207 17.3539 435.419C16.3 435.641 15.2707 435.966 14.2811 436.391C13.1815 436.827 12.1155 437.342 11.0917 437.934C10.0675 438.531 9.10807 439.14 8.30424 439.71C7.50041 440.281 6.80029 440.877 6.30762 441.305C6.07425 441.5 6.07425 441.966 6.30762 441.902C7.29296 441.603 8.97842 441.227 10.9361 440.851L13.957 440.32C14.9683 440.177 15.9666 440.009 16.8612 439.801C18.9226 439.347 20.8804 438.958 22.5269 438.505C23.7299 438.235 24.867 437.728 25.8719 437.014C26.7276 437.714 27.6222 438.31 28.4649 439.101L30.9153 441.331C30.0282 441.105 29.1274 440.936 28.2186 440.825C27.1447 440.68 26.059 440.641 24.9773 440.709C22.7106 440.867 20.4767 441.338 18.3392 442.109C17.2112 442.498 16.1611 442.9 15.2276 443.315C14.2941 443.73 13.5032 444.157 12.9198 444.482C12.6475 444.624 12.5697 445.078 12.8161 445.065C13.9052 444.961 15.6684 444.987 17.7169 444.961C18.7411 444.961 19.7783 445.026 20.8415 445.026H23.8494C25.9238 445.026 28.0371 444.793 29.6966 444.624C30.9397 444.575 32.1588 444.266 33.275 443.717C34.8251 445.304 36.2921 446.97 37.6701 448.708C35.8151 447.941 33.8586 447.448 31.8618 447.243C29.5764 447.06 27.277 447.16 25.0162 447.541C23.0464 447.87 21.1014 448.334 19.1949 448.929C18.8967 449.032 18.7541 449.473 19.0134 449.499L23.979 450.29C25.9627 450.731 28.3094 451.055 30.1245 451.327C32.0812 451.578 34.051 451.712 36.0236 451.729C37.2632 451.856 38.5155 451.71 39.6927 451.301L41.6763 453.985L43.5174 456.76C41.7468 455.795 39.8478 455.088 37.8776 454.659C35.6098 454.159 33.2882 453.946 30.9672 454.024C28.958 454.064 26.9532 454.229 24.9644 454.517C24.6402 454.517 24.4587 454.983 24.6921 455.061C25.7682 455.424 27.5703 456.008 29.6188 456.63C31.6197 457.384 33.6631 458.02 35.7383 458.536C37.6533 459.024 39.5978 459.387 41.5597 459.625C42.7917 459.86 44.0595 459.834 45.2806 459.547L46.9661 462.425L48.5089 465.368C46.8467 464.227 45.0307 463.328 43.1155 462.698C40.9049 462.002 38.6205 461.566 36.3088 461.401C34.2754 461.202 32.2322 461.119 30.1893 461.155C29.8781 461.155 29.6318 461.57 29.8781 461.686C30.9931 462.153 32.6915 462.983 34.7011 463.89C36.6197 464.816 38.5843 465.642 40.5873 466.367C42.4412 467.049 44.3383 467.607 46.266 468.039C47.4549 468.414 48.7107 468.529 49.9481 468.376C50.9204 470.373 51.7243 472.447 52.5411 474.509C51.0081 473.204 49.3076 472.109 47.4847 471.254C45.3623 470.322 43.1391 469.639 40.8595 469.219C38.8652 468.812 36.8474 468.531 34.8178 468.376C34.5067 468.376 34.2214 468.726 34.4548 468.869C35.505 469.439 37.0478 470.451 39.0055 471.462C40.9633 472.473 42.8951 473.705 44.5287 474.535C48.4182 476.337 52.1132 477.815 53.6042 477.568L54.5766 480.745L55.3934 483.973C54.0536 482.458 52.4985 481.147 50.7778 480.084C48.7898 478.922 46.6758 477.991 44.4768 477.309C42.5423 476.709 40.5775 476.211 38.5907 475.818C38.2795 475.818 37.9554 476.103 38.1628 476.259C39.0444 476.959 40.7558 478.087 42.3376 479.358C43.9193 480.628 45.8511 481.951 47.4588 482.988C51.076 485.231 54.5766 487.15 56.0676 487.124C56.4809 489.285 56.7408 491.473 56.8455 493.671C56.8455 493.943 57.1437 494.151 57.5067 494.151C57.5837 494.16 57.6617 494.153 57.736 494.131C57.8103 494.109 57.8792 494.071 57.9387 494.022C57.9981 493.972 58.0468 493.911 58.0818 493.841C58.1167 493.772 58.1372 493.697 58.142 493.619C58.0372 491.364 57.7686 489.119 57.3381 486.903C58.7513 486.514 61.4092 483.299 63.2113 478.671C64.0464 476.315 64.6034 473.869 64.8709 471.384C65.1358 469.177 65.27 466.956 65.2728 464.733C65.2728 464.383 64.7801 464.318 64.6245 464.642C63.9892 466.068 62.9261 468.389 61.8111 470.84C60.6961 473.29 59.5033 475.74 58.7254 477.672C57.9316 479.657 57.2562 481.688 56.7029 483.753C56.4436 482.638 56.1454 481.523 55.8601 480.408L54.8618 477.115C55.9043 476.398 56.7332 475.412 57.2604 474.262C58.2931 472.372 59.0734 470.353 59.5811 468.26C60.1372 465.84 60.4198 463.365 60.4238 460.882C60.4285 458.687 60.3116 456.492 60.0738 454.309C60.0738 453.959 59.5292 453.959 59.4255 454.309C58.9847 455.774 58.129 458.199 57.2863 460.792C56.4436 463.385 55.5101 465.978 55.0304 467.897C54.4575 469.957 54.0244 472.053 53.7339 474.172C52.9041 472.032 52.0614 469.88 51.0631 467.806C52.0304 466.966 52.7556 465.883 53.1634 464.668C53.9454 462.666 54.502 460.583 54.8229 458.458C55.0769 456.01 55.0769 453.542 54.8229 451.094C54.6106 448.917 54.2817 446.753 53.8376 444.611C53.7598 444.274 53.2542 444.326 53.1764 444.676C52.8911 446.167 52.2818 448.695 51.7113 451.262C51.1408 453.829 50.5056 456.513 50.2074 458.549C49.8931 460.657 49.7112 462.783 49.6628 464.915L48.0552 461.855L46.3178 458.886C47.1881 457.953 47.7886 456.801 48.0552 455.554C48.6229 453.484 48.9621 451.358 49.0664 449.214C49.0679 446.755 48.8335 444.302 48.3663 441.889C47.7959 439.296 47.0698 436.936 46.6031 435.406C46.4993 435.069 45.9678 435.173 45.9548 435.523C45.7863 437.092 45.527 439.659 45.2547 442.342C44.9824 445.026 44.5546 447.723 44.5027 449.745C44.4056 451.876 44.4402 454.011 44.6064 456.137L42.7135 453.259L40.6651 450.497C41.4271 449.467 41.9095 448.256 42.0653 446.984C42.4221 444.842 42.5179 442.666 42.3505 440.501C42.09 437.996 41.524 435.531 40.6651 433.163C39.8723 431.028 38.9634 428.937 37.9424 426.901C37.8986 426.839 37.8358 426.793 37.7636 426.77C37.6914 426.747 37.6136 426.748 37.542 426.773C37.4703 426.797 37.4087 426.845 37.3663 426.908C37.324 426.971 37.3032 427.046 37.3071 427.121C37.4368 428.716 37.5275 431.361 37.6442 434.019C37.7609 436.677 37.6442 439.529 37.8905 441.539C38.0192 443.681 38.2921 445.812 38.7073 447.917C37.2293 446.141 35.7772 444.352 34.1436 442.731C34.7787 441.619 35.1012 440.356 35.0771 439.075C35.188 436.918 35.0136 434.756 34.5585 432.644Z" fill="#92E3A9"/>
<path d="M83.8647 378.321C85.7835 375.961 88.3376 372.746 90.6065 369.673L96.4667 362.024C96.7779 361.635 96.4667 361.116 96.1426 361.35C94.4441 362.4 91.7733 364.254 88.8821 366.432C86.106 368.596 83.5049 370.976 81.1031 373.55C78.8518 376.175 76.8264 378.985 75.0484 381.951L76.7987 375.728L77.6933 372.616L78.7305 369.556C80.2085 369.738 84.6815 366.03 89.8286 361.103C94.2626 356.786 100.849 349.149 103.961 346.038C104.311 345.675 104.103 345.13 103.701 345.338C101.06 346.668 98.4892 348.135 96 349.733C94.496 350.705 92.9013 351.729 91.4752 352.819C90.049 353.908 88.7006 355.036 87.5856 356.099C86.2062 357.351 84.9071 358.689 83.6961 360.105C82.5552 361.401 81.5309 362.698 80.6882 363.865C81.8551 360.935 82.8923 357.94 84.1629 355.049C85.5729 353.684 86.7315 352.082 87.5856 350.316C89.0896 347.918 90.6713 344.728 92.4605 341.241C93.2254 339.711 94.0293 337.909 94.8979 336.055L96.1944 333.176C96.6352 332.204 97.0761 331.245 97.4909 330.285C99.2153 326.461 100.888 322.869 102.003 320.73C102.249 320.25 101.834 319.939 101.445 320.354C99.002 323.009 96.7121 325.801 94.5868 328.716L92.7068 331.309C92.1234 332.23 91.527 333.138 90.9565 334.019C89.9094 335.689 88.9572 337.416 88.1042 339.192C86.6247 342.124 85.3553 345.156 84.3055 348.268C83.6349 350.179 83.225 352.172 83.0867 354.193L82.1273 356.41L81.2587 358.666L79.5214 363.191C79.664 361.777 79.7547 360.183 79.8066 358.445C79.8584 356.708 79.8066 354.828 79.8066 352.909C79.8066 351.289 79.7288 349.474 79.5862 347.555C79.4436 345.636 79.3398 343.665 79.2102 341.785C78.8861 337.896 78.6916 334.382 78.5101 332.178C78.5101 331.672 77.8878 331.867 77.7451 332.437C77.4599 333.656 77.0969 335.264 76.669 337.092C76.2412 338.92 75.943 340.981 75.5929 343.108C75.2429 345.234 75.0225 347.399 74.815 349.448C74.6183 351.312 74.536 353.187 74.5687 355.061C74.6724 362.581 76.1375 368.273 77.3951 369.155L76.4357 372.098C76.1115 373.122 75.8393 374.146 75.5411 375.17L73.8427 381.355C73.821 377.918 73.6045 374.485 73.1944 371.073C72.9481 367.884 72.1961 363.839 71.5738 360.053C70.9514 356.267 70.3162 352.65 69.9531 350.537C69.8753 350.057 69.2919 350.303 69.2012 350.861C68.89 353.376 68.3195 357.434 68.0602 361.713C67.7661 365.72 67.8095 369.744 68.1899 373.744C68.4826 376.94 69.1172 380.096 70.0828 383.157C70.8866 385.568 71.7034 387.124 72.3776 387.513L71.6645 390.612L71.107 393.762L70.018 400.05C69.6475 396.63 69.0673 393.235 68.2806 389.886C67.7102 386.722 66.6211 382.781 65.558 379.034C64.4948 375.287 63.691 371.851 63.1076 369.712C62.965 369.219 62.4204 369.53 62.3945 370.101C62.0963 375.17 62.0444 386.605 63.691 393.075C65.2209 400.452 67.9565 405.742 69.3438 406.325C68.7474 410.539 68.6826 414.805 68.4751 419.057C68.164 417.67 67.7491 416.127 67.1786 414.454C66.9193 413.612 66.647 412.756 66.3488 411.861C66.0506 410.967 65.7525 410.072 65.4931 409.152C64.5726 406.066 63.0039 402.254 61.6036 398.637C60.2034 395.02 59.0106 391.649 58.1808 389.562C57.9993 389.082 57.4937 389.445 57.5326 390.028C57.6233 391.325 57.74 392.971 57.8826 394.864C58.0088 396.919 58.2424 398.966 58.5828 400.997C58.9328 403.149 59.3218 405.327 59.7367 407.35C59.9571 408.361 60.1515 409.346 60.4108 410.267C60.6701 411.187 60.9683 412.056 61.2406 412.86C62.287 415.894 63.5882 418.835 65.1301 421.65C66.4266 423.789 67.5805 425.138 68.3195 425.358C68.3195 429.598 68.3195 433.85 68.4103 438.09C67.3942 434.82 66.1775 431.616 64.7671 428.496C64.1448 427.031 63.3539 425.41 62.4853 423.75L61.1239 421.235C60.6831 420.367 60.2553 419.498 59.8274 418.642C58.0123 415.155 56.3268 411.926 55.3156 409.969C55.0692 409.515 54.6155 409.969 54.7192 410.526C55.1989 413.119 56.0157 417.19 57.014 421.352C58.0645 425.125 59.355 428.828 60.8776 432.437C63.8207 439.179 67.0879 443.989 68.5788 444.391C68.7085 448.63 68.89 452.857 69.0974 457.097C67.9915 453.871 66.6926 450.715 65.2079 447.645C62.06 441.633 58.5979 435.79 54.8359 430.142C54.5636 429.74 54.1357 430.142 54.2784 430.7C55.4711 435.393 58.5439 445.908 61.3443 451.703C64.5337 458.341 67.9435 463.035 69.4475 463.372C69.7327 467.611 70.018 471.838 70.3939 476.064C69.1718 472.878 67.7649 469.765 66.1803 466.743C62.8427 460.841 59.1899 455.124 55.2378 449.616C54.9525 449.214 54.5377 449.616 54.6932 450.186C56.0546 454.815 59.4514 465.226 62.4723 470.93C65.8562 477.413 69.4475 482.041 70.9644 482.34C71.3663 486.553 71.8201 490.767 72.3646 494.968C72.3646 495.499 72.7795 495.888 73.1296 495.836C73.4796 495.784 73.713 495.331 73.6482 494.799C73.1166 490.624 72.6628 486.424 72.248 482.236C73.6741 481.808 76.319 476.596 78.7305 469.712C80.8049 463.761 83.0997 453.492 84.124 449.032C84.2406 448.514 83.7998 448.125 83.5405 448.514C81.3624 451.988 76.5653 460.182 74.465 466.172C73.2702 469.445 72.3424 472.81 71.6905 476.233C71.3145 471.929 71.0163 467.624 70.731 463.268C72.1702 462.892 74.9966 457.758 77.6544 450.964C79.9233 445.091 82.5293 434.913 83.722 430.492C83.8517 429.987 83.4109 429.572 83.1516 429.961C80.8697 433.345 75.7874 441.383 73.4926 447.295C72.1878 450.529 71.1472 453.863 70.381 457.265C70.1563 452.943 69.9791 448.622 69.8494 444.3C71.3015 443.976 74.2835 438.933 77.1747 432.243C78.3934 429.351 79.7677 425.384 80.9605 421.598C82.1533 417.812 83.4757 414.688 84.1499 412.665C84.3055 412.212 83.8906 411.797 83.6054 412.134C82.3996 413.625 80.403 416.153 78.4193 419.109C77.9007 419.848 77.3951 420.6 76.8894 421.378C76.3838 422.156 75.956 422.985 75.5152 423.789C74.6206 425.397 73.8167 426.979 73.1814 428.431C71.7723 431.616 70.6276 434.911 69.7587 438.284C69.6809 433.967 69.616 429.65 69.6549 425.319C70.381 425.19 71.5478 423.88 72.8962 421.793C74.6008 419.227 76.1633 416.569 77.5766 413.832C77.9267 413.158 78.2767 412.419 78.6397 411.654L79.8714 409.217C80.7141 407.544 81.5439 405.781 82.3218 404.031C83.0997 402.28 83.9424 400.66 84.6685 399.195L86.5095 395.474C86.717 395.033 86.354 394.566 86.0428 394.877C84.6426 396.174 82.3348 398.533 79.9362 401.23C77.6736 403.912 75.6273 406.769 73.8167 409.774C73.3367 410.587 72.9038 411.427 72.5202 412.289C72.1442 413.132 71.7812 413.949 71.4441 414.753C70.7699 416.373 70.1476 417.903 69.7846 419.277C70.005 414.973 70.0569 410.656 70.6532 406.377C72.1831 406.248 75.6448 401.684 79.7936 395.875C83.1127 390.78 88.3376 382.158 90.6843 378.515C90.9436 378.1 90.6843 377.595 90.2824 377.867C88.7395 379.086 86.2113 381.147 83.5276 383.598C80.9705 386.068 78.6 388.724 76.4357 391.545C74.471 394.393 72.7369 397.393 71.2496 400.517L72.3517 394.151L72.8962 390.962L73.6223 387.811C74.3613 387.811 75.7874 386.813 77.5118 385.102C79.2361 383.39 81.6217 381.018 83.8647 378.321Z" fill="#92E3A9"/>
<path d="M117.716 427.601C121.775 425.864 127.635 422.415 130.15 420.95C130.435 420.781 130.228 420.328 129.878 420.367C128.348 420.496 125.846 420.807 123.162 421.313C120.592 421.774 118.07 422.472 115.629 423.4C113.402 424.284 111.286 425.429 109.328 426.81C110.754 424.438 112.245 422.13 113.749 419.822C115.046 420.483 119.415 419.55 124.225 417.942C126.299 417.242 128.815 416.075 131.161 415.038C133.508 414.001 135.608 413.067 136.879 412.445C137.164 412.328 136.996 411.874 136.658 411.861C134.434 411.795 132.208 411.873 129.994 412.095C127.417 412.324 124.87 412.823 122.397 413.586C120.125 414.323 117.948 415.328 115.914 416.581C117.081 414.934 118.222 413.275 119.441 411.654C120.932 411.434 123.953 408.517 127.103 404.77C127.803 403.927 128.568 402.954 129.32 401.878L131.68 398.637C132.983 396.795 134.39 395.029 135.894 393.347C136.127 393.075 135.893 392.634 135.505 392.79C133.363 393.76 131.325 394.946 129.424 396.329C128.27 397.133 127.168 398.067 126.118 398.922C125.172 399.774 124.28 400.683 123.447 401.645C120.374 405.275 118.624 408.944 118.559 410.63C117.263 412.276 116.148 413.975 114.942 415.66C115.38 413.331 115.653 410.975 115.759 408.607C115.875 406.299 115.759 403.305 115.668 400.4C115.577 397.496 115.474 394.722 115.474 393.01C115.47 392.927 115.437 392.848 115.38 392.787C115.323 392.726 115.246 392.687 115.163 392.678C115.08 392.668 114.997 392.689 114.928 392.736C114.859 392.782 114.809 392.852 114.786 392.932C113.861 395.279 113.073 397.677 112.427 400.115C111.68 402.788 111.202 405.528 111.001 408.296C110.728 413.599 111.623 417.955 112.686 419.005C111.208 421.287 109.73 423.556 108.33 425.89C108.615 423.541 108.737 421.176 108.693 418.811C108.628 416.516 108.343 413.56 107.967 410.708C107.591 407.855 107.267 405.146 107.059 403.499C107.044 403.419 107.001 403.347 106.938 403.296C106.875 403.244 106.797 403.216 106.716 403.216C106.634 403.216 106.556 403.244 106.493 403.296C106.43 403.347 106.388 403.419 106.372 403.499C105.452 406.779 103.779 414.182 103.935 418.811C104.038 424.101 105.114 428.379 106.255 429.377C104.868 431.711 103.546 434.084 102.236 436.469C102.42 434.113 102.42 431.746 102.236 429.39C101.912 424.852 100.291 417.553 99.6432 414.299C99.6226 414.225 99.5785 414.161 99.5176 414.114C99.4567 414.068 99.3825 414.043 99.3061 414.043C99.2297 414.043 99.1554 414.068 99.0945 414.114C99.0337 414.161 98.9896 414.225 98.969 414.299C97.8652 419.321 97.3561 424.456 97.4521 429.598C97.8151 434.849 99.0986 439.075 100.291 439.97C98.9949 442.368 97.8021 444.806 96.5834 447.23C96.6821 444.866 96.5823 442.498 96.2852 440.151C95.458 435.129 94.3543 430.155 92.9791 425.254C92.9585 425.181 92.9144 425.116 92.8536 425.07C92.7927 425.024 92.7184 424.999 92.642 424.999C92.5656 424.999 92.4913 425.024 92.4305 425.07C92.3696 425.116 92.3255 425.181 92.3049 425.254C92.0716 426.888 91.7345 429.572 91.527 432.411C91.2987 435.116 91.2987 437.835 91.527 440.54C92.1234 445.726 93.6014 449.94 94.8202 450.822C93.6274 453.272 92.5642 455.774 91.4622 458.251C91.4414 455.886 91.229 453.527 90.8269 451.198C90.3432 448.537 89.7113 445.905 88.934 443.315C88.1691 440.592 87.3652 438.025 86.8596 436.456C86.8385 436.38 86.791 436.313 86.7256 436.268C86.6601 436.223 86.5808 436.202 86.5017 436.21C86.4226 436.218 86.3488 436.253 86.2933 436.31C86.2378 436.367 86.2042 436.442 86.1984 436.521C85.8743 439.788 85.3427 447.269 86.1206 451.846C86.9374 457.032 88.7136 461.181 89.9194 461.984C88.9081 464.5 87.9227 467.041 87.0281 469.608C86.8292 467.244 86.4697 464.896 85.952 462.581C85.3206 459.949 84.5503 457.352 83.6443 454.802C82.7497 452.105 81.8421 449.616 81.2717 447.995C81.2492 447.916 81.1985 447.848 81.1291 447.803C81.0597 447.759 80.9765 447.741 80.8951 447.754C80.8137 447.767 80.7398 447.809 80.6873 447.872C80.6349 447.936 80.6075 448.017 80.6104 448.099C80.403 451.431 80.2344 458.989 81.2846 463.527C82.4126 468.713 84.3833 472.707 85.7187 473.433C84.85 476.026 84.0851 478.619 83.372 481.212C83.0087 478.952 82.502 476.717 81.8551 474.522C80.5586 470.139 77.5377 463.229 76.306 460.156C76.2871 460.069 76.2342 459.992 76.1588 459.943C76.0834 459.895 75.9918 459.878 75.9041 459.897C75.8164 459.916 75.7399 459.969 75.6912 460.044C75.6426 460.12 75.6259 460.211 75.6448 460.299C75.6448 463.644 75.9041 471.306 77.2654 475.857C78.7694 481.043 81.0642 484.842 82.4515 485.438C81.8248 488.095 81.3358 490.782 80.9864 493.49C80.9793 493.573 80.9888 493.657 81.0143 493.737C81.0399 493.817 81.0809 493.891 81.1352 493.955C81.1894 494.018 81.2557 494.071 81.3303 494.109C81.4049 494.147 81.4863 494.17 81.5698 494.177C81.736 494.195 81.9029 494.149 82.0358 494.048C82.1687 493.946 82.2572 493.797 82.2829 493.632C82.6167 490.976 83.0971 488.34 83.7221 485.736C85.1612 485.879 88.9081 483.558 92.9143 480.55C96.3241 477.867 101.017 473.031 103.131 470.982C103.377 470.749 103.053 470.36 102.729 470.477C98.1446 472.134 93.7883 474.364 89.7638 477.115C87.8298 478.541 86.0869 480.21 84.5777 482.08C85.3038 479.422 86.0687 476.778 86.9374 474.159C88.3765 474.431 92.3438 472.434 96.5575 469.621C100.344 466.794 103.976 463.764 107.435 460.545C107.682 460.325 107.435 459.91 107.059 460.014C105.581 460.493 103.17 461.31 100.577 462.36C98.1553 463.336 95.8254 464.525 93.6144 465.913C91.6113 467.22 89.7703 468.761 88.1302 470.502C89.0377 467.909 90.036 465.316 91.0603 462.723C92.4994 463.099 96.5575 461.362 100.966 458.769C104.939 456.142 108.749 453.276 112.375 450.186C112.634 449.966 112.375 449.538 112.012 449.642C110.521 450.057 108.122 450.796 105.529 451.716C103.098 452.555 100.739 453.591 98.4763 454.815C96.4083 456.023 94.4781 457.454 92.7198 459.08C93.8348 456.565 94.9109 454.024 96.1167 451.548C97.5169 451.988 101.679 450.497 106.229 448.073C108.466 446.803 110.63 445.409 112.712 443.898C114.89 442.368 116.861 440.89 118.054 440.009C118.326 439.814 118.054 439.373 117.729 439.451C112.881 440.458 108.161 442.01 103.662 444.08C101.538 445.194 99.5381 446.533 97.6984 448.073C98.9949 445.61 100.149 443.133 101.458 440.696C102.755 441.214 107.072 439.892 111.701 437.675C115.873 435.415 119.92 432.931 123.823 430.233C124.108 430.039 123.823 429.598 123.525 429.65C118.681 430.38 113.941 431.686 109.406 433.539C107.225 434.546 105.164 435.794 103.26 437.26C104.557 434.836 105.944 432.424 107.344 430.051C108.693 430.674 113.01 429.559 117.716 427.601Z" fill="#92E3A9"/>
<path d="M61.6033 568.454H79.5988C93.8604 562.204 104.31 541.512 104.31 516.917C104.375 507.307 102.656 497.767 99.2409 488.783H41.9612C38.5462 497.767 36.8274 507.307 36.8919 516.917C36.8919 541.512 47.3547 562.204 61.6033 568.454Z" fill="#263238"/>
<path d="M782.086 432.645C781.825 431.47 781.451 430.324 780.971 429.222C780.472 427.966 779.901 426.741 779.259 425.553C778.124 423.509 776.823 421.562 775.37 419.731C775.323 419.665 775.255 419.618 775.176 419.598C775.098 419.578 775.015 419.587 774.943 419.623C774.871 419.66 774.814 419.72 774.783 419.795C774.752 419.869 774.748 419.953 774.773 420.029C774.968 420.807 775.227 421.845 775.512 423.011C775.798 424.178 776.031 425.514 776.303 426.901C776.861 429.494 777.237 432.346 777.729 434.343L778.572 437.805C778.857 438.855 779.143 439.775 779.428 440.54L776.835 438.219C775.979 437.442 775.046 436.78 774.151 436.041C774.624 434.847 774.754 433.545 774.527 432.281C774.265 430.107 773.706 427.978 772.867 425.955C772.379 424.837 771.816 423.755 771.182 422.713C769.14 419.553 766.651 416.705 763.792 414.26C763.732 414.212 763.657 414.185 763.58 414.183C763.503 414.182 763.427 414.206 763.365 414.251C763.303 414.297 763.258 414.362 763.236 414.437C763.215 414.511 763.219 414.59 763.247 414.662C763.61 415.414 764.09 416.373 764.544 417.488C764.998 418.603 765.542 419.848 766.074 421.132L768.822 428.262C769.315 429.455 769.795 430.557 770.262 431.529C770.649 432.415 771.082 433.281 771.558 434.123L769.471 432.696L767.28 431.4C767.171 430.954 766.957 430.541 766.657 430.194C766.206 429.685 765.706 429.221 765.166 428.807C763.644 427.649 761.946 426.742 760.136 426.123C757.988 425.421 755.744 425.058 753.485 425.047C751.537 425.007 749.592 425.198 747.689 425.617C747.391 425.695 747.43 426.214 747.689 426.292C749.454 426.829 751.186 427.47 752.875 428.21C754.872 429.027 756.907 430.039 758.541 430.609C761.951 431.905 765.024 432.657 766.502 432.411L768.667 433.708C769.38 434.148 770.054 434.641 770.754 435.108C769.855 435.005 768.949 434.97 768.044 435.004C766.961 435.087 765.883 435.234 764.816 435.445C763.763 435.668 762.734 435.994 761.743 436.417C760.645 436.855 759.579 437.371 758.554 437.96C757.53 438.557 756.583 439.166 755.767 439.736C754.95 440.307 754.276 440.903 753.783 441.331C753.55 441.526 753.55 441.992 753.783 441.927C754.781 441.629 756.467 441.253 758.424 440.877L761.445 440.346C762.444 440.203 763.442 440.035 764.349 439.827C766.398 439.373 768.356 438.984 770.015 438.531C771.233 438.285 772.389 437.796 773.412 437.092C774.268 437.792 775.175 438.388 776.005 439.179L778.468 441.409C777.581 441.184 776.68 441.015 775.772 440.903C774.698 440.758 773.612 440.719 772.53 440.787C770.252 440.927 768.005 441.385 765.853 442.148C764.725 442.537 763.675 442.939 762.742 443.354C761.808 443.769 761.017 444.196 760.421 444.52C760.149 444.663 760.071 445.117 760.317 445.104C761.406 445 763.183 445.026 765.231 445C766.255 445 767.292 445.065 768.343 445.065H771.364C773.438 445.065 775.538 444.832 777.198 444.663C778.445 444.611 779.667 444.302 780.789 443.756C782.339 445.343 783.806 447.009 785.184 448.747C783.329 447.98 781.373 447.487 779.376 447.282C777.086 447.099 774.783 447.199 772.517 447.58C770.552 447.911 768.612 448.374 766.709 448.968C766.411 449.071 766.268 449.512 766.515 449.538L771.493 450.329C773.477 450.77 775.811 451.094 777.626 451.366C779.587 451.617 781.561 451.751 783.538 451.768C784.777 451.893 786.029 451.747 787.207 451.34L789.191 454.024L791.032 456.798C789.256 455.834 787.353 455.127 785.379 454.698C783.115 454.198 780.798 453.985 778.481 454.063C776.468 454.103 774.459 454.268 772.466 454.555C772.154 454.555 771.96 455.022 772.206 455.1C773.269 455.463 775.072 456.046 777.133 456.669C779.13 457.421 781.169 458.057 783.24 458.575C785.159 459.062 787.108 459.425 789.074 459.664C790.301 459.899 791.565 459.873 792.782 459.586L794.48 462.464L795.997 465.316C794.333 464.178 792.518 463.279 790.604 462.646C788.389 461.949 786.1 461.514 783.784 461.349C781.755 461.15 779.716 461.067 777.678 461.103C777.353 461.103 777.107 461.518 777.366 461.634C778.481 462.101 780.18 462.931 782.189 463.838C784.105 464.761 786.065 465.588 788.063 466.315C789.918 466.993 791.814 467.552 793.741 467.987C794.935 468.362 796.195 468.477 797.436 468.324C798.396 470.321 799.212 472.395 800.029 474.457C798.494 473.155 796.794 472.06 794.973 471.203C792.85 470.272 790.627 469.589 788.348 469.167C786.353 468.76 784.336 468.479 782.306 468.324C781.982 468.324 781.697 468.674 781.93 468.817C782.993 469.388 784.588 470.399 786.481 471.41C788.374 472.421 790.37 473.653 792.017 474.483C795.906 476.285 799.588 477.763 801.092 477.517L802.052 480.693L802.882 483.921C801.539 482.409 799.984 481.099 798.266 480.032C796.275 478.868 794.156 477.937 791.952 477.257C790.017 476.661 788.053 476.168 786.066 475.779C785.755 475.779 785.431 476.065 785.638 476.22C786.52 476.92 788.231 478.048 789.8 479.319C791.369 480.589 793.313 481.912 794.986 482.949C798.59 485.192 802.091 487.111 803.582 487.085C803.999 489.246 804.263 491.434 804.373 493.632C804.373 493.904 804.671 494.112 805.034 494.112C805.111 494.121 805.189 494.114 805.263 494.092C805.337 494.07 805.406 494.033 805.466 493.983C805.525 493.933 805.574 493.872 805.609 493.802C805.644 493.733 805.664 493.658 805.669 493.58C805.551 491.326 805.283 489.083 804.865 486.864C806.266 486.475 808.936 483.26 810.725 478.632C811.567 476.278 812.124 473.831 812.385 471.345C812.653 469.138 812.792 466.917 812.8 464.694C812.792 464.619 812.76 464.549 812.707 464.495C812.655 464.44 812.586 464.405 812.511 464.395C812.437 464.384 812.361 464.399 812.296 464.437C812.23 464.475 812.18 464.533 812.152 464.603L809.325 470.801C808.158 473.238 807.018 475.701 806.24 477.633C805.443 479.616 804.772 481.647 804.23 483.714C803.958 482.599 803.66 481.484 803.374 480.369L802.376 477.063C803.42 476.344 804.252 475.359 804.788 474.211C805.824 472.314 806.613 470.292 807.134 468.195C807.692 465.776 807.971 463.3 807.964 460.818C807.965 458.622 807.853 456.428 807.627 454.244C807.627 453.894 807.069 453.894 806.966 454.244C806.525 455.709 805.669 458.134 804.839 460.727C804.01 463.32 803.05 465.913 802.583 467.832C801.998 469.889 801.565 471.986 801.287 474.107C800.457 471.968 799.614 469.815 798.616 467.741C799.58 466.898 800.304 465.816 800.716 464.603C801.494 462.601 802.046 460.518 802.363 458.393C802.624 455.945 802.624 453.477 802.363 451.029C802.144 448.853 801.815 446.689 801.378 444.546C801.3 444.209 800.794 444.261 800.716 444.611C800.431 446.102 799.822 448.63 799.251 451.198C798.681 453.765 798.033 456.448 797.747 458.484C797.423 460.591 797.237 462.718 797.19 464.85L795.595 461.79L793.845 458.821C794.715 457.888 795.316 456.737 795.582 455.489C796.157 453.42 796.496 451.294 796.594 449.149C796.606 446.691 796.376 444.237 795.906 441.824C795.323 439.231 794.61 436.871 794.13 435.341C794.026 435.004 793.508 435.108 793.482 435.458C793.326 437.027 793.067 439.594 792.795 442.278C792.523 444.961 792.095 447.658 792.043 449.681C791.939 451.811 791.974 453.946 792.147 456.072L790.241 453.194L788.218 450.484C788.991 449.459 789.479 448.246 789.631 446.971C789.982 444.829 790.077 442.653 789.917 440.488C789.643 437.985 789.078 435.522 788.231 433.15C787.438 431.015 786.529 428.924 785.508 426.888C785.465 426.826 785.402 426.78 785.33 426.757C785.257 426.734 785.18 426.735 785.108 426.76C785.036 426.784 784.975 426.832 784.932 426.895C784.89 426.958 784.869 427.033 784.873 427.108C785.003 428.703 785.094 431.348 785.197 434.006C785.301 436.664 785.197 439.516 785.444 441.526C785.585 443.667 785.858 445.797 786.26 447.904C784.782 446.128 783.343 444.339 781.697 442.718C782.331 441.605 782.658 440.343 782.643 439.062C782.739 436.908 782.552 434.75 782.086 432.645Z" fill="#92E3A9"/>
<path d="M831.405 378.321C833.311 375.961 835.865 372.746 838.134 369.673C840.403 366.6 842.659 363.787 843.994 362.024C844.318 361.635 844.072 361.116 843.683 361.35C841.984 362.4 839.314 364.254 836.422 366.432C833.646 368.596 831.045 370.976 828.643 373.55C826.384 376.171 824.354 378.982 822.576 381.951L824.339 375.728L825.234 372.616L826.271 369.556C827.749 369.738 832.209 366.03 837.369 361.103C841.803 356.786 848.389 349.149 851.501 346.038C851.838 345.675 851.63 345.13 851.229 345.338C848.592 346.669 846.025 348.136 843.54 349.733C842.036 350.705 840.442 351.729 839.015 352.819C837.589 353.908 836.228 355.036 835.126 356.099C833.746 357.351 832.447 358.689 831.236 360.105C830.082 361.401 829.071 362.698 828.228 363.865C829.395 360.935 830.42 357.94 831.703 355.049C833.113 353.684 834.272 352.082 835.126 350.316C836.63 347.918 838.199 344.728 839.988 341.241C840.766 339.711 841.557 337.909 842.438 336.055L843.735 333.176L845.031 330.285C846.756 326.461 848.428 322.869 849.53 320.73C849.789 320.25 849.362 319.939 848.986 320.354C846.579 323.003 844.323 325.786 842.231 328.69L840.351 331.284L838.601 333.993C837.534 335.645 836.56 337.354 835.683 339.114C834.202 342.043 832.937 345.077 831.898 348.19C831.224 350.101 830.81 352.094 830.666 354.115L829.719 356.332L828.851 358.588L827.101 363.113C827.243 361.7 827.347 360.105 827.386 358.368C827.425 356.63 827.386 354.75 827.464 352.831C827.464 351.211 827.373 349.396 827.243 347.477C827.113 345.558 826.997 343.587 826.867 341.707C826.543 337.818 826.336 334.304 826.167 332.1C826.167 331.595 825.532 331.789 825.402 332.36L824.313 337.014C823.963 338.868 823.587 340.904 823.237 343.03C822.887 345.156 822.679 347.321 822.472 349.37C822.269 351.234 822.186 353.109 822.226 354.984C822.329 362.503 823.794 368.195 825.052 369.077L824.028 372.098C823.717 373.122 823.444 374.146 823.146 375.17L821.396 381.303C821.381 377.866 821.164 374.433 820.748 371.021C820.514 367.832 819.762 363.787 819.14 360.001C818.518 356.215 817.908 352.637 817.558 350.485C817.48 350.005 816.897 350.251 816.806 350.809C816.482 353.324 815.912 357.382 815.665 361.661C815.374 365.668 815.413 369.692 815.782 373.692C816.085 376.888 816.723 380.043 817.688 383.105C818.479 385.516 819.309 387.072 819.983 387.461L819.257 390.56L818.712 393.71L817.623 399.998C817.246 396.579 816.666 393.184 815.886 389.834C815.315 386.67 814.226 382.729 813.163 378.982C812.1 375.235 811.283 371.799 810.7 369.66C810.57 369.167 810.026 369.479 810 370.049C809.701 375.118 809.637 386.554 811.296 393.023C812.813 400.4 815.562 405.69 816.949 406.273C816.352 410.487 816.288 414.753 816.067 419.005C815.756 417.618 815.341 416.075 814.836 414.403C814.589 413.56 814.317 412.704 814.019 411.81C813.721 410.915 813.409 410.02 813.15 409.1C812.23 406.014 810.661 402.202 809.261 398.585C807.86 394.968 806.668 391.597 805.838 389.51C805.656 389.03 805.138 389.393 805.177 389.976C805.267 391.273 805.397 392.919 805.527 394.812C805.656 396.705 805.838 398.793 806.227 400.945C806.616 403.097 806.966 405.275 807.394 407.298C807.601 408.309 807.808 409.294 808.055 410.215C808.301 411.135 808.612 412.004 808.898 412.808C809.939 415.845 811.24 418.786 812.787 421.598C814.084 423.737 815.237 425.086 815.976 425.306C815.976 429.546 815.976 433.798 816.067 438.038C815.071 434.772 813.88 431.568 812.502 428.444C811.88 426.979 811.076 425.358 810.207 423.699L808.911 421.183L807.614 418.59L803.089 409.917C802.856 409.463 802.389 409.917 802.506 410.474C802.973 413.067 803.802 417.138 804.788 421.3C805.819 425.066 807.084 428.763 808.573 432.372C811.517 439.114 814.797 443.924 816.353 444.326C816.482 448.566 816.651 452.792 816.871 457.032C815.764 453.806 814.466 450.65 812.982 447.58C809.838 441.565 806.376 435.723 802.609 430.077C802.337 429.675 801.909 430.077 802.039 430.635C803.232 435.328 806.318 445.843 809.118 451.638C812.294 458.276 815.717 462.97 817.221 463.307C817.493 467.546 817.792 471.773 818.155 476C816.946 472.814 815.552 469.701 813.98 466.678C810.638 460.776 806.981 455.059 803.024 449.551C802.752 449.149 802.324 449.551 802.48 450.121C803.841 454.75 807.238 465.161 810.259 470.865C813.643 477.348 817.221 481.977 818.738 482.275C819.153 486.488 819.607 490.702 820.151 494.903C820.216 495.434 820.566 495.823 820.916 495.771C821.266 495.72 821.5 495.266 821.435 494.734C820.89 490.559 820.436 486.359 820.035 482.171C821.448 481.743 824.093 476.531 826.517 469.647C828.591 463.696 830.873 453.427 831.911 448.967C832.027 448.449 831.573 448.06 831.327 448.449C829.149 451.924 824.352 460.117 822.252 466.107C821.045 469.377 820.117 472.742 819.477 476.168C819.101 471.864 818.79 467.559 818.518 463.203C819.957 462.827 822.77 457.693 825.428 450.899C827.71 445.026 830.303 434.849 831.509 430.427C831.638 429.922 831.198 429.507 830.938 429.896C828.656 433.28 823.561 441.318 821.266 447.23C819.965 450.464 818.929 453.799 818.168 457.2C817.951 452.879 817.774 448.557 817.636 444.235C819.075 443.911 822.057 438.868 824.961 432.178C826.18 429.286 827.554 425.319 828.747 421.533C829.94 417.748 831.249 414.623 831.936 412.6C832.092 412.147 831.664 411.732 831.392 412.069C830.173 413.56 828.19 416.088 826.141 419.044C825.635 419.783 825.117 420.535 824.624 421.313C824.132 422.091 823.678 422.921 823.237 423.724C822.355 425.332 821.552 426.914 820.903 428.366C819.505 431.556 818.361 434.85 817.48 438.219C817.403 433.902 817.351 429.585 817.39 425.254C818.116 425.125 819.27 423.815 820.618 421.728C822.332 419.165 823.899 416.508 825.311 413.767C825.661 413.093 826.011 412.354 826.374 411.589L827.606 409.152C828.436 407.479 829.266 405.716 830.044 403.966C830.822 402.215 831.677 400.595 832.403 399.13L834.231 395.409C834.452 394.968 834.089 394.501 833.765 394.812C832.364 396.109 830.07 398.469 827.671 401.165C825.404 403.844 823.358 406.701 821.552 409.709C821.072 410.522 820.639 411.362 820.255 412.224C819.866 413.067 819.503 413.884 819.179 414.688C818.505 416.308 817.947 417.838 817.506 419.213C817.74 414.908 817.792 410.591 818.388 406.312C819.905 406.183 823.38 401.619 827.464 395.811C830.796 390.715 836.008 382.094 838.367 378.45C838.626 378.036 838.367 377.53 837.965 377.802C836.422 379.021 833.881 381.082 831.21 383.533C828.671 385.971 826.313 388.593 824.157 391.377C822.194 394.225 820.459 397.225 818.971 400.348L820.073 393.983L820.631 390.793L821.357 387.643C822.096 387.643 823.509 386.644 825.247 384.933C826.984 383.222 829.084 381.018 831.405 378.321Z" fill="#92E3A9"/>
<path d="M865.257 427.601C869.315 425.864 875.162 422.415 877.677 420.95C877.975 420.781 877.768 420.328 877.418 420.367C875.888 420.496 873.373 420.807 870.689 421.313C868.123 421.773 865.605 422.472 863.169 423.4C860.964 424.289 858.871 425.433 856.933 426.81C858.346 424.438 859.85 422.13 861.354 419.822C862.651 420.483 867.02 419.55 871.83 417.942C873.891 417.242 876.42 416.075 878.753 415.038C881.087 414.001 883.213 413.067 884.471 412.445C884.769 412.328 884.588 411.874 884.25 411.861C882.031 411.795 879.809 411.873 877.599 412.095C874.987 412.317 872.405 412.817 869.898 413.586C867.627 414.325 865.451 415.331 863.416 416.581C864.582 414.934 865.736 413.275 866.942 411.654C868.446 411.434 871.454 408.517 874.617 404.77C875.318 403.927 876.082 402.954 876.834 401.878L879.181 398.637C880.488 396.798 881.895 395.033 883.395 393.347C883.443 393.289 883.472 393.217 883.476 393.141C883.479 393.065 883.459 392.99 883.416 392.927C883.374 392.864 883.312 392.817 883.24 392.792C883.169 392.767 883.091 392.767 883.019 392.79C880.873 393.76 878.831 394.946 876.925 396.329C875.771 397.133 874.682 398.067 873.632 398.922C872.686 399.774 871.794 400.683 870.961 401.645C867.889 405.275 866.125 408.944 866.06 410.63C864.764 412.276 863.649 413.975 862.456 415.66C862.894 413.331 863.167 410.975 863.273 408.607C863.377 406.299 863.273 403.305 863.169 400.4C863.066 397.496 862.988 394.722 862.988 393.01C862.984 392.927 862.951 392.848 862.894 392.787C862.837 392.726 862.76 392.687 862.677 392.678C862.595 392.668 862.511 392.689 862.442 392.736C862.373 392.782 862.323 392.852 862.301 392.932C861.375 395.279 860.587 397.677 859.941 400.115C859.184 402.786 858.702 405.527 858.502 408.296C858.243 413.599 859.137 417.955 860.2 419.005C858.722 421.287 857.231 423.556 855.844 425.89C856.129 423.541 856.251 421.176 856.207 418.811C856.142 416.516 855.857 413.56 855.481 410.708C855.105 407.855 854.768 405.146 854.56 403.499C854.56 403.41 854.525 403.324 854.462 403.261C854.399 403.197 854.313 403.162 854.223 403.162C854.134 403.162 854.048 403.197 853.985 403.261C853.922 403.324 853.886 403.41 853.886 403.499C852.953 406.779 851.293 414.182 851.436 418.811C851.54 424.101 852.616 428.379 853.77 429.377C852.382 431.711 851.06 434.084 849.75 436.469C849.934 434.113 849.934 431.746 849.75 429.39C849.413 424.852 847.806 417.553 847.157 414.299C847.137 414.225 847.093 414.161 847.032 414.114C846.971 414.068 846.897 414.043 846.82 414.043C846.744 414.043 846.67 414.068 846.609 414.114C846.548 414.161 846.504 414.225 846.483 414.299C845.381 419.322 844.868 424.456 844.953 429.598C845.329 434.849 846.613 439.075 847.793 439.97C846.496 442.368 845.316 444.806 844.098 447.23C844.191 444.866 844.087 442.498 843.786 440.151C842.957 435.13 841.858 430.157 840.493 425.254C840.473 425.181 840.429 425.116 840.368 425.07C840.307 425.024 840.233 424.999 840.156 424.999C840.08 424.999 840.006 425.024 839.945 425.07C839.884 425.116 839.84 425.181 839.819 425.254C839.573 426.888 839.236 429.572 839.028 432.411C838.793 435.116 838.793 437.836 839.028 440.54C839.625 445.726 841.09 449.94 842.321 450.822C841.129 453.272 840.066 455.774 838.964 458.251C838.938 455.886 838.721 453.527 838.315 451.198C837.838 448.535 837.206 445.903 836.422 443.315C835.657 440.592 834.854 438.025 834.361 436.456C834.34 436.38 834.292 436.313 834.227 436.268C834.161 436.223 834.082 436.202 834.003 436.21C833.924 436.218 833.85 436.253 833.795 436.31C833.739 436.367 833.705 436.442 833.7 436.521C833.363 439.788 832.831 447.269 833.609 451.846C834.426 457.032 836.202 461.181 837.421 461.984C836.409 464.5 835.411 467.041 834.516 469.608C834.329 467.243 833.974 464.895 833.453 462.581C832.817 459.949 832.042 457.352 831.133 454.802C830.251 452.105 829.33 449.616 828.773 447.995C828.744 447.922 828.69 447.86 828.622 447.821C828.553 447.782 828.473 447.767 828.395 447.779C828.316 447.791 828.245 447.829 828.191 447.887C828.137 447.945 828.105 448.02 828.099 448.099C827.904 451.431 827.736 458.99 828.786 463.527C829.914 468.713 831.885 472.707 833.207 473.433C832.338 476.026 831.586 478.619 830.86 481.212C830.491 478.867 829.967 476.55 829.292 474.275C827.995 469.893 824.974 462.983 823.73 459.91C823.694 459.841 823.638 459.786 823.568 459.753C823.498 459.72 823.42 459.711 823.344 459.727C823.269 459.744 823.201 459.784 823.151 459.843C823.101 459.902 823.072 459.976 823.068 460.053C823.003 463.398 823.328 471.06 824.689 475.611C826.193 480.797 828.488 484.596 829.875 485.192C829.236 487.846 828.747 490.534 828.41 493.243C828.391 493.415 828.441 493.588 828.549 493.723C828.658 493.857 828.815 493.944 828.987 493.963C829.159 493.982 829.331 493.932 829.466 493.823C829.601 493.715 829.688 493.558 829.706 493.386C830.047 490.73 830.527 488.095 831.146 485.49C832.598 485.633 836.332 483.312 840.351 480.304C843.748 477.62 848.441 472.784 850.567 470.736C850.801 470.502 850.489 470.114 850.152 470.23C845.57 471.893 841.215 474.123 837.187 476.868C835.256 478.299 833.514 479.967 832.001 481.834C832.727 479.176 833.492 476.531 834.374 473.912C835.8 474.185 839.767 472.188 843.994 469.375C847.778 466.544 851.409 463.515 854.872 460.299C855.118 460.079 854.872 459.664 854.483 459.767C853.018 460.247 850.593 461.064 848 462.114C845.578 463.087 843.247 464.276 841.038 465.667C839.032 466.971 837.191 468.512 835.554 470.256C836.461 467.663 837.46 465.07 838.484 462.477C839.923 462.853 843.981 461.116 848.389 458.523C852.358 455.896 856.164 453.029 859.785 449.94C860.058 449.72 859.785 449.292 859.435 449.395C857.944 449.81 855.481 450.549 852.888 451.47C850.413 452.331 848.015 453.398 845.718 454.659C843.649 455.872 841.715 457.302 839.949 458.925C841.064 456.409 842.153 453.868 843.359 451.392C844.759 451.833 848.921 450.342 853.458 447.917C855.699 446.653 857.863 445.259 859.941 443.743C862.119 442.213 864.09 440.735 865.283 439.853C865.568 439.659 865.283 439.218 864.958 439.296C860.153 440.319 855.477 441.88 851.021 443.95C848.965 445.122 847.036 446.503 845.265 448.073C846.561 445.61 847.728 443.133 849.037 440.696C850.399 441.214 854.651 439.892 859.267 437.675C863.441 435.412 867.492 432.928 871.402 430.233C871.674 430.039 871.402 429.598 871.091 429.65C866.251 430.38 861.515 431.686 856.985 433.539C854.802 434.543 852.741 435.791 850.839 437.26C852.136 434.836 853.51 432.424 854.924 430.051C856.233 430.674 860.55 429.559 865.257 427.601Z" fill="#92E3A9"/>
<path d="M809.131 568.454H827.114C841.375 562.204 851.825 541.512 851.825 516.917C851.891 507.309 850.181 497.771 846.782 488.783H789.515C786.092 497.788 784.373 507.35 784.446 516.982C784.433 541.512 794.895 562.204 809.131 568.454Z" fill="#263238"/>
<path d="M453.719 130.04C478.995 130.04 499.486 109.549 499.486 84.273C499.486 58.9967 478.995 38.5063 453.719 38.5063C428.443 38.5063 407.952 58.9967 407.952 84.273C407.952 109.549 428.443 130.04 453.719 130.04Z" fill="#263238" stroke="#263238" stroke-miterlimit="10"/>
<path d="M453.718 124.854C476.13 124.854 494.299 106.685 494.299 84.273C494.299 61.8609 476.13 43.6923 453.718 43.6923C431.306 43.6923 413.138 61.8609 413.138 84.273C413.138 106.685 431.306 124.854 453.718 124.854Z" fill="white" stroke="#263238" stroke-miterlimit="10"/>
<path d="M453.719 88.5515C456.082 88.5515 457.997 86.6359 457.997 84.273C457.997 81.91 456.082 79.9945 453.719 79.9945C451.356 79.9945 449.44 81.91 449.44 84.273C449.44 86.6359 451.356 88.5515 453.719 88.5515Z" fill="#263238" stroke="#263238" stroke-miterlimit="10"/>
<path d="M473.685 84.273H453.719L466.917 52.7549" stroke="#263238" stroke-miterlimit="10" stroke-linecap="round"/>
<path d="M12.9072 568.454H872.492" stroke="#263238" stroke-miterlimit="10" stroke-linecap="round"/>
<path d="M830.873 414.234L826.115 445.791L832.169 564.629" stroke="#263238" stroke-width="4" stroke-miterlimit="10" stroke-linecap="round"/>
<path d="M772.129 414.234L767.383 445.791L773.425 564.629" stroke="#263238" stroke-width="4" stroke-miterlimit="10" stroke-linecap="round"/>
<path d="M749.193 444.495L743.566 565.925" stroke="#263238" stroke-width="4" stroke-miterlimit="10" stroke-linecap="round"/>
<path d="M697.333 444.495L691.706 565.925" stroke="#263238" stroke-width="4" stroke-miterlimit="10" stroke-linecap="round"/>
<path d="M771.286 421.806H829.628C831.173 421.77 832.655 421.183 833.805 420.151C834.956 419.12 835.7 417.711 835.904 416.179L843.553 349.629C843.657 348.923 843.605 348.202 843.402 347.518C843.199 346.834 842.848 346.202 842.375 345.668C841.902 345.133 841.318 344.708 840.664 344.423C840.01 344.137 839.301 343.998 838.587 344.015H780.244C778.704 344.054 777.227 344.64 776.079 345.669C774.932 346.698 774.188 348.102 773.982 349.629L766.32 416.179C766.214 416.886 766.264 417.608 766.466 418.294C766.669 418.98 767.019 419.613 767.492 420.149C767.965 420.685 768.55 421.111 769.205 421.398C769.861 421.684 770.571 421.823 771.286 421.806Z" fill="#92E3A9" stroke="#263238" stroke-miterlimit="10" stroke-linecap="round"/>
<path d="M694.87 447.943H825.817C827.106 447.943 828.343 447.431 829.255 446.519C830.167 445.607 830.679 444.371 830.679 443.081C830.679 441.792 830.167 440.555 829.255 439.644C828.343 438.732 827.106 438.219 825.817 438.219H694.87C693.58 438.219 692.344 438.732 691.432 439.644C690.52 440.555 690.008 441.792 690.008 443.081C690.008 444.371 690.52 445.607 691.432 446.519C692.344 447.431 693.58 447.943 694.87 447.943Z" fill="#92E3A9" stroke="#263238" stroke-miterlimit="10" stroke-linecap="round"/>
<path d="M750.243 294.93C750.243 294.93 745.226 298.275 741.557 307.895C737.888 317.515 730.549 369.971 730.549 372.979C730.549 375.987 738.225 377.647 741.233 374.652C744.24 371.657 751.605 346.608 751.605 346.608L754.6 296.213C754.6 296.213 753.575 293.931 750.243 294.93Z" fill="white" stroke="#263238" stroke-miterlimit="10" stroke-linecap="round"/>
<path d="M750.244 294.93C750.244 294.93 745.226 298.275 741.557 307.895C740.455 310.799 738.964 317.554 737.564 325.657L752.266 334.914L754.574 296.213C754.574 296.213 753.576 293.931 750.244 294.93Z" fill="white" stroke="#263238" stroke-miterlimit="10" stroke-linecap="round"/>
<path d="M775.252 287.591C775.252 287.591 759.565 291.26 753.212 293.257C746.859 295.254 747.87 301.944 745.537 311.953C743.203 321.962 739.871 333.319 741.867 338.985C743.864 344.651 750.217 354.673 750.541 356.008C750.865 357.343 740.869 394.722 740.869 394.722C740.869 394.722 678.118 425.099 676.783 431.102C675.447 437.104 666.411 543.003 666.411 543.003C668.213 546.037 681.1 556.759 679.959 553.297C679.635 552.299 685.145 515.556 691.42 499.194C697.695 482.832 703.439 462.477 706.097 452.805C708.755 443.133 709.52 440.812 709.52 440.812L785.287 441.811C785.287 441.811 810.31 445.156 813.318 424.126C816.326 403.097 809.986 395.085 807.315 390.417C804.644 385.75 795.296 354.037 795.296 354.037C795.296 354.037 807.652 329.002 809.312 320.652C810.971 312.303 812.981 302.294 808.65 297.963C804.32 293.633 787.284 288.278 787.284 288.278L775.252 287.591Z" fill="#263238" stroke="#263238" stroke-miterlimit="10" stroke-linecap="round"/>
<path d="M806.123 387.721C802.584 378.71 795.297 354.011 795.297 354.011C795.297 354.011 807.653 328.976 809.313 320.626C810.972 312.277 812.982 302.268 808.651 297.937C804.321 293.607 787.285 288.252 787.285 288.252L775.266 287.591C775.266 287.591 759.579 291.26 753.226 293.257C746.873 295.254 747.884 301.944 745.55 311.953C743.217 321.962 739.885 333.319 741.881 338.985C743.878 344.651 750.231 354.673 750.555 356.008C750.801 356.98 745.628 376.83 742.776 387.721H806.123Z" fill="white" stroke="#263238" stroke-miterlimit="10" stroke-linecap="round"/>
<path d="M666.489 543.003C666.489 543.003 655.559 553.025 654.444 553.479C653.329 553.933 630.044 559.689 631.691 561.388C633.337 563.086 678.443 571.008 678.443 571.008L680.038 553.284L666.489 543.003Z" fill="white" stroke="#263238" stroke-miterlimit="10" stroke-linecap="round"/>
<path d="M795.997 322.636L801.015 363.346L761.627 406.74L748.273 413.754L746.276 419.42C746.276 419.42 759.955 416.425 763.3 414.416C766.335 412.384 769.233 410.154 771.973 407.739L816.327 375.987C816.327 375.987 815.989 315.907 815.652 308.569C815.315 301.231 805.28 295.215 801.3 295.215" fill="white"/>
<path d="M795.997 322.636L801.015 363.346L761.627 406.74L748.273 413.754L746.276 419.42C746.276 419.42 759.955 416.425 763.3 414.416C766.335 412.384 769.233 410.154 771.973 407.739L816.327 375.987C816.327 375.987 815.989 315.907 815.652 308.569C815.315 301.231 805.28 295.215 801.3 295.215" stroke="#263238" stroke-miterlimit="10" stroke-linecap="round"/>
<path d="M800.976 363.346L761.588 406.74L748.234 413.754L746.237 419.42C746.237 419.42 759.915 416.425 763.26 414.416C766.296 412.384 769.194 410.154 771.934 407.739L816.326 375.987C816.326 375.987 816.171 348.981 815.976 328.976L797.41 334.356L800.976 363.346Z" fill="white" stroke="#263238" stroke-miterlimit="10" stroke-linecap="round"/>
<path d="M731.548 364.319C731.548 364.319 730.251 375.002 730.549 377.66C730.848 380.317 745.9 408.711 746.237 410.37C746.574 412.03 754.911 417.385 755.585 418.383C756.259 419.381 765.257 421.728 765.257 421.728C765.257 421.728 767.591 417.722 765.594 414.053C763.597 410.383 751.242 406.701 751.242 406.701L744.228 370.321V364.98" fill="white"/>
<path d="M731.548 364.319C731.548 364.319 730.251 375.002 730.549 377.66C730.848 380.317 745.9 408.711 746.237 410.37C746.574 412.03 754.911 417.385 755.585 418.383C756.259 419.381 765.257 421.728 765.257 421.728C765.257 421.728 767.591 417.722 765.594 414.053C763.597 410.383 751.242 406.701 751.242 406.701L744.228 370.321V364.98" stroke="#263238" stroke-miterlimit="10" stroke-linecap="round"/>
<path d="M800.976 405.405C800.976 405.405 792.626 402.397 777.937 404.744C763.247 407.09 729.214 427.433 729.875 430.778C730.536 434.122 756.246 545.583 756.246 545.583L771.26 554.27C771.26 554.27 768.667 510.876 768.926 488.148C769.185 465.42 768.926 439.749 768.926 439.749C768.926 439.749 792.626 446.089 803.309 440.748C813.993 435.406 814.654 425.06 813.318 417.048C811.983 409.035 808.975 407.376 808.975 407.376" fill="#263238"/>
<path d="M800.976 405.405C800.976 405.405 792.626 402.397 777.937 404.744C763.247 407.09 729.214 427.433 729.875 430.778C730.536 434.122 756.246 545.583 756.246 545.583L771.26 554.27C771.26 554.27 768.667 510.876 768.926 488.148C769.185 465.42 768.926 439.749 768.926 439.749C768.926 439.749 792.626 446.089 803.309 440.748C813.993 435.406 814.654 425.06 813.318 417.048C811.983 409.035 808.975 407.376 808.975 407.376" stroke="#263238" stroke-miterlimit="10" stroke-linecap="round"/>
<path d="M756.246 545.583C756.246 545.583 747.573 557.602 746.561 558.276C745.55 558.95 723.872 569.283 725.817 570.619C727.762 571.954 773.555 570.619 773.555 570.619L771.545 552.934L756.246 545.583Z" fill="white" stroke="#263238" stroke-miterlimit="10" stroke-linecap="round"/>
<path d="M763.973 240.632C763.973 240.632 756.415 232.762 761.562 226.111C766.709 219.46 782.111 214.326 799.64 221.884C817.169 229.443 817.182 246.972 816.572 257.551C815.963 268.131 810.531 284.155 810.531 284.155C800.746 284.47 790.951 284.167 781.204 283.248C771.995 282.271 763.22 278.827 755.805 273.278C755.805 273.278 762.469 245.157 763.973 240.632Z" fill="#263238" stroke="#263238" stroke-miterlimit="10" stroke-linecap="round"/>
<path d="M772.142 278.412C772.142 278.412 771.532 285.672 770.625 290.197C769.717 294.722 769.108 310.15 770.326 311.369C771.545 312.588 777.885 309.243 782.721 301.995C785.469 298.093 787.421 293.688 788.465 289.03L791.485 277.842C791.485 277.842 778.183 281.433 772.142 278.412Z" fill="white" stroke="#263238" stroke-miterlimit="10" stroke-linecap="round"/>
<path d="M791.161 278.995L789.074 278.386C784.951 279.268 776.588 280.642 772.141 278.386C772.141 278.386 771.778 282.729 771.195 286.787C773.537 286.992 775.896 286.7 778.118 285.932C782.76 284.591 787.125 282.431 791.005 279.553L791.161 278.995Z" fill="#263238" stroke="#263238" stroke-miterlimit="10" stroke-linecap="round"/>
<path d="M766.398 242.447C766.398 242.447 762.314 260.598 764.116 267.547C765.918 274.497 768.628 283.935 777.703 283.935C786.779 283.935 795.349 276.519 797.151 271.385C798.953 266.251 801.183 250.304 801.183 250.304C801.183 250.304 777.846 253.325 766.398 242.447Z" fill="white" stroke="#263238" stroke-miterlimit="10" stroke-linecap="round"/>
<path d="M782.773 257.888C782.773 257.888 784.458 255.373 790.552 257.383" stroke="#263238" stroke-miterlimit="10" stroke-linecap="round"/>
<path d="M772.556 254.867C772.556 254.867 770.975 250.226 767.176 250.226" stroke="#263238" stroke-miterlimit="10" stroke-linecap="round"/>
<path d="M770.222 252.417C770.222 253.467 769.795 253.597 769.302 253.545C768.809 253.493 768.446 253.273 768.446 252.248C768.446 251.224 768.835 250.394 769.328 250.446C769.821 250.498 770.222 251.367 770.222 252.417Z" fill="#263238"/>
<path d="M785.742 258.005C785.547 259.081 785.223 259.107 784.717 259.107C784.212 259.107 783.719 259.107 783.914 258.005C784.108 256.903 784.691 256.034 785.21 256.034C785.729 256.034 785.949 256.955 785.742 258.005Z" fill="#263238"/>
<path d="M774.851 254.115C774.914 255.544 774.648 256.968 774.074 258.277C773.153 259.963 770.301 262.296 770.949 263.204C771.353 264.004 771.995 264.658 772.787 265.076C773.579 265.494 774.482 265.655 775.37 265.538" stroke="#263238" stroke-miterlimit="10" stroke-linecap="round"/>
<path d="M770.171 268.377C770.171 268.377 773.671 270.97 780.037 269.803" stroke="#263238" stroke-miterlimit="10" stroke-linecap="round"/>
<path d="M767.474 247.088C768.551 246.627 769.752 246.544 770.882 246.852C772.012 247.161 773.004 247.842 773.697 248.787" stroke="#263238" stroke-miterlimit="10" stroke-linecap="round"/>
<path d="M781.982 251.639C781.982 251.639 787.051 248.787 792.25 253.584" stroke="#263238" stroke-miterlimit="10" stroke-linecap="round"/>
<path d="M514.085 566.522L518.869 441.927" stroke="#263238" stroke-width="4" stroke-miterlimit="10" stroke-linecap="round"/>
<path d="M521.669 566.522L528.061 409.567" stroke="#263238" stroke-width="4" stroke-miterlimit="10" stroke-linecap="round"/>
<path d="M610.324 566.522L603.531 411.174" stroke="#263238" stroke-width="4" stroke-miterlimit="10" stroke-linecap="round"/>
<path d="M617.118 566.522L612.321 441.927" stroke="#263238" stroke-width="4" stroke-miterlimit="10" stroke-linecap="round"/>
<path d="M602.157 346.167H528.256C525.033 346.167 522.421 348.78 522.421 352.002V417.475C522.421 420.698 525.033 423.31 528.256 423.31H602.157C605.379 423.31 607.991 420.698 607.991 417.475V352.002C607.991 348.78 605.379 346.167 602.157 346.167Z" fill="#92E3A9" stroke="#263238" stroke-miterlimit="10" stroke-linecap="round"/>
<path d="M617.546 447.943H516.963C515.674 447.943 514.437 447.431 513.525 446.519C512.613 445.607 512.101 444.371 512.101 443.081C512.101 441.792 512.613 440.555 513.525 439.644C514.437 438.732 515.674 438.219 516.963 438.219H617.546C618.835 438.219 620.072 438.732 620.984 439.644C621.896 440.555 622.408 441.792 622.408 443.081C622.408 444.371 621.896 445.607 620.984 446.519C620.072 447.431 618.835 447.943 617.546 447.943Z" fill="#92E3A9" stroke="#263238" stroke-miterlimit="10" stroke-linecap="round"/>
<path d="M529.694 391.545C529.694 391.545 523.212 403.512 520.8 407.622C518.389 411.732 516.003 427.069 519.089 431.568C522.175 436.067 524.56 437.727 527.296 438.751C530.032 439.775 601.534 438.751 601.534 438.751C601.534 438.751 609.404 427.809 610.091 422.674C610.778 417.54 608.717 405.223 606.668 401.126C604.62 397.029 598.798 390.171 598.798 390.171L529.694 391.545Z" fill="white" stroke="#263238" stroke-miterlimit="10" stroke-linecap="round"/>
<path d="M628.904 335.795L656.96 294.735C656.96 294.735 659.346 284.143 659.696 281.057C660.046 277.971 661.744 276.273 664.143 274.574C666.629 272.894 668.921 270.941 670.975 268.753C672.35 267.042 673.374 269.103 672.687 271.489C672 273.874 669.614 274.911 668.59 275.599C667.565 276.286 666.878 279.021 666.878 279.021C666.878 279.021 678.845 274.574 681.244 273.2C683.642 271.826 688.763 264.306 689.113 268.014C689.463 271.722 684.666 283.416 683.642 284.104C682.618 284.791 664.48 297.782 664.48 297.782C664.48 297.782 644.643 350.809 642.582 355.256C640.52 359.703 637.798 363.126 636.773 363.126C635.749 363.126 615.562 350.161 615.562 350.161L628.528 334.421L628.904 335.795Z" fill="white" stroke="#263238" stroke-miterlimit="10" stroke-linecap="round"/>
<path d="M495.208 335.795L467.151 294.735C467.151 294.735 464.766 284.143 464.416 281.057C464.066 277.971 462.367 276.273 459.969 274.574C457.478 272.894 455.182 270.941 453.123 268.753C451.762 267.042 450.738 269.103 451.425 271.489C452.112 273.874 454.497 274.911 455.522 275.599C456.546 276.286 457.233 279.021 457.233 279.021C457.233 279.021 445.266 274.574 442.868 273.2C440.469 271.826 435.335 264.306 434.998 268.014C434.661 271.722 439.445 283.416 440.469 284.104C441.493 284.791 459.632 297.782 459.632 297.782C459.632 297.782 479.468 350.809 481.517 355.256C483.565 359.703 486.314 363.126 487.338 363.126C488.362 363.126 508.549 350.161 508.549 350.161L495.584 334.421L495.208 335.795Z" fill="white" stroke="#263238" stroke-miterlimit="10" stroke-linecap="round"/>
<path d="M552.254 289.886L522.149 298.093L495.208 334.706L507.525 357.279L526.674 340.865L531.121 383.273L528.049 394.942C528.049 394.942 527.024 395.966 546.2 399.726C565.375 403.486 570.833 402.125 580.414 400.75C589.996 399.376 602.312 394.942 602.312 394.942L598.89 380.227L604.698 343.276L620.101 360.04L630.706 333.695L608.471 298.119L575.28 289.912L552.254 289.886Z" fill="#263238" stroke="#263238" stroke-miterlimit="10" stroke-linecap="round"/>
<path d="M544.708 247.698C544.708 247.698 540.819 241.889 538.796 247.801C536.774 253.714 545.37 260.974 545.37 260.974L545.953 248.592" fill="white"/>
<path d="M544.708 247.698C544.708 247.698 540.819 241.889 538.796 247.801C536.774 253.714 545.37 260.974 545.37 260.974L545.953 248.592" stroke="#263238" stroke-miterlimit="10" stroke-linecap="round"/>
<path d="M555.002 285.102L551.93 287.825L547.82 294.657L548.857 318.954L567.669 306.3L584.083 318.941C584.083 318.941 581.698 291.234 581.698 289.523C581.698 287.812 577.925 285.076 575.539 283.702C573.154 282.327 555.002 285.102 555.002 285.102Z" fill="white" stroke="#263238" stroke-miterlimit="10" stroke-linecap="round"/>
<path d="M553.978 281.342C553.978 281.342 554.328 290.236 554.665 291.948C555.002 293.659 567.63 311.395 567.63 311.395L576.524 290.534L577.211 270.348L553.978 281.342Z" fill="white" stroke="#263238" stroke-miterlimit="10" stroke-linecap="round"/>
<path d="M554.367 288.875C556.122 289.081 557.9 288.976 559.618 288.564C568.499 286.554 573.361 278.256 573.361 278.256L562.833 277.167L553.978 281.342C553.978 281.342 554.147 285.672 554.367 288.875Z" fill="#263238" stroke="#263238" stroke-miterlimit="10" stroke-linecap="round"/>
<path d="M543.555 237.481C543.555 237.481 544.773 269.181 545.642 272.487C546.511 275.793 553.421 286.541 561.2 285.698C568.979 284.856 576.888 278.749 577.653 273.693C578.418 268.636 580.466 253.714 581.763 247.685C583.059 241.656 588.245 235.199 577.056 229.274C565.868 223.349 543.697 227.796 543.555 237.481Z" fill="white" stroke="#263238" stroke-miterlimit="10" stroke-linecap="round"/>
<path d="M551.346 253.804C551.269 255.101 550.607 256.203 549.843 256.164C549.078 256.125 548.546 254.997 548.611 253.662C548.676 252.326 549.363 251.263 550.128 251.302C550.893 251.341 551.424 252.469 551.346 253.804Z" fill="#263238"/>
<path d="M564.065 256.708C563.987 258.005 563.313 259.107 562.561 259.055C561.809 259.003 561.265 257.888 561.329 256.553C561.394 255.217 562.081 254.154 562.833 254.193C563.585 254.232 564.143 255.308 564.065 256.708Z" fill="#263238"/>
<path d="M554.186 251.276C553.904 254.233 553.436 257.169 552.785 260.066C551.969 263.048 549.103 263.645 550.867 265.654C552.63 267.664 555.78 267.469 558.983 266.951" stroke="#263238" stroke-miterlimit="10" stroke-linecap="round"/>
<path d="M550.569 269.751C550.569 269.751 554.873 273.213 563.845 271.165" stroke="#263238" stroke-miterlimit="10" stroke-linecap="round"/>
<path d="M547.405 248.126C547.405 248.126 551.554 246.012 552.864 248.644" stroke="#263238" stroke-miterlimit="10" stroke-linecap="round"/>
<path d="M559.566 250.057C559.566 250.057 564.675 248.437 568.642 253.947" stroke="#263238" stroke-miterlimit="10" stroke-linecap="round"/>
<path d="M575.423 241.825C575.423 241.825 558.348 244.664 550.296 243.043C542.245 241.423 535.036 234.396 538.757 228.406C542.478 222.416 563.91 216.102 572.35 217.437C580.79 218.773 589.036 221.469 589.386 230.182C589.736 238.894 586.054 255.632 586.054 255.632L583.37 257.279C583.37 257.279 579.714 251.86 578.029 251.587C576.343 251.315 571.313 248.1 575.423 241.825Z" fill="#263238" stroke="#263238" stroke-miterlimit="10" stroke-linecap="round"/>
<path d="M578.975 256.592C578.975 256.592 586.754 249.163 589.062 251.95C591.369 254.738 588.751 262.633 584.005 266.393C579.26 270.153 577.367 266.73 577.367 266.73" fill="white"/>
<path d="M578.975 256.592C578.975 256.592 586.754 249.163 589.062 251.95C591.369 254.738 588.751 262.633 584.005 266.393C579.26 270.153 577.367 266.73 577.367 266.73" stroke="#263238" stroke-miterlimit="10" stroke-linecap="round"/>
<path d="M564.091 546.128C564.091 546.128 553.2 418.487 548.364 409.411C543.528 400.336 530.667 396.135 518.765 406.066C506.863 415.997 514.448 434.058 517.015 447.217C519.582 460.377 538.835 538.79 538.835 538.79L564.091 546.128Z" fill="white" stroke="#263238" stroke-miterlimit="10" stroke-linecap="round"/>
<path d="M538.835 538.79L534.855 549.719C534.855 549.719 518.545 562.684 519.193 564.72C519.303 565.031 519.381 565.352 519.427 565.679C519.52 566.416 519.875 567.096 520.427 567.593C520.979 568.09 521.691 568.373 522.434 568.389H568.162C568.533 564.508 568.533 560.601 568.162 556.72C567.501 552.053 564.273 545.596 564.273 545.596L538.835 538.79Z" fill="#263238" stroke="#263238" stroke-miterlimit="10" stroke-linecap="round"/>
<path d="M568.435 564.058H519.349C519.217 564.252 519.162 564.488 519.193 564.72C519.303 565.031 519.381 565.352 519.427 565.679C519.52 566.416 519.875 567.096 520.427 567.593C520.979 568.09 521.692 568.373 522.435 568.389H568.162C568.162 568.389 568.357 566.574 568.435 564.058Z" fill="white" stroke="#263238" stroke-miterlimit="10" stroke-linecap="round"/>
<path d="M575.085 546.763C575.085 546.763 579.144 418.876 583.578 409.606C588.012 400.336 600.691 395.577 613.008 404.977C625.325 414.377 618.531 432.761 616.535 446.011C614.538 459.262 600.225 539.347 600.225 539.347L575.085 546.763Z" fill="white" stroke="#263238" stroke-miterlimit="10" stroke-linecap="round"/>
<path d="M600.225 539.347L604.114 549.719C604.114 549.719 620.437 562.684 619.776 564.72C619.672 565.033 619.594 565.353 619.543 565.679C619.449 566.419 619.092 567.1 618.538 567.597C617.983 568.095 617.267 568.376 616.522 568.389H570.781C570.411 564.508 570.411 560.601 570.781 556.72C571.442 552.053 574.671 545.596 574.671 545.596L600.225 539.347Z" fill="#263238" stroke="#263238" stroke-miterlimit="10" stroke-linecap="round"/>
<path d="M570.522 564.058H619.673C619.804 564.252 619.86 564.488 619.828 564.72C619.724 565.033 619.646 565.353 619.595 565.679C619.501 566.419 619.144 567.1 618.59 567.597C618.035 568.095 617.319 568.376 616.574 568.389H570.781C570.781 568.389 570.6 566.574 570.522 564.058Z" fill="white" stroke="#263238" stroke-miterlimit="10" stroke-linecap="round"/>
<path d="M508.004 172.047H446.109C443.582 172.047 441.158 173.051 439.371 174.838C437.584 176.625 436.58 179.049 436.58 181.576V214.689C436.58 217.216 437.584 219.64 439.371 221.427C441.158 223.214 443.582 224.218 446.109 224.218H486.417L513.359 243.251L505.58 224.218H507.952C510.48 224.218 512.903 223.214 514.691 221.427C516.478 219.64 517.482 217.216 517.482 214.689V181.576C517.482 179.057 516.485 176.641 514.709 174.856C512.933 173.07 510.523 172.06 508.004 172.047Z" fill="#92E3A9" stroke="#263238" stroke-miterlimit="10"/>
<path d="M462.16 197.717C462.175 198.38 461.992 199.031 461.634 199.589C461.276 200.146 460.759 200.583 460.15 200.845C459.542 201.106 458.868 201.179 458.218 201.054C457.567 200.93 456.969 200.614 456.499 200.146C456.03 199.679 455.711 199.081 455.584 198.431C455.457 197.781 455.527 197.108 455.786 196.498C456.045 195.888 456.48 195.37 457.036 195.009C457.592 194.649 458.243 194.463 458.905 194.476C459.761 194.493 460.577 194.839 461.184 195.443C461.79 196.047 462.14 196.862 462.16 197.717Z" fill="#263238"/>
<path d="M480.363 197.717C480.376 198.374 480.193 199.019 479.838 199.571C479.482 200.124 478.971 200.557 478.368 200.818C477.765 201.078 477.098 201.153 476.453 201.032C475.807 200.912 475.212 200.603 474.743 200.143C474.274 199.683 473.953 199.094 473.82 198.451C473.687 197.808 473.749 197.14 473.997 196.532C474.245 195.925 474.669 195.404 475.214 195.038C475.759 194.672 476.4 194.476 477.057 194.476C477.922 194.479 478.751 194.82 479.368 195.425C479.986 196.03 480.343 196.853 480.363 197.717Z" fill="#263238"/>
<path d="M498.579 197.717C498.582 198.375 498.389 199.018 498.025 199.566C497.661 200.114 497.143 200.541 496.536 200.794C495.929 201.047 495.261 201.114 494.616 200.986C493.971 200.859 493.378 200.542 492.913 200.077C492.448 199.612 492.132 199.02 492.004 198.375C491.876 197.73 491.943 197.061 492.196 196.454C492.449 195.847 492.876 195.329 493.424 194.965C493.972 194.602 494.615 194.409 495.273 194.411C496.149 194.415 496.988 194.764 497.607 195.383C498.226 196.003 498.576 196.842 498.579 197.717Z" fill="#263238"/>
<path d="M322.02 566.522L326.804 441.927" stroke="#263238" stroke-width="4" stroke-miterlimit="10" stroke-linecap="round"/>
<path d="M329.604 566.522L335.996 409.567" stroke="#263238" stroke-width="4" stroke-miterlimit="10" stroke-linecap="round"/>
<path d="M418.26 566.522L411.466 411.174" stroke="#263238" stroke-width="4" stroke-miterlimit="10" stroke-linecap="round"/>
<path d="M425.053 566.522L420.256 441.927" stroke="#263238" stroke-width="4" stroke-miterlimit="10" stroke-linecap="round"/>
<path d="M410.092 346.167H336.191C332.969 346.167 330.356 348.78 330.356 352.002V417.475C330.356 420.698 332.969 423.31 336.191 423.31H410.092C413.314 423.31 415.926 420.698 415.926 417.475V352.002C415.926 348.78 413.314 346.167 410.092 346.167Z" fill="#92E3A9" stroke="#263238" stroke-miterlimit="10" stroke-linecap="round"/>
<path d="M425.482 447.943H324.899C323.609 447.943 322.372 447.431 321.461 446.519C320.549 445.607 320.037 444.371 320.037 443.081C320.037 441.792 320.549 440.555 321.461 439.644C322.372 438.732 323.609 438.219 324.899 438.219H425.482C426.771 438.219 428.008 438.732 428.919 439.644C429.831 440.555 430.343 441.792 430.343 443.081C430.343 444.371 429.831 445.607 428.919 446.519C428.008 447.431 426.771 447.943 425.482 447.943Z" fill="#92E3A9" stroke="#263238" stroke-miterlimit="10" stroke-linecap="round"/>
<path d="M354.251 239.854C352.695 237.567 350.628 235.673 348.213 234.323C345.799 232.973 343.103 232.203 340.34 232.075C330.46 231.323 321.099 237.39 316.536 247.011C311.972 256.631 321.605 262.452 321.605 268.533C321.605 274.613 308.938 276.13 304.647 284.233C300.355 292.336 299.577 307.259 316.03 314.857C332.483 322.454 345.655 317.891 353.499 311.317C361.343 304.744 357.804 294.1 355.016 284.739C352.229 275.378 358.815 255.879 360.837 250.809C362.86 245.74 354.251 239.854 354.251 239.854Z" fill="#263238" stroke="#263238" stroke-miterlimit="10" stroke-linecap="round"/>
<path d="M334.739 357.836L326.662 388.304C326.662 388.304 322.124 393.49 316.614 391.869C311.104 390.249 311.752 383.442 312.076 382.146L320.828 347.14L334.739 357.836Z" fill="white" stroke="#263238" stroke-miterlimit="10" stroke-linecap="round"/>
<path d="M360.501 292.687C360.501 292.687 360.177 303.707 358.232 306.948C356.287 310.189 346.887 311.81 341.377 313.107C335.867 314.403 330.033 317.32 326.792 321.858C323.55 326.396 313.178 353.946 313.178 353.946L335.219 365.615L338.136 354.919L346.887 369.829C346.887 369.829 333.922 390.897 329.385 403.862C324.847 416.827 325.171 426.875 332.302 434.654C339.432 442.433 347.536 443.406 355.315 443.73C363.094 444.054 400.044 445.026 408.472 441.785C416.899 438.544 422.085 431.737 421.112 414.882C420.14 398.028 402.637 372.746 401.665 370.477C400.692 368.208 399.72 366.263 399.72 366.263L402.313 352.326L406.527 362.374L426.947 348.436C426.947 348.436 416.899 324.451 411.389 318.617C405.878 312.782 397.775 311.81 391.617 310.838C385.459 309.865 382.865 308.245 380.597 304.679C378.328 301.114 378.652 292.687 378.652 292.687H360.501Z" fill="white" stroke="#263238" stroke-miterlimit="10" stroke-linecap="round"/>
<path d="M378.639 293.905L369.563 292.687H360.488C360.488 292.687 360.488 294.502 360.241 296.848C362.692 298.871 369.096 303.862 372.986 304.316C375.356 304.507 377.74 304.247 380.013 303.551C379.012 300.437 378.548 297.175 378.639 293.905Z" fill="#263238" stroke="#263238" stroke-miterlimit="10" stroke-linecap="round"/>
<path d="M408.471 357.836L416.574 388.304C416.574 388.304 421.112 393.49 426.622 391.869C432.132 390.249 431.484 383.442 431.16 382.146L422.409 347.14L408.471 357.836Z" fill="white" stroke="#263238" stroke-miterlimit="10" stroke-linecap="round"/>
<path d="M421.112 414.882C420.14 398.028 402.637 372.746 401.665 370.477C400.692 368.208 399.72 366.263 399.72 366.263L402.313 352.326L406.527 362.374L426.947 348.436C426.947 348.436 416.899 324.451 411.389 318.617C407.434 314.429 402.145 312.756 397.127 311.784L390.904 336.12H350.712L343.011 312.782L341.312 313.158C335.802 314.455 329.968 317.372 326.727 321.91C323.485 326.448 313.178 353.947 313.178 353.947L335.219 365.615L338.136 354.919L346.887 369.829C346.887 369.829 333.922 390.897 329.385 403.862C324.847 416.827 325.171 426.875 332.302 434.654C339.432 442.433 347.536 443.406 355.315 443.73C363.094 444.054 400.044 445.026 408.472 441.785C416.899 438.544 422.085 431.737 421.112 414.882Z" fill="#263238" stroke="#263238" stroke-miterlimit="10" stroke-linecap="round"/>
<path d="M360.825 530.596C360.825 530.596 345.915 443.406 345.267 434.006C344.619 424.606 351.425 419.096 359.204 417.475C366.983 415.855 373.466 423.958 374.114 429.468C374.659 434.148 374.516 508.866 374.451 529.299C374.45 533.108 374.077 536.907 373.336 540.644C372.714 543.755 372.04 547.23 371.871 548.423C371.547 550.691 371.547 560.091 367.658 565.277C363.768 570.463 357.934 574.029 355.989 567.87C354.044 561.712 355.665 552.636 357.286 547.774C358.906 542.912 360.527 539.023 360.527 539.023L360.825 530.596Z" fill="white" stroke="#263238" stroke-miterlimit="10" stroke-linecap="round"/>
<path d="M371.521 543.885C369.252 549.719 367.632 554.257 362.77 554.581C357.908 554.905 357.259 547.774 357.259 547.774C355.639 552.636 354.018 561.712 355.963 567.87C357.908 574.029 363.742 570.463 367.632 565.277C371.521 560.091 371.521 550.691 371.845 548.423C372.014 547.269 372.688 543.794 373.31 540.644C373.453 539.93 373.57 539.204 373.686 538.491C372.934 540.332 372.169 542.212 371.521 543.885Z" fill="#263238" stroke="#263238" stroke-miterlimit="10" stroke-linecap="round"/>
<path d="M390.035 530.596C390.035 530.596 404.945 443.406 405.593 434.006C406.241 424.606 399.435 419.096 391.656 417.475C383.877 415.855 377.394 423.958 376.746 429.468C376.188 434.148 376.344 508.866 376.396 529.299C376.41 533.109 376.796 536.909 377.55 540.644C378.172 543.755 378.846 547.23 379.015 548.423C379.339 550.691 379.339 560.091 383.228 565.277C387.118 570.463 392.952 574.029 394.897 567.87C396.842 561.712 395.221 552.636 393.6 547.774C391.98 542.912 390.359 539.023 390.359 539.023L390.035 530.596Z" fill="white" stroke="#263238" stroke-miterlimit="10" stroke-linecap="round"/>
<path d="M379.339 543.885C381.608 549.719 383.228 554.257 388.09 554.581C392.952 554.905 393.6 547.774 393.6 547.774C395.221 552.636 396.842 561.712 394.897 567.87C392.952 574.029 387.118 570.463 383.228 565.277C379.339 560.091 379.339 550.691 379.015 548.423C378.846 547.269 378.172 543.794 377.55 540.644C377.407 539.93 377.277 539.204 377.161 538.491C377.926 540.332 378.678 542.212 379.339 543.885Z" fill="#263238" stroke="#263238" stroke-miterlimit="10" stroke-linecap="round"/>
<path d="M422.085 380.201L384.162 407.103C384.162 407.103 378.004 409.696 377.355 410.669C376.707 411.641 372.818 420.717 373.79 422.337C374.762 423.958 376.681 426.914 376.681 426.914C377.732 425.752 378.605 424.441 379.274 423.024C379.598 421.728 385.433 418.487 386.729 415.569C388.026 412.652 390.294 408.763 390.294 408.763C390.294 408.763 419.142 398.067 422.383 395.798C425.624 393.529 431.459 392.232 431.459 385.426" fill="white"/>
<path d="M422.085 380.201L384.162 407.103C384.162 407.103 378.004 409.696 377.355 410.669C376.707 411.641 372.818 420.717 373.79 422.337C374.762 423.958 376.681 426.914 376.681 426.914C377.732 425.752 378.605 424.441 379.274 423.024C379.598 421.728 385.433 418.487 386.729 415.569C388.026 412.652 390.294 408.763 390.294 408.763C390.294 408.763 419.142 398.067 422.383 395.798C425.624 393.529 431.459 392.232 431.459 385.426" stroke="#263238" stroke-miterlimit="10" stroke-linecap="round"/>
<path d="M320.724 379.877L361.305 402.566C361.305 402.566 367.709 404.484 368.461 405.379C369.213 406.274 374.049 414.882 373.245 416.594L370.99 421.507C369.765 420.446 368.703 419.209 367.839 417.838C367.385 416.542 361.227 413.949 359.632 411.226C358.037 408.504 355.354 404.834 355.354 404.834C355.354 404.834 325.534 397.289 322.059 395.383C318.585 393.477 312.66 392.79 311.934 386.035" fill="white"/>
<path d="M320.724 379.877L361.305 402.566C361.305 402.566 367.709 404.484 368.461 405.379C369.213 406.274 374.049 414.882 373.245 416.594L370.99 421.507C369.765 420.446 368.703 419.209 367.839 417.838C367.385 416.542 361.227 413.949 359.632 411.226C358.037 408.504 355.354 404.834 355.354 404.834C355.354 404.834 325.534 397.289 322.059 395.383C318.585 393.477 312.66 392.79 311.934 386.035" stroke="#263238" stroke-miterlimit="10" stroke-linecap="round"/>
<path d="M363.768 237.715C362.847 237.974 361.927 238.22 360.993 238.428C357.593 239.123 354.508 240.901 352.202 243.495C349.895 246.089 348.49 249.36 348.197 252.819C346.9 263.36 348.702 276.921 352.462 285.595C356.222 294.268 369.395 302.449 376.94 299.065C384.486 295.681 388.842 285.841 388.842 274.146C388.842 262.452 389.179 252.573 383.903 245.403C379.002 238.726 370.808 235.77 363.768 237.715Z" fill="white" stroke="#263238" stroke-miterlimit="10" stroke-linecap="round"/>
<path d="M383.903 245.377C379.002 238.726 370.808 235.77 363.768 237.715C362.847 237.974 361.927 238.22 360.993 238.428C357.593 239.123 354.509 240.901 352.202 243.495C349.895 246.089 348.49 249.36 348.197 252.819C347.59 258.671 347.699 264.574 348.521 270.4L348.651 270.322C348.651 270.322 351.788 268.299 351.788 265.136C351.788 261.972 351.347 254.362 357.856 249.863C364.364 245.364 374.71 245.157 378.743 246.272C382.775 247.387 385.031 247.853 387.274 253.688L387.961 255.477C387.409 251.841 386.019 248.384 383.903 245.377Z" fill="#263238" stroke="#263238" stroke-miterlimit="10" stroke-linecap="round"/>
<path d="M352.021 271.878C352.021 271.878 347.082 265.136 344.605 269.401C342.129 273.667 345.28 279.501 347.523 280.849C349.766 282.198 351.788 277.712 351.788 277.712" fill="white"/>
<path d="M352.021 271.878C352.021 271.878 347.082 265.136 344.605 269.401C342.129 273.667 345.28 279.501 347.523 280.849C349.766 282.198 351.788 277.712 351.788 277.712" stroke="#263238" stroke-miterlimit="10" stroke-linecap="round"/>
<path d="M365.596 270.931C366.312 270.931 366.892 269.904 366.892 268.636C366.892 267.369 366.312 266.341 365.596 266.341C364.88 266.341 364.299 267.369 364.299 268.636C364.299 269.904 364.88 270.931 365.596 270.931Z" fill="#263238"/>
<path d="M378.963 269.674C379.679 269.674 380.259 268.646 380.259 267.379C380.259 266.111 379.679 265.084 378.963 265.084C378.246 265.084 377.666 266.111 377.666 267.379C377.666 268.646 378.246 269.674 378.963 269.674Z" fill="#263238"/>
<path d="M374.477 264.241C374.477 264.241 374.918 269.181 375.773 270.724C376.629 272.267 381.167 272.746 379.144 275.21C378.813 275.648 378.397 276.014 377.921 276.287C377.444 276.56 376.917 276.733 376.371 276.796C375.826 276.859 375.273 276.81 374.747 276.654C374.221 276.497 373.732 276.235 373.31 275.884" stroke="#263238" stroke-miterlimit="10" stroke-linecap="round"/>
<path d="M368.409 279.734C370.128 280.648 372.065 281.068 374.008 280.949C375.95 280.83 377.822 280.177 379.417 279.06" stroke="#263238" stroke-miterlimit="10" stroke-linecap="round"/>
<path d="M359.204 263.334C359.204 263.334 363.249 258.627 368.409 261.544" stroke="#263238" stroke-miterlimit="10" stroke-linecap="round"/>
<path d="M374.697 261.091C374.697 261.091 379.417 257.733 382.775 261.544" stroke="#263238" stroke-miterlimit="10" stroke-linecap="round"/>
<path d="M98.6837 414.234L103.429 445.791L97.3872 564.629" stroke="#263238" stroke-width="4" stroke-miterlimit="10" stroke-linecap="round"/>
<path d="M158.92 414.234L163.678 445.791L157.623 564.629" stroke="#263238" stroke-width="4" stroke-miterlimit="10" stroke-linecap="round"/>
<path d="M180.351 444.495L185.977 565.925" stroke="#263238" stroke-width="4" stroke-miterlimit="10" stroke-linecap="round"/>
<path d="M232.211 444.495L237.838 565.925" stroke="#263238" stroke-width="4" stroke-miterlimit="10" stroke-linecap="round"/>
<path d="M158.259 421.806H99.9158C98.3731 421.767 96.8949 421.179 95.747 420.147C94.5992 419.116 93.8569 417.709 93.6537 416.179L85.9913 349.629C85.8873 348.923 85.9387 348.202 86.1421 347.518C86.3455 346.834 86.696 346.202 87.1689 345.668C87.6419 345.133 88.2259 344.708 88.8802 344.423C89.5345 344.137 90.2433 343.998 90.9569 344.015H149.3C150.841 344.054 152.317 344.64 153.465 345.669C154.612 346.698 155.356 348.102 155.562 349.629L163.224 416.179C163.33 416.886 163.281 417.608 163.078 418.294C162.876 418.98 162.525 419.613 162.052 420.149C161.579 420.685 160.994 421.111 160.339 421.398C159.684 421.684 158.974 421.823 158.259 421.806Z" fill="#92E3A9" stroke="#263238" stroke-miterlimit="10" stroke-linecap="round"/>
<path d="M234.7 447.943H103.753C102.464 447.943 101.227 447.431 100.315 446.519C99.4033 445.607 98.8911 444.371 98.8911 443.081C98.8911 441.792 99.4033 440.555 100.315 439.644C101.227 438.732 102.464 438.219 103.753 438.219H234.7C235.99 438.219 237.226 438.732 238.138 439.644C239.05 440.555 239.562 441.792 239.562 443.081C239.562 444.371 239.05 445.607 238.138 446.519C237.226 447.431 235.99 447.943 234.7 447.943Z" fill="#92E3A9" stroke="#263238" stroke-miterlimit="10" stroke-linecap="round"/>
<path d="M162.316 311.81C162.316 311.81 172.04 315.375 173.985 319.913C175.93 324.451 187.935 376.311 187.935 376.311L231.693 385.711L226.831 392.193L175.943 392.842L162.316 311.81Z" fill="white" stroke="#263238" stroke-miterlimit="10" stroke-linecap="round"/>
<path d="M170.796 362.27L183.851 358.951C180.182 343.393 175.178 322.714 173.985 319.913C172.04 315.375 162.316 311.81 162.316 311.81L170.796 362.27Z" fill="#263238" stroke="#263238" stroke-miterlimit="10" stroke-linecap="round"/>
<path d="M119.22 305.327L92.6421 319.913C92.6421 319.913 100.421 378.904 102.69 393.814C104.959 408.724 107.228 419.744 113.71 422.013C120.193 424.282 173.026 411.965 176.591 410.669C180.156 409.372 178.86 398.028 177.239 392.193C175.619 386.359 166.867 323.479 166.543 318.293C166.219 313.107 162.005 310.514 155.199 307.92C148.392 305.327 131.537 304.355 126.351 304.355C121.165 304.355 119.22 305.327 119.22 305.327Z" fill="#263238" stroke="#263238" stroke-miterlimit="10" stroke-linecap="round"/>
<path d="M119.22 305.328L111.688 309.463L140.6 346.167L151.892 306.961C143.996 305.094 130.811 304.368 126.338 304.368C121.152 304.355 119.22 305.328 119.22 305.328Z" fill="white" stroke="#263238" stroke-miterlimit="10" stroke-linecap="round"/>
<path d="M114.669 293.659L116.938 307.92L138.331 337.092L145.137 306.624V292.038L114.669 293.659Z" fill="white" stroke="#263238" stroke-miterlimit="10" stroke-linecap="round"/>
<path d="M104.959 244.716C104.959 244.716 103.325 239.854 96.5186 239.854C89.7119 239.854 82.9182 247.633 82.9182 255.412C82.8844 256.924 83.1683 258.427 83.7515 259.822C84.3347 261.218 85.2043 262.476 86.304 263.515C87.4038 264.553 88.7092 265.35 90.1359 265.852C91.5626 266.355 93.0789 266.552 94.5868 266.432C99.7728 266.108 102.69 264.163 103.986 259.95C105.283 255.736 104.959 244.716 104.959 244.716Z" fill="#263238" stroke="#263238" stroke-miterlimit="10" stroke-linecap="round"/>
<path d="M107.202 239.037C103.979 242.904 102.1 247.713 101.847 252.741C101.407 261.207 106.294 276.338 107.63 283.015C108.965 289.692 114.035 300.154 129.67 302.384C145.306 304.614 150.415 285.685 150.415 279.449C150.415 273.213 147.303 254.53 144.632 246.518C141.961 238.505 137.955 232.723 128.607 231.828C119.259 230.934 112.427 233.592 107.202 239.037Z" fill="white" stroke="#263238" stroke-miterlimit="10" stroke-linecap="round"/>
<path d="M150.337 279.449C150.072 274.227 149.453 269.029 148.483 263.891C148.612 265.434 148.846 267.781 149.325 271.307C150.298 278.438 148.677 279.41 148.677 279.41C148.677 279.41 145.76 274.548 136.36 272.928C126.961 271.307 115.94 284.92 114.968 284.92C113.996 284.92 113.671 283.624 112.375 279.41C111.078 275.197 107.189 266.769 108.485 262.88C109.782 258.99 109.782 258.342 107.837 254.777C105.892 251.211 104.92 249.915 110.43 245.39C116.913 240.048 128.218 239.426 136.36 239.063C138.234 238.818 140.137 239.192 141.78 240.126C140.47 237.728 138.566 235.706 136.25 234.256C133.934 232.805 131.285 231.974 128.555 231.841C119.208 230.947 112.427 233.605 107.202 239.05C103.979 242.917 102.1 247.726 101.847 252.754C101.407 261.22 106.294 276.351 107.63 283.028C108.965 289.705 114.035 300.167 129.67 302.397C145.306 304.627 150.337 285.685 150.337 279.449Z" fill="#263238" stroke="#263238" stroke-miterlimit="10" stroke-linecap="round"/>
<path d="M140.924 279.073C135.939 280.875 130.667 281.753 125.366 281.666" stroke="white" stroke-miterlimit="10" stroke-linecap="round"/>
<path d="M134.778 258.977L136.399 270.97C136.399 270.97 132.509 276.48 127.647 269.674" stroke="#263238" stroke-miterlimit="10" stroke-linecap="round"/>
<path d="M127.31 254.764C127.038 255.062 118.235 252.171 115.966 259.626" stroke="#263238" stroke-width="2" stroke-miterlimit="10" stroke-linecap="round"/>
<path d="M135.09 253.467C135.09 253.467 140.924 248.929 145.462 255.088" stroke="#263238" stroke-width="2" stroke-miterlimit="10" stroke-linecap="round"/>
<path d="M123.253 264.487C124.062 264.487 124.718 263.327 124.718 261.894C124.718 260.462 124.062 259.301 123.253 259.301C122.444 259.301 121.788 260.462 121.788 261.894C121.788 263.327 122.444 264.487 123.253 264.487Z" fill="#263238"/>
<path d="M140.924 263.191C141.733 263.191 142.389 262.03 142.389 260.598C142.389 259.166 141.733 258.005 140.924 258.005C140.115 258.005 139.459 259.166 139.459 260.598C139.459 262.03 140.115 263.191 140.924 263.191Z" fill="#263238"/>
<path d="M103.325 267.081C103.325 267.081 98.139 263.191 97.8149 270.646C97.6635 273.009 98.3184 275.354 99.6726 277.297C101.027 279.24 103 280.666 105.27 281.342C106.89 281.666 107.215 279.397 107.215 279.397L103.325 267.081Z" fill="white" stroke="#263238" stroke-miterlimit="10" stroke-linecap="round"/>
<path d="M96.1945 318.293C96.1945 318.293 86.4707 321.858 83.5536 324.127C80.6365 326.396 76.6303 335.575 79.3529 355.554C80.3123 362.62 87.4431 411.641 87.4431 411.641L167.178 407.427L180.468 402.89L106.891 390.897L101.069 335.795" fill="#263238"/>
<path d="M96.1945 318.293C96.1945 318.293 86.4707 321.858 83.5536 324.127C80.6365 326.396 76.6303 335.575 79.3529 355.554C80.3123 362.62 87.4431 411.641 87.4431 411.641L167.178 407.427L180.468 402.89L106.891 390.897L101.069 335.795" stroke="#263238" stroke-miterlimit="10" stroke-linecap="round"/>
<path d="M87.4431 411.641L167.178 407.427L180.468 402.89L106.891 390.897L103.662 365.68L80.9087 367.664C82.2182 385.542 87.4431 411.641 87.4431 411.641Z" fill="white" stroke="#263238" stroke-miterlimit="10" stroke-linecap="round"/>
<path d="M106.255 412.289C106.255 412.289 111.441 433.033 118.896 439.516C126.351 445.998 139.316 445.026 151.633 445.026C163.95 445.026 190.852 437.895 191.825 437.895C192.797 437.895 237.851 449.24 237.851 449.24L223.913 551.988L244.009 555.877C244.009 555.877 272.208 455.074 272.208 452.805C272.208 450.536 278.691 441.461 267.671 427.523C256.65 413.586 202.521 409.372 190.528 406.455C178.536 403.538 106.255 412.289 106.255 412.289Z" fill="white" stroke="#263238" stroke-miterlimit="10" stroke-linecap="round"/>
<path d="M215.706 419.978L199.266 439.425L191.825 437.895L182.425 440.164C182.425 440.164 181.958 436.43 188.454 428.638C194.949 420.846 215.706 419.978 215.706 419.978Z" fill="#263238"/>
<path d="M223.9 551.988L220.659 568.519C220.659 568.519 237.19 572.408 241.727 573.38C246.265 574.353 260.851 573.705 264.092 573.38C267.333 573.056 261.823 569.815 259.879 568.843C257.934 567.87 243.024 558.795 243.024 558.795L243.996 555.878L223.9 551.988Z" fill="white" stroke="#263238" stroke-miterlimit="10" stroke-linecap="round"/>
<path d="M127 417.799C127 417.799 190.528 392.025 197.011 389.6C210.948 384.414 230.604 385.789 233.313 386.359C239.472 387.656 297.166 445.674 297.166 445.674L284.849 456.695L225.534 415.206C225.534 415.206 190.853 435.951 182.425 440.164C173.998 444.378 155.199 446.971 141.261 445.998C127.324 445.026 118.572 437.895 116.303 433.358C114.035 428.82 115.007 425.903 115.007 425.903" fill="white"/>
<path d="M127 417.799C127 417.799 190.528 392.025 197.011 389.6C210.948 384.414 230.604 385.789 233.313 386.359C239.472 387.656 297.166 445.674 297.166 445.674L284.849 456.695L225.534 415.206C225.534 415.206 190.853 435.951 182.425 440.164C173.998 444.378 155.199 446.971 141.261 445.998C127.324 445.026 118.572 437.895 116.303 433.358C114.035 428.82 115.007 425.903 115.007 425.903" stroke="#263238" stroke-miterlimit="10" stroke-linecap="round"/>
<path d="M284.836 456.695L301.367 471.929C301.367 471.929 332.807 438.868 333.78 437.571C334.752 436.275 337.669 430.765 335.724 430.765C333.78 430.765 300.395 446.647 300.395 446.647L297.153 445.674L284.836 456.695Z" fill="white" stroke="#263238" stroke-miterlimit="10" stroke-linecap="round"/>
<path d="M231.68 385.711C231.68 385.711 246.59 386.683 247.238 387.98C247.886 389.276 253.396 397.055 253.72 399.324C253.927 400.937 254.035 402.56 254.044 404.186C254.044 404.186 241.728 397.379 241.079 395.759C240.589 394.176 240.263 392.547 240.107 390.897L231.68 385.711Z" fill="white" stroke="#263238" stroke-miterlimit="10" stroke-linecap="round"/>
<path d="M799.252 61.0396L766.735 93.9579H846.821L814.304 61.0396H799.252Z" fill="#263238" stroke="#263238" stroke-miterlimit="10"/>
<path d="M814.148 56.6574H799.251V61.0396H814.148V56.6574Z" fill="#263238" stroke="#263238" stroke-miterlimit="10"/>
<path d="M806.59 56.6574V0" stroke="#263238" stroke-miterlimit="10"/>
<path d="M91.3587 61.0396L58.8423 93.9579H138.928L106.411 61.0396H91.3587Z" fill="#263238" stroke="#263238" stroke-miterlimit="10"/>
<path d="M106.255 56.6574H91.3584V61.0396H106.255V56.6574Z" fill="#263238" stroke="#263238" stroke-miterlimit="10"/>
<path d="M98.6968 56.6574V0" stroke="#263238" stroke-miterlimit="10"/>
</svg>
