<svg width="19" height="19" viewBox="0 0 19 19" fill="none" xmlns="http://www.w3.org/2000/svg">
<g clip-path="url(#clip0_976_238)">
<path d="M14.7354 0H4.26463C1.90934 0 0 1.90934 0 4.26463V14.7354C0 17.0907 1.90934 19 4.26463 19H14.7354C17.0907 19 19 17.0907 19 14.7354V4.26463C19 1.90934 17.0907 0 14.7354 0Z" fill="white"/>
<path d="M5.26493 7.8975H7.2393V14.2681H5.26493V7.8975ZM6.27186 4.73193C6.49807 4.73194 6.7192 4.79894 6.90737 4.92448C7.09554 5.05002 7.24232 5.22847 7.32918 5.43734C7.41605 5.6462 7.4391 5.87611 7.39545 6.09806C7.35179 6.32001 7.24338 6.52407 7.08389 6.68448C6.9244 6.84488 6.72097 6.95446 6.49927 6.99939C6.27757 7.04431 6.04754 7.02257 5.83818 6.93691C5.62882 6.85124 5.44953 6.7055 5.32291 6.51805C5.19629 6.3306 5.12803 6.10985 5.12673 5.88365C5.12586 5.73271 5.15484 5.5831 5.212 5.4434C5.26916 5.30371 5.35337 5.17669 5.45979 5.06966C5.56622 4.96263 5.69275 4.87769 5.83211 4.81973C5.97148 4.76177 6.12092 4.73193 6.27186 4.73193Z" fill="#0B86CA"/>
<path d="M8.50292 7.89746H10.4049V8.76618C10.5953 8.44126 10.8703 8.17414 11.2007 7.99332C11.531 7.8125 11.9042 7.72478 12.2805 7.73951C14.2549 7.73951 14.6564 9.05575 14.6564 10.7735V14.2681H12.682V11.1881C12.682 10.451 12.682 9.49669 11.6553 9.49669C10.6287 9.49669 10.4707 10.2996 10.4707 11.1288V14.2812H8.49634L8.50292 7.89746Z" fill="#0B86CA"/>
</g>
<defs>
<clipPath id="clip0_976_238">
<rect width="19" height="19" fill="white"/>
</clipPath>
</defs>
</svg>
